<?xml version="1.0" standalone="no"?>
<!DOCTYPE svg PUBLIC "-//W3C//DTD SVG 1.1//EN" "http://www.w3.org/Graphics/SVG/1.1/DTD/svg11.dtd" >
<svg>
<metadata>
Created by FontForge 20090914 at Mon Oct 21 11:52:14 2013
 By www-data
Copyright (C) 2002, Emigre Inc.; Designed by Zuzana Licko
</metadata>
<defs>
<font id="FairplexNarrowMediumItalic" horiz-adv-x="425" >
  <font-face 
    font-family="FairplexNarrowMediumItalic"
    font-weight="500"
    font-style="italic"
    font-stretch="normal"
    units-per-em="1000"
    panose-1="2 0 6 6 5 0 0 9 0 4"
    ascent="800"
    descent="-200"
    x-height="457.998"
    cap-height="616"
    bbox="-129.095 -255 915.084 878.002"
    underline-thickness="30"
    underline-position="-90"
    slope="-12"
    unicode-range="U+0020-U+FB02"
  />
<missing-glyph horiz-adv-x="500" 
 />
    <glyph glyph-name=".notdef" horiz-adv-x="500" 
 />
    <glyph glyph-name="space" unicode=" " horiz-adv-x="163" 
 />
    <glyph glyph-name="exclam" unicode="!" horiz-adv-x="267" 
d="M265 627h-124l-51 -423h75zM168 56c3.33301 18.667 -0.331055 34.5 -10.998 47.5s-25 19.5 -43 19.5c-18.667 0 -35.834 -6.5 -51.501 -19.5s-25.167 -28.833 -28.5 -47.5c-3.33301 -18 0.5 -33.667 11.5 -47s25.833 -20 44.5 -20c18 0 34.667 6.66699 50 20
s24.666 29 27.999 47z" />
    <glyph glyph-name="quotedbl" unicode="&#x22;" horiz-adv-x="346" 
d="M393 691c2.66699 16 0.501953 29.501 -6.49805 40.501s-18.5 16.5 -34.5 16.5c-16.667 0 -30.334 -5.5 -41.001 -16.5s-17.334 -24.5 -20.001 -40.5c-1.33301 -8.66699 -1.83301 -21.834 -1.5 -39.501s-0.166992 -35.167 -1.5 -52.5l-4 -111h45l34 111
c5.33301 18.667 11.333 36.5 18 53.5s10.667 29.833 12 38.5zM219.002 691.001c2.66699 16 0.501953 29.501 -6.49805 40.501s-18.5 16.5 -34.5 16.5c-16.667 0 -30.334 -5.5 -41.001 -16.5s-17.334 -24.5 -20.001 -40.5c-1.33301 -8.66699 -1.83301 -21.834 -1.5 -39.501
s-0.166992 -35.167 -1.5 -52.5l-4 -111h45l34 111c5.33301 18.667 11.333 36.5 18 53.5s10.667 29.833 12 38.5z" />
    <glyph glyph-name="numbersign" unicode="#" horiz-adv-x="464" 
d="M497 466h-86l48 135h-69l-46 -135h-96l47 135h-68l-47 -135h-86l-26 -71h86l-37 -107h-85l-27 -74h86l-46 -133h70l45 133h96l-46 -133h69l45 133h86l25 74h-85l37 107h85zM319 395l-39 -107h-94l37 107h96z" />
    <glyph glyph-name="dollar" unicode="$" horiz-adv-x="469" 
d="M458 581c-3.33301 2.66699 -8.8291 6.16602 -16.4961 10.499s-17.167 8.83301 -28.5 13.5s-24.5 9 -39.5 13s-31.5 7 -49.5 9l17 99h-45l-18 -99c-22.667 -1.33301 -45 -5.83301 -67 -13.5s-42 -18 -60 -31s-33.333 -28.833 -46 -47.5s-21 -39.667 -25 -63
c-4 -24.667 -3.16699 -46.834 2.5 -66.501s14.667 -37.667 27 -54s27.666 -31.166 45.999 -44.499s38.166 -25.666 59.499 -36.999l-36 -206c-12 2 -23.5 5.16699 -34.5 9.5s-20.833 10.333 -29.5 18s-15.834 17.334 -21.501 29.001s-9.16699 25.834 -10.5 42.501h-36
l-33 -112c3.33301 -2.66699 9.33301 -7.16699 18 -13.5s19.5 -12.666 32.5 -18.999s28 -12.333 45 -18s35.833 -9.5 56.5 -11.5l-19 -110h45l19 109c56.667 3.33301 103.167 19.166 139.5 47.499s59.166 67.166 68.499 116.499c8 44.667 -1 84 -27 118
s-64.333 64.333 -115 91l34 192c18.667 -3.33301 35.667 -10.833 51 -22.5s25.333 -30.834 30 -57.501h35zM265.004 553.999l-30 -172c-46.667 29.333 -66.667 62 -60 98c3.33301 20.667 13.833 37.5 31.5 50.5s37.167 20.833 58.5 23.5zM320.004 143.999
c-4 -24.667 -15.1689 -43.832 -33.502 -57.499s-39.166 -21.834 -62.499 -24.501l33 185c26 -16.667 43.833 -33 53.5 -49s12.834 -34 9.50098 -54z" />
    <glyph glyph-name="percent" unicode="%" horiz-adv-x="635" 
d="M312 461c4.66699 26 5.33105 49.332 1.99805 69.999s-9.66602 38.167 -18.999 52.5s-21.166 25.166 -35.499 32.499s-30.5 11 -48.5 11c-36 0 -67.833 -13.333 -95.5 -40s-46.167 -66 -55.5 -118c-4.66699 -26 -5.16699 -49.167 -1.5 -69.5s10.167 -37.666 19.5 -51.999
s21.333 -25.166 36 -32.499s31 -11 49 -11c36 0 67.5 13.5 94.5 40.5s45.167 65.833 54.5 116.5zM574.997 617.999h-67l-419 -620h66zM602.997 146.999c4.66699 26 5.33398 49.334 2.00098 70.001s-9.83301 38.167 -19.5 52.5s-21.834 25.166 -36.501 32.499s-31 11 -49 11
c-36 0 -67.667 -13.5 -95 -40.5s-45.666 -66.5 -54.999 -118.5c-4.66699 -26 -5.33398 -49.167 -2.00098 -69.5s9.83301 -37.5 19.5 -51.5s21.667 -24.667 36 -32s30.5 -11 48.5 -11c36 0 67.833 13.5 95.5 40.5s46.167 65.833 55.5 116.5zM242.997 465
c-5.33301 -28 -14.001 -50.667 -26.001 -68s-27.667 -26 -47 -26s-32.166 8.66699 -38.499 26s-6.83301 40 -1.5 68c5.33301 28.667 14 51.667 26 69s27.667 26 47 26s32 -8.66699 38 -26s6.66699 -40.333 2 -69zM532.996 151c-5.33301 -28 -14 -50.833 -26 -68.5
s-27.667 -26.5 -47 -26.5s-32.166 8.83301 -38.499 26.5s-6.83301 40.5 -1.5 68.5c5.33301 28.667 14 51.667 26 69s27.667 26 47 26s32.166 -8.66699 38.499 -26s6.83301 -40.333 1.5 -69z" />
    <glyph glyph-name="ampersand" unicode="&#x26;" horiz-adv-x="555" 
d="M412 97c17.333 22.667 32.3281 48.166 44.9951 76.499s22.334 60.5 29.001 96.5c4 22 9.16699 36.5 15.5 43.5s18.166 10.5 35.499 10.5l-7 53h-132l-13 -53c17.333 0 28.5 -3.5 33.5 -10.5s5.16699 -22.167 0.5 -45.5c-8 -42 -21.333 -79.333 -40 -112
c-2 4 -3.83301 8 -5.5 12l-5.5 13l-92 225c-7.33301 17.333 -12.833 33.833 -16.5 49.5s-4.16699 30.167 -1.5 43.5c2.66699 16.667 9.66699 30.5 21 41.5s25.333 16.5 42 16.5c22.667 0 38.334 -6.33301 47.001 -19s14.334 -33 17.001 -61h35l38 107
c-4 3.33301 -10.333 7.33301 -19 12s-18.834 9.33398 -30.501 14.001s-24.667 8.66699 -39 12s-29.166 5 -44.499 5c-25.333 0 -47.666 -3.66699 -66.999 -11s-36 -17 -50 -29s-25 -25.833 -33 -41.5s-13.667 -32.167 -17 -49.5c-3.33301 -18 -3 -37.5 1 -58.5
s10.667 -42.167 20 -63.5c2.66699 -6 3.66699 -9 3 -9c-37.333 -19.333 -69.666 -44 -96.999 -74s-45 -67 -53 -111c-4 -24 -3.5 -47.5 1.5 -70.5s15 -43.5 30 -61.5s34.5 -32.333 58.5 -43s53 -16 87 -16c44.667 0 88.334 13.667 131.001 41
c6 -6.66699 11.833 -12.5 17.5 -17.5s11.167 -9.16699 16.5 -12.5h109l10 54c-18.667 0 -34 3.33301 -46 10s-23.667 17.667 -35 33zM305.995 78.999c-11.333 -6 -22.668 -10.668 -34.001 -14.001s-23.666 -5 -36.999 -5c-21.333 0 -39.333 3.5 -54 10.5
s-26.167 16.5 -34.5 28.5s-13.833 26 -16.5 42s-2.33398 33 0.999023 51c4 22.667 12.833 43.5 26.5 62.5s30.834 35.167 51.501 48.5l73 -175c3.33301 -8.66699 7 -17.167 11 -25.5s8.33301 -16.166 13 -23.499z" />
    <glyph glyph-name="quotesingle" unicode="'" horiz-adv-x="172" 
d="M219 691c2.66699 16 0.501953 29.501 -6.49805 40.501s-18.5 16.5 -34.5 16.5c-16.667 0 -30.334 -5.5 -41.001 -16.5s-17.334 -24.5 -20.001 -40.5c-1.33301 -8.66699 -1.83301 -21.834 -1.5 -39.501s-0.166992 -35.167 -1.5 -52.5l-4 -111h45l34 111
c5.33301 18.667 11.333 36.5 18 53.5s10.667 29.833 12 38.5z" />
    <glyph glyph-name="parenleft" unicode="(" horiz-adv-x="295" 
d="M403 728l-79.999 -0.000976562c-28 -26.667 -55.5 -57.5 -82.5 -92.5s-51.5 -72.333 -73.5 -112s-41.167 -80.334 -57.5 -122.001s-28.166 -83.167 -35.499 -124.5s-10 -83 -8 -125s7.5 -82.667 16.5 -122s21.167 -76.5 36.5 -111.5s32.333 -65.833 51 -92.5h74
c-10.667 15.333 -22.834 37.333 -36.501 66s-25.667 62.334 -36 101.001s-17.333 82 -21 130s-0.833984 99.333 8.49902 154s24.333 106 45 154s43 91.333 67 130s48 72.334 72 101.001s44 50.667 60 66z" />
    <glyph glyph-name="parenright" unicode=")" horiz-adv-x="295" 
d="M237 278c7.33301 41.333 9.99902 82.834 7.99902 124.501s-7.5 82.334 -16.5 122.001s-21 77 -36 112s-32.167 65.833 -51.5 92.5h-74c11.333 -15.333 23.833 -37.333 37.5 -66s25.667 -62.334 36 -101.001s17.333 -82 21 -130s0.833984 -99.333 -8.49902 -154
c-10 -54.667 -25.167 -106 -45.5 -154s-42.5 -91.333 -66.5 -130s-48 -72.334 -72 -101.001s-44.333 -50.667 -61 -66h80c28.667 26.667 56.5 57.5 83.5 92.5s51.5 72.167 73.5 111.5s41 80 57 122s27.667 83.667 35 125z" />
    <glyph glyph-name="asterisk" unicode="*" horiz-adv-x="417" 
d="M472 573l-12 73l-151 -49l29 151h-77l-25 -151l-133 49l-36 -74l136 -43l-111 -120l54 -45l108 122l65 -121l70 44l-70 120z" />
    <glyph glyph-name="plus" unicode="+" horiz-adv-x="475" 
d="M458 308h-169l30 169h-77l-29 -169h-168l-14 -76h168l-30 -170h77l29 170h169z" />
    <glyph glyph-name="comma" unicode="," horiz-adv-x="213" 
d="M137 32c5.33301 32 1.49902 55.165 -11.501 69.498s-27.833 21.5 -44.5 21.5c-16 0 -29 -5 -39 -15s-16.333 -21.667 -19 -35c-1.33301 -8.66699 -1.16602 -16.167 0.500977 -22.5s3.83398 -12.5 6.50098 -18.5s5.16699 -12.5 7.5 -19.5s2.83301 -15.5 1.5 -25.5
c-2 -21.333 -8.5 -43.666 -19.5 -66.999s-25.167 -45.666 -42.5 -66.999h46c13.333 12 26.333 25.667 39 41s24.167 31 34.5 47s19.166 32 26.499 48s12 30.333 14 43z" />
    <glyph glyph-name="hyphen" unicode="-" horiz-adv-x="316" 
d="M287 310h-229l-14 -80h229z" />
    <glyph glyph-name="period" unicode="." horiz-adv-x="213" 
d="M142 56c3.33301 18.667 -0.335938 34.5 -11.0029 47.5s-25 19.5 -43 19.5c-18.667 0 -35.667 -6.5 -51 -19.5s-24.666 -28.833 -27.999 -47.5c-3.33301 -18 0.333984 -33.667 11.001 -47s25.334 -20 44.001 -20s35.5 6.66699 50.5 20s24.167 29 27.5 47z" />
    <glyph glyph-name="slash" unicode="/" horiz-adv-x="353" 
d="M437 622h-71l-421 -628h70z" />
    <glyph glyph-name="zero" unicode="0" horiz-adv-x="503" 
d="M477 301c9.33301 53.333 12.166 100.169 8.49902 140.502s-12.667 74.166 -27 101.499s-33.666 47.833 -57.999 61.5s-52.833 20.5 -85.5 20.5c-64.667 0 -119.667 -26.167 -165 -78.5s-77.333 -129.5 -96 -231.5c-9.33301 -52.667 -12.166 -99.334 -8.49902 -140.001
s12.667 -74.5 27 -101.5s33.666 -47.5 57.999 -61.5s52.5 -21 84.5 -21c65.333 0 120.833 26.167 166.5 78.5s77.5 129.5 95.5 231.5zM372 308.003c-13.333 -76.667 -31.834 -134.5 -55.501 -173.5s-54.167 -58.5 -91.5 -58.5s-61.166 19.5 -71.499 58.5
s-8.83301 96.833 4.5 173.5s32 134.5 56 173.5s54.667 58.5 92 58.5s61 -19.5 71 -58.5s8.33301 -96.833 -5 -173.5z" />
    <glyph glyph-name="one" unicode="1" horiz-adv-x="371" 
d="M315 625h-76c-14 -20 -26.5 -36.333 -37.5 -49s-22 -23 -33 -31s-22.333 -14.5 -34 -19.5s-24.5 -9.5 -38.5 -13.5l-12 -71c27.333 3.33301 48.5 8.5 63.5 15.5s27.167 14.833 36.5 23.5l-68 -378c-3.33301 -17.333 -8.5 -29.333 -15.5 -36s-19.167 -10 -36.5 -10h-33
l9 -56h238l13 56h-33c-17.333 0 -28.5 3.33301 -33.5 10s-5.83301 18.667 -2.5 36z" />
    <glyph glyph-name="two" unicode="2" horiz-adv-x="443" 
d="M431 460c4.66699 26.667 3.83398 50.167 -2.49902 70.5s-16.833 37.5 -31.5 51.5s-32.834 24.667 -54.501 32s-45.5 11 -71.5 11c-20.667 0 -40.5 -2.33301 -59.5 -7s-36.167 -10 -51.5 -16s-28.666 -12 -39.999 -18s-19.666 -10.667 -24.999 -14v-106h38
c15.333 32 33.333 54 54 66s41.667 18 63 18c29.333 0 50.166 -8.5 62.499 -25.5s16.166 -39.167 11.499 -66.5c-4 -24.667 -13.833 -46.5 -29.5 -65.5s-34.334 -37.833 -56.001 -56.5l-70 -57.5c-25 -19.667 -48.833 -42.334 -71.5 -68.001s-43.167 -55.334 -61.5 -89.001
s-31.5 -73.5 -39.5 -119.5h364l23 137l-44 12c-3.33301 -12 -6.66602 -22 -9.99902 -30s-7.33301 -14.333 -12 -19s-10.667 -8 -18 -10s-16.666 -3 -27.999 -3h-151c8 23.333 20.667 44.666 38 63.999s36.5 37.833 57.5 55.5s43.167 35.334 66.5 53.001
s45.166 36.334 65.499 56.001s38 41.334 53 65.001s25.167 50.167 30.5 79.5z" />
    <glyph glyph-name="three" unicode="3" horiz-adv-x="447" 
d="M434 475c4 24 2.5 45.1729 -4.5 63.5059s-18 34 -33 47s-33.5 22.833 -55.5 29.5s-45.667 10 -71 10c-20 0 -39.333 -2 -58 -6s-35.667 -8.83301 -51 -14.5s-28.666 -11.334 -39.999 -17.001s-19.666 -10.167 -24.999 -13.5l1 -105h36c14.667 30 32.5 50.667 53.5 62
s43.167 17 66.5 17c28 0 48 -7.66699 60 -23s16.333 -32.333 13 -51c-2 -12.667 -7.16699 -25.334 -15.5 -38.001s-19.5 -24.334 -33.5 -35.001s-30.667 -19.834 -50 -27.501s-41.333 -12.5 -66 -14.5l-10 -62c50 -6.66699 86.667 -23 110 -49s32.333 -55.333 27 -88
c-5.33301 -29.333 -17.833 -52.166 -37.5 -68.499s-44.834 -24.5 -75.501 -24.5c-14 0 -27.5 2 -40.5 6s-24.333 10 -34 18s-17.5 18.167 -23.5 30.5s-9 27.166 -9 44.499h-35l-39 -107c4 -4 11.167 -9.66699 21.5 -17s23.333 -14.833 39 -22.5s33.667 -14.334 54 -20.001
s42.833 -8.5 67.5 -8.5c61.333 0 110.833 14.667 148.5 44s60.834 68 69.501 116c7.33301 42.667 1.16602 79.167 -18.501 109.5s-45.834 53.166 -78.501 68.499c34 14.667 63.833 34.5 89.5 59.5s41.5 53.833 47.5 86.5z" />
    <glyph glyph-name="four" unicode="4" horiz-adv-x="487" 
d="M464 278l-33.999 8.99902c-4.66699 -13.333 -9.5 -22.666 -14.5 -27.999s-14.167 -8 -27.5 -8h-30l65 368h-98l-315 -393l17 -53h217l-13 -74c-3.33301 -18 -8.33301 -30.333 -15 -37s-18.667 -10 -36 -10l8 -52h165l13 52c-17.333 0 -28.333 3.33301 -33 10
s-5.33398 19 -2.00098 37l13 74h101zM319.001 525.999c-0.666992 -1.33301 -2.66699 -6.33398 -6 -15.001s-7.16602 -20 -11.499 -34s-7.5 -26 -9.5 -36l-34 -190h-150l159 198c7.33301 8.66699 15.166 19.334 23.499 32.001l20 31c5 8 7.83301 12.667 8.5 14z" />
    <glyph glyph-name="five" unicode="5" horiz-adv-x="432" 
d="M435 616h-274l-96 -311l45 -25c15.333 9.33301 30.333 16.166 45 20.499s31.334 6.5 50.001 6.5c12.667 0 25 -2.33301 37 -7s22.167 -12 30.5 -22s14.166 -22.833 17.499 -38.5s3 -34.5 -1 -56.5c-6 -33.333 -20.167 -61.166 -42.5 -83.499s-49.166 -33.5 -80.499 -33.5
c-27.333 0 -50.833 7 -70.5 21s-29.834 36.333 -30.501 67h-36l-39 -105c4 -2.66699 10.5 -7.33398 19.5 -14.001s20.833 -13.167 35.5 -19.5s31.834 -12 51.501 -17s42.167 -7.5 67.5 -7.5c28.667 0 55.667 4.66699 81 14s48.166 22.5 68.499 39.5s37.333 37.833 51 62.5
s23.5 52.334 29.5 83.001c5.33301 31.333 5.16602 59.333 -0.500977 84s-15.667 45.667 -30 63s-32.166 30.5 -53.499 39.5s-45 13.5 -71 13.5c-12.667 0 -25 -1.33301 -37 -4s-23 -6 -33 -10l46 149h205z" />
    <glyph glyph-name="six" unicode="6" horiz-adv-x="480" 
d="M461 595c-8 7.33301 -22.333 14.167 -43 20.5s-41 9.5 -61 9.5c-42 0 -80.167 -8.83301 -114.5 -26.5s-64.333 -41.834 -90 -72.501s-47.167 -66.667 -64.5 -108s-30 -85.333 -38 -132s-10.167 -88.167 -6.5 -124.5s12.667 -67.166 27 -92.499s33.5 -44.666 57.5 -57.999
s51.667 -20 83 -20c30.667 0 58.834 6 84.501 18s48.5 28 68.5 48s36.667 43.167 50 69.5s22.666 54.166 27.999 83.499c5.33301 28.667 5.83301 55.667 1.5 81s-12.833 47.333 -25.5 66s-29 33.5 -49 44.5s-43.333 16.5 -70 16.5c-13.333 0 -26.666 -2 -39.999 -6
s-26 -9.5 -38 -16.5s-23 -14.833 -33 -23.5s-18.333 -18 -25 -28c18 65.333 43.667 115.5 77 150.5s71.666 52.5 114.999 52.5c21.333 0 40 -2.33301 56 -7s28.667 -9.66699 38 -15zM345 214.001c-8 -46 -23.5 -81.9971 -46.5 -107.997s-49.5 -39 -79.5 -39
c-18 0 -32.667 4.16699 -44 12.5s-20 19.166 -26 32.499s-9.5 28.166 -10.5 44.499s-0.166992 32.166 2.5 47.499c4 23.333 10.667 43.5 20 60.5s20.166 31.167 32.499 42.5s25.5 19.833 39.5 25.5s27.667 8.5 41 8.5c28.667 0 49.334 -11.667 62.001 -35s15.667 -54 9 -92z
" />
    <glyph glyph-name="seven" unicode="7" horiz-adv-x="428" 
d="M488 578l-10.002 38.002h-386l-25 -138l45 -13c3.33301 11.333 6.5 20.833 9.5 28.5s6.83301 13.667 11.5 18s10.834 7.5 18.501 9.5s17.5 3 29.5 3h171c-18 -26.667 -37.833 -54.334 -59.5 -83.001l-64.5 -88c-21.333 -30 -41.666 -60.167 -60.999 -90.5
s-35.666 -60.5 -48.999 -90.5s-22.833 -59.333 -28.5 -88s-5.16699 -56.667 1.5 -84h136l8 47c-17.333 1.33301 -29.5 6 -36.5 14s-8.5 22 -4.5 42c6 33.333 20.5 70.5 43.5 111.5s49.5 82.833 79.5 125.5l92 126c31.333 41.333 57.666 78.666 78.999 111.999z" />
    <glyph glyph-name="eight" unicode="8" horiz-adv-x="485" 
d="M477 482c4 22 2.50195 41.998 -4.49805 59.998s-18.167 33.333 -33.5 46s-34 22.5 -56 29.5s-46.333 10.5 -73 10.5s-52 -3.33301 -76 -10s-45.333 -16.167 -64 -28.5s-34.167 -27.333 -46.5 -45s-20.5 -37.5 -24.5 -59.5c-2.66699 -18 -2.33398 -34.333 0.999023 -49
s9.16602 -28.167 17.499 -40.5s18.333 -23.666 30 -33.999s24.167 -20.166 37.5 -29.499c-18 -9.33301 -35.833 -19.833 -53.5 -31.5s-33.667 -24.5 -48 -38.5s-26.666 -29.667 -36.999 -47s-17.5 -36.333 -21.5 -57c-4.66699 -25.333 -3.33398 -48.333 3.99902 -69
s19.333 -38.5 36 -53.5s37.167 -26.667 61.5 -35s51.166 -12.5 80.499 -12.5s56.833 3.66699 82.5 11s48.5 17.833 68.5 31.5s36.667 30.5 50 50.5s22.333 42.667 27 68c4 23.333 4 43.833 0 61.5s-10.833 33.667 -20.5 48s-21.167 27.166 -34.5 38.499
s-27.666 22 -42.999 32c34 18.667 64.167 39.834 90.5 63.501s42.833 53.5 49.5 89.5zM374.002 481.998c-4.66699 -26 -17 -47.668 -37 -65.001s-43.667 -33.333 -71 -48c-21.333 14.667 -38.5 30.834 -51.5 48.501s-17.167 39.167 -12.5 64.5
c3.33301 21.333 14 38.833 32 52.5s40 20.5 66 20.5s45.667 -6.83301 59 -20.5s18.333 -31.167 15 -52.5zM332.002 150.997c-2 -12.667 -6.33496 -24.498 -13.002 -35.498s-15.167 -20.667 -25.5 -29s-22 -14.833 -35 -19.5s-27.167 -7 -42.5 -7
c-29.333 0 -52.666 8.83301 -69.999 26.5s-23.666 39.5 -18.999 65.5c5.33301 31.333 20.333 57.666 45 78.999s53 40.333 85 57c12 -8.66699 23.167 -17.834 33.5 -27.501s19 -20 26 -31s12 -23 15 -36s3.16699 -27.167 0.5 -42.5z" />
    <glyph glyph-name="nine" unicode="9" horiz-adv-x="480" 
d="M458 330c8 46.667 10.1631 88.167 6.49609 124.5s-12.667 67.166 -27 92.499s-33.5 44.666 -57.5 57.999s-51.667 20 -83 20c-30 0 -58 -6 -84 -18s-49 -28 -69 -48s-36.667 -43.167 -50 -69.5s-22.666 -54.166 -27.999 -83.499c-4.66699 -28.667 -5 -55.667 -1 -81
s12.333 -47.333 25 -66s29.167 -33.5 49.5 -44.5s43.833 -16.5 70.5 -16.5c13.333 0 26.5 2 39.5 6s25.5 9.5 37.5 16.5s23.167 14.833 33.5 23.5s18.833 18 25.5 28c-18.667 -65.333 -44.667 -115.5 -78 -150.5s-71.666 -52.5 -114.999 -52.5
c-21.333 0 -39.833 2.33301 -55.5 7s-28.5 9.66699 -38.5 15l-12 -70c4 -4 9.83301 -7.66699 17.5 -11s16.334 -6.5 26.001 -9.5s19.834 -5.33301 30.501 -7s21 -2.5 31 -2.5c42 0 80 8.83301 114 26.5s63.833 41.834 89.5 72.501s47 66.667 64 108s29.833 85.333 38.5 132z
M366.996 412c-4 -22.667 -10.668 -42.6709 -20.001 -60.0039s-20 -31.666 -32 -42.999s-25 -19.833 -39 -25.5s-27.667 -8.5 -41 -8.5c-28.667 0 -49.5 11.667 -62.5 35s-15.833 54 -8.5 92c8 46 23.5 82 46.5 108s49.167 39 78.5 39c18 0 32.833 -4.16699 44.5 -12.5
s20.334 -19.166 26.001 -32.499s9 -28.166 10 -44.499s0.166992 -32.166 -2.5 -47.499z" />
    <glyph glyph-name="colon" unicode=":" horiz-adv-x="213" 
d="M202 391c3.33301 18 -0.332031 33.667 -10.999 47s-25.334 20 -44.001 20s-35.667 -6.5 -51 -19.5s-24.666 -28.833 -27.999 -47.5s0.5 -34.334 11.5 -47.001s25.5 -19 43.5 -19c18.667 0 35.667 6.33301 51 19s24.666 28.334 27.999 47.001zM142.002 56
c3.33301 18.667 -0.335938 34.5 -11.0029 47.5s-25 19.5 -43 19.5c-18.667 0 -35.667 -6.5 -51 -19.5s-24.666 -28.833 -27.999 -47.5c-3.33301 -18 0.333984 -33.667 11.001 -47s25.334 -20 44.001 -20s35.5 6.66699 50.5 20s24.167 29 27.5 47z" />
    <glyph glyph-name="semicolon" unicode=";" horiz-adv-x="213" 
d="M202 391c3.33301 18 -0.332031 33.667 -10.999 47s-25.334 20 -44.001 20s-35.667 -6.5 -51 -19.5s-24.666 -28.833 -27.999 -47.5s0.5 -34.334 11.5 -47.001s25.5 -19 43.5 -19c18.667 0 35.667 6.33301 51 19s24.666 28.334 27.999 47.001zM137.002 32
c5.33301 32 1.49902 55.165 -11.501 69.498s-27.833 21.5 -44.5 21.5c-16 0 -29 -5 -39 -15s-16.333 -21.667 -19 -35c-1.33301 -8.66699 -1.16602 -16.167 0.500977 -22.5s3.83398 -12.5 6.50098 -18.5s5.16699 -12.5 7.5 -19.5s2.83301 -15.5 1.5 -25.5
c-2 -21.333 -8.5 -43.666 -19.5 -66.999s-25.167 -45.666 -42.5 -66.999h46c13.333 12 26.333 25.667 39 41s24.167 31 34.5 47s19.166 32 26.499 48s12 30.333 14 43z" />
    <glyph glyph-name="semicolon" unicode="&#x37e;" horiz-adv-x="213" 
d="M202 391c3.33301 18 -0.332031 33.667 -10.999 47s-25.334 20 -44.001 20s-35.667 -6.5 -51 -19.5s-24.666 -28.833 -27.999 -47.5s0.5 -34.334 11.5 -47.001s25.5 -19 43.5 -19c18.667 0 35.667 6.33301 51 19s24.666 28.334 27.999 47.001zM137.002 32
c5.33301 32 1.49902 55.165 -11.501 69.498s-27.833 21.5 -44.5 21.5c-16 0 -29 -5 -39 -15s-16.333 -21.667 -19 -35c-1.33301 -8.66699 -1.16602 -16.167 0.500977 -22.5s3.83398 -12.5 6.50098 -18.5s5.16699 -12.5 7.5 -19.5s2.83301 -15.5 1.5 -25.5
c-2 -21.333 -8.5 -43.666 -19.5 -66.999s-25.167 -45.666 -42.5 -66.999h46c13.333 12 26.333 25.667 39 41s24.167 31 34.5 47s19.166 32 26.499 48s12 30.333 14 43z" />
    <glyph glyph-name="less" unicode="&#x3c;" horiz-adv-x="352" 
d="M354 504l-309 -212l-9 -45l236 -212l16 93l-150 139l199 138z" />
    <glyph glyph-name="equal" unicode="=" horiz-adv-x="387" 
d="M372 395h-298l-13 -74h298zM341 219h-298l-13 -74h298z" />
    <glyph glyph-name="greater" unicode="&#x3e;" horiz-adv-x="352" 
d="M331 292l-236 212l-16 -93l151 -138l-200 -139l-17 -99l309 212z" />
    <glyph glyph-name="question" unicode="?" horiz-adv-x="419" 
d="M429 470c4.66699 25.333 3.49707 47.6699 -3.50293 67.0029s-18.5 35.833 -34.5 49.5s-35.833 24 -59.5 31s-49.5 10.5 -77.5 10.5c-21.333 0 -41.666 -2 -60.999 -6s-36.833 -8.66699 -52.5 -14s-29.167 -10.833 -40.5 -16.5s-19.666 -10.167 -24.999 -13.5v-114h37
c16.667 34.667 36.334 57.667 59.001 69s45 17 67 17c28.667 0 50 -8 64 -24s19 -35.667 15 -59c-4.66699 -25.333 -16 -46.666 -34 -63.999l-57 -53c-20 -18 -38.167 -38.667 -54.5 -62s-25.5 -54 -27.5 -92h63c6 21.333 15 39.666 27 54.999s25.5 29.166 40.5 41.499
s30.667 24.166 47 35.499s31.833 23.666 46.5 36.999s27.5 28.333 38.5 45s18.5 36.667 22.5 60zM219.997 56.0039c3.33301 18.667 -0.333984 34.5 -11.001 47.5s-25.334 19.5 -44.001 19.5c-18 0 -34.667 -6.5 -50 -19.5s-24.666 -28.833 -27.999 -47.5
c-3.33301 -18 0.333984 -33.667 11.001 -47s25.334 -20 44.001 -20c18 0 34.667 6.66699 50 20s24.666 29 27.999 47z" />
    <glyph glyph-name="at" unicode="@" horiz-adv-x="683" 
d="M669 303c4 43.333 0.830078 82.668 -9.50293 118.001s-26.5 65.5 -48.5 90.5s-49.167 44.333 -81.5 58s-69.166 20.5 -110.499 20.5c-49.333 0 -96.5 -10 -141.5 -30s-85 -47.333 -120 -82s-63.667 -75.167 -86 -121.5s-35.833 -95.833 -40.5 -148.5
c-4 -47.333 0.5 -91.333 13.5 -132s32.667 -76 59 -106s58.5 -53.5 96.5 -70.5s80 -25.5 126 -25.5c41.333 0 81.333 6.33301 120 19s73.667 30.667 105 54l4 55c-36 -24.667 -71.167 -42.334 -105.5 -53.001s-72.166 -16 -113.499 -16c-34.667 0 -66.667 6.33301 -96 19
s-54.333 30.834 -75 54.501s-36.167 52.834 -46.5 87.501s-13.5 74 -9.5 118c4 42.667 15 83.167 33 121.5s41.167 72 69.5 101s60.5 52 96.5 69s74 25.5 114 25.5c28 0 54 -4.83301 78 -14.5s44.667 -24 62 -43s30.333 -42.667 39 -71s11.334 -61.5 8.00098 -99.5
c-2.66699 -28.667 -8.83398 -56 -18.501 -82s-21 -49 -34 -69s-26.667 -35.833 -41 -47.5s-27.166 -17.5 -38.499 -17.5c-12 0 -19.333 4.16699 -22 12.5s-1.33398 22.833 3.99902 43.5l41 165c7.33301 30 14.5 53.833 21.5 71.5s13.167 31.167 18.5 40.5h-41
c-5.33301 -3.33301 -11.166 -8.33301 -17.499 -15s-12.166 -13.667 -17.499 -21c-8 13.333 -18.833 24.5 -32.5 33.5s-29.167 13.5 -46.5 13.5c-20.667 0 -40.834 -4.66699 -60.501 -14s-37.667 -22.833 -54 -40.5s-31 -38.667 -44 -63s-23.167 -51.5 -30.5 -81.5
c-8 -30.667 -11.333 -58.334 -10 -83.001s6.33301 -45.667 15 -63s20.834 -30.833 36.501 -40.5s34.167 -14.5 55.5 -14.5c17.333 0 33.333 4.66699 48 14s28 20.666 40 33.999c4.66699 -11.333 12.5 -21.333 23.5 -30s26.167 -13 45.5 -13c22 0 45.167 7.33301 69.5 22
s47.166 34.167 68.499 58.5s39.5 52.833 54.5 85.5s23.833 67 26.5 103zM402.997 229.002c-13.333 -48.667 -27.501 -83 -42.501 -103s-32.167 -30 -51.5 -30c-45.333 0 -57 44 -35 132c11.333 44 25.833 77 43.5 99s36.834 33 57.501 33c20 0 32.667 -10.333 38 -31
s2 -54 -10 -100z" />
    <glyph glyph-name="A" unicode="A" horiz-adv-x="532" 
d="M510 54c-15.333 0 -25.998 2.33301 -31.998 7s-10.667 16.667 -14 36l-53 436c-1.33301 10 0.166992 17.333 4.5 22s15.166 7 32.499 7l-5 54h-230l-13 -54c16.667 0 26.5 -2.5 29.5 -7.5s2.16699 -12.833 -2.5 -23.5l-208 -434
c-4.66699 -10 -8.83398 -17.833 -12.501 -23.5s-7.66699 -10 -12 -13s-9.33301 -4.83301 -15 -5.5s-12.5 -1 -20.5 -1l8 -54h157l13 54c-17.333 0 -28.166 2.33301 -32.499 7s-2.16602 16.667 6.50098 36l40 83h199l10 -83c1.33301 -18 -0.333984 -29.667 -5.00098 -35
s-16.334 -8 -35.001 -8l8 -54h169zM344.002 261h-157.002l102 216c4 9.33301 8.66699 21.5 14 36.5l13 37.5c3.33301 10 5.33301 15.667 6 17c0 -1.33301 -0.166992 -7 -0.5 -17s-0.666016 -22.5 -0.999023 -37.5s-0.166016 -27.167 0.500977 -36.5z" />
    <glyph glyph-name="B" unicode="B" horiz-adv-x="510" 
d="M485 457c4.66699 24.667 3.99902 46.833 -2.00098 66.5s-16.333 36.334 -31 50.001s-33.334 24.167 -56.001 31.5s-49 11 -79 11h-198l-13 -54c17.333 0 28.333 -3.5 33 -10.5s5.33398 -19.167 2.00098 -36.5l-74 -414c-3.33301 -17.333 -8.33301 -29.5 -15 -36.5
s-18.667 -10.5 -36 -10.5l8 -54h209c63.333 0 115.833 14.5 157.5 43.5s67.167 71.5 76.5 127.5c6 36 1.83301 68.167 -12.5 96.5s-36.833 49.166 -67.5 62.499c24.667 12 45.834 29.167 63.501 51.5s29.167 47.5 34.5 75.5zM383.999 453.999
c-5.33301 -30 -18.167 -53 -38.5 -69s-47.5 -24 -81.5 -24h-45l32 179h43c70 0 100 -28.667 90 -86zM362.998 173.999c-6 -34 -20.5 -59.167 -43.5 -75.5s-53.167 -24.5 -90.5 -24.5h-60l37 210h50c40 0 69.167 -10.167 87.5 -30.5s24.833 -46.833 19.5 -79.5z" />
    <glyph glyph-name="C" unicode="C" horiz-adv-x="489" 
d="M525 564c-4.66699 4 -12.0029 9.5 -22.0029 16.5s-22.5 13.833 -37.5 20.5s-32 12.5 -51 17.5s-40.167 7.5 -63.5 7.5c-75.333 0 -139.166 -26.167 -191.499 -78.5s-87.166 -128.166 -104.499 -227.499c-9.33301 -54.667 -11 -102.5 -5 -143.5s18 -75.333 36 -103
s41 -48.5 69 -62.5s59.333 -21 94 -21c43.333 0 79.833 6.5 109.5 19.5s55.167 27.167 76.5 42.5l-4 122h-36c-13.333 -34.667 -30.666 -59.5 -51.999 -74.5s-46 -22.5 -74 -22.5c-24.667 0 -45.167 5.66699 -61.5 17s-28.833 27.166 -37.5 47.499s-13.334 45 -14.001 74
s2.33301 61.5 9 97.5c12.667 70.667 34.334 126 65.001 166s70.667 60 120 60c27.333 0 49.5 -6.83301 66.5 -20.5s26.167 -38.5 27.5 -74.5h34z" />
    <glyph glyph-name="D" unicode="D" horiz-adv-x="570" 
d="M334 616h-215.001l-13 -54c17.333 0 28.333 -3.5 33 -10.5s5.33398 -19.167 2.00098 -36.5l-74 -414c-3.33301 -17.333 -8.33301 -29.5 -15 -36.5s-18.667 -10.5 -36 -10.5l8 -54h211c85.333 0 154 26 206 78s87 128 105 228c18 101.333 8.5 178.333 -28.5 231
s-98.167 79 -183.5 79zM321.999 536c54 0 90.332 -19.8311 108.999 -59.498s21.334 -95.834 8.00098 -168.501s-36 -128.834 -68 -168.501s-75 -59.5 -129 -59.5h-73l81 456h72z" />
    <glyph glyph-name="E" unicode="E" horiz-adv-x="465" 
d="M472 616l-353.002 0.000976562l-13 -54c17.333 0 28.333 -3.5 33 -10.5s5.33398 -19.167 2.00098 -36.5l-74 -414c-3.33301 -17.333 -8.33301 -29.5 -15 -36.5s-18.667 -10.5 -36 -10.5l8 -54h372l23 127l-46 12c-6.66699 -23.333 -14.5 -39.5 -23.5 -48.5
s-23.5 -13.5 -43.5 -13.5h-137l36 203h178l14 78h-178l32 182h81c16.667 0 30 -0.833008 40 -2.5s17.5 -4.83398 22.5 -9.50098s7.83301 -11 8.5 -19s0.333984 -18 -0.999023 -30l48 12z" />
    <glyph glyph-name="F" unicode="F" horiz-adv-x="437" 
d="M479 616l-360.001 0.000976562l-13 -54c17.333 0 28.333 -3.5 33 -10.5s5.33398 -19.167 2.00098 -36.5l-74 -414c-3.33301 -17.333 -8.33301 -29.5 -15 -36.5s-18.667 -10.5 -36 -10.5l8 -54h175l9 54c-17.333 0 -28.333 3.33301 -33 10s-5.33398 19 -2.00098 37l32 179
h183l14 78h-183l32 182h88c16.667 0 30 -0.833008 40 -2.5s17.5 -4.83398 22.5 -9.50098s7.83301 -11 8.5 -19s0.333984 -18 -0.999023 -30l48 12z" />
    <glyph glyph-name="G" unicode="G" horiz-adv-x="562" 
d="M555 560c-4.66699 4 -12.1641 9.49805 -22.4971 16.498s-23.333 14.167 -39 21.5s-33.667 13.666 -54 18.999s-42.5 8 -66.5 8c-39.333 0 -76.333 -6.5 -111 -19.5s-65.834 -32.167 -93.501 -57.5s-51.167 -56.666 -70.5 -93.999s-33.333 -80.666 -42 -129.999
c-10 -55.333 -11.167 -103.833 -3.5 -145.5s21.667 -76.334 42 -104.001s45.833 -48.5 76.5 -62.5s64 -21 100 -21c29.333 0 53.666 2.5 72.999 7.5s36.666 10.5 51.999 16.5l42.5 16.5c13 5 27.5 7.5 43.5 7.5l10 55c-9.33301 0 -15.166 3 -17.499 9
s-1.83301 17.333 1.5 34l14 77c3.33301 16.667 8.33301 28.334 15 35.001s18.667 10 36 10h9l-8 56h-182l-13 -56h9c17.333 0 28.333 -3.16699 33 -9.5s5.33398 -18.166 2.00098 -35.499l-20 -111c-13.333 -8 -26.833 -14.667 -40.5 -20s-28.834 -8 -45.501 -8
c-26.667 0 -49.167 5.83301 -67.5 17.5s-32.333 28.167 -42 49.5s-15.334 46.833 -17.001 76.5s0.5 62.167 6.5 97.5c12.667 71.333 36.5 126.5 71.5 165.5s78.833 58.5 131.5 58.5c28 0 52.167 -7.5 72.5 -22.5s31.5 -40.5 33.5 -76.5h34z" />
    <glyph glyph-name="H" unicode="H" horiz-adv-x="607" 
d="M620 562l-7 54h-172l-13 -54c17.333 0 28.333 -3.5 33 -10.5s5.33398 -19.167 2.00098 -36.5l-27 -151h-217l27 151c3.33301 17.333 8.33301 29.5 15 36.5s18.667 10.5 36 10.5l-8 54h-171l-13 -54c17.333 0 28.333 -3.5 33 -10.5s5.33398 -19.167 2.00098 -36.5
l-74 -414c-3.33301 -17.333 -8.33301 -29.5 -15 -36.5s-18.667 -10.5 -36 -10.5l8 -54h171l13 54c-17.333 0 -28.333 3.5 -33 10.5s-5.33398 19.167 -2.00098 36.5l32 178h217l-31 -178c-3.33301 -17.333 -8.33301 -29.5 -15 -36.5s-18.667 -10.5 -36 -10.5l7 -54h172l13 54
c-17.333 0 -28.333 3.5 -33 10.5s-5.33398 19.167 -2.00098 36.5l73 414c3.33301 17.333 8.33301 29.5 15 36.5s18.667 10.5 36 10.5z" />
    <glyph glyph-name="I" unicode="I" horiz-adv-x="292" 
d="M301 562l-7 54h-172l-13 -54c17.333 0 28.333 -3.5 33 -10.5s5.33398 -19.167 2.00098 -36.5l-73 -414c-3.33301 -17.333 -8.33301 -29.5 -15 -36.5s-18.667 -10.5 -36 -10.5l7 -54h172l13 54c-17.333 0 -28.333 3.5 -33 10.5s-5.33398 19.167 -2.00098 36.5l73 414
c3.33301 17.333 8.33301 29.5 15 36.5s18.667 10.5 36 10.5z" />
    <glyph glyph-name="J" unicode="J" horiz-adv-x="289" 
d="M304 562l-7.00195 53.999h-172l-13 -54c17.333 0 28.333 -3.5 33 -10.5s5.33398 -19.167 2.00098 -36.5l-80 -449c-4.66699 -28 -10.667 -51.333 -18 -70s-15.333 -33.5 -24 -44.5s-17.667 -18.667 -27 -23s-19 -6.5 -29 -6.5c-10.667 0 -18.667 3 -24 9
s-8.66602 13.667 -9.99902 23l-34 -8v-110c80 0.666992 142.833 25.334 188.5 74.001s77.167 121.667 94.5 219l69 386c3.33301 17.333 8.33301 29.5 15 36.5s18.667 10.5 36 10.5z" />
    <glyph glyph-name="K" unicode="K" horiz-adv-x="567" 
d="M599 562l-7.00098 54.001h-171l-13 -54c15.333 0 23 -4.66699 23 -14c0 -8.66699 -6 -18.667 -18 -30l-162 -152l-18.5 -17l-17 -16.5l-7.5 -7.5c5.33301 16.667 9.33301 32 12 46l26 144c3.33301 17.333 8.33301 29.5 15 36.5s18.667 10.5 36 10.5l-8 54h-171l-13 -54
c17.333 0 28.333 -3.5 33 -10.5s5.33398 -19.167 2.00098 -36.5l-74 -414c-3.33301 -17.333 -8.33301 -29.5 -15 -36.5s-18.667 -10.5 -36 -10.5l8 -54h175l9 54c-17.333 0 -28.333 3.33301 -33 10s-5.33398 19 -2.00098 37l22 123l83 75c6 -32 12.833 -63.167 20.5 -93.5
s16.334 -58.5 26.001 -84.5s20.167 -49.333 31.5 -70s23.333 -37.667 36 -51h135l13 54c-23.333 0 -44.833 8.83301 -64.5 26.5s-37 41.167 -52 70.5s-28 63.166 -39 101.499s-19.833 77.833 -26.5 118.5l170 153c12.667 10.667 24.5 19.667 35.5 27s23.167 11 36.5 11z" />
    <glyph glyph-name="L" unicode="L" horiz-adv-x="435" 
d="M423 129l-46 13c-6.66699 -24.667 -14.334 -41.167 -23.001 -49.5s-23.667 -12.5 -45 -12.5h-140l77 435c3.33301 17.333 8.33301 29.5 15 36.5s18.667 10.5 36 10.5l-8 54h-171l-13 -54c17.333 0 28.333 -3.5 33 -10.5s5.33398 -19.167 2.00098 -36.5l-74 -414
c-3.33301 -17.333 -8.33301 -29.5 -15 -36.5s-18.667 -10.5 -36 -10.5l8 -54h377z" />
    <glyph glyph-name="M" unicode="M" horiz-adv-x="706" 
d="M719 562l-7.00195 54.001h-129l-227 -338l-105 338h-133l-13 -54c17.333 0 28.333 -3.5 33 -10.5s5.33398 -19.167 2.00098 -36.5l-74 -414c-3.33301 -17.333 -8.33301 -29.5 -15 -36.5s-18.667 -10.5 -36 -10.5l8 -54h156l13 54c-17.333 0 -28.166 3.5 -32.499 10.5
s-4.83301 19.167 -1.5 36.5l49 278c2 11.333 3.83301 23.166 5.5 35.499s2.83398 21.833 3.50098 28.5s1 10.667 1 12c6.66699 -31.333 12.667 -56 18 -74l75 -238h40l167 245c7.33301 10.667 14.5 22 21.5 34l16.5 28c4 6.66699 6.33301 10.667 7 12
c0 -1.33301 -1 -5.5 -3 -12.5s-4.5 -16.667 -7.5 -29s-5.5 -23.5 -7.5 -33.5l-49 -286c-3.33301 -17.333 -8.5 -29.5 -15.5 -36.5s-19.167 -10.5 -36.5 -10.5l8 -54h166l13 54c-17.333 0 -28.333 3.5 -33 10.5s-5.33398 19.167 -2.00098 36.5l73 414
c3.33301 17.333 8.33301 29.5 15 36.5s18.667 10.5 36 10.5z" />
    <glyph glyph-name="N" unicode="N" horiz-adv-x="589" 
d="M608 562l-7 53.9971h-153l-13 -54c17.333 0 28.333 -3.5 33 -10.5s5.33398 -19.167 2.00098 -36.5l-46 -260c-1.33301 -8.66699 -2.83301 -19.5 -4.5 -32.5l-4 -32c-1 -8.33301 -1.5 -13.166 -1.5 -14.499c0 1.33301 -0.833008 6 -2.5 14s-4.16699 18 -7.5 30
s-6.33301 22 -9 30l-143 366h-134l-13 -54c17.333 0 28.333 -3.5 33 -10.5s5.33398 -19.167 2.00098 -36.5l-74 -414c-3.33301 -17.333 -8.33301 -29.5 -15 -36.5s-18.667 -10.5 -36 -10.5l8 -54h153l13 54c-17.333 0 -28.166 3.5 -32.499 10.5s-4.83301 19.167 -1.5 36.5
l51 292c1.33301 7.33301 2.66602 17.333 3.99902 30s2.5 23.334 3.5 32.001s1.5 13.667 1.5 15c0 -1.33301 1 -6.16602 3 -14.499l7.5 -30.5c3 -12 5.83301 -21.333 8.5 -28l158 -401h74l92 519c3.33301 17.333 8.16602 29.5 14.499 36.5s18.166 10.5 35.499 10.5z" />
    <glyph glyph-name="O" unicode="O" horiz-adv-x="569" 
d="M544 298c9.33301 54.667 11.333 102.335 6 143.002s-16.666 74.667 -33.999 102s-40.166 47.833 -68.499 61.5s-60.833 20.5 -97.5 20.5c-36 0 -70 -6.5 -102 -19.5s-60.833 -32.5 -86.5 -58.5s-47.667 -58.167 -66 -96.5s-31.833 -82.5 -40.5 -132.5
c-9.33301 -54 -11.333 -101.333 -6 -142s16.666 -74.834 33.999 -102.501s40.166 -48.334 68.499 -62.001s60.5 -20.5 96.5 -20.5c36.667 0 71 6.5 103 19.5s61 32.5 87 58.5s48 58.167 66 96.5s31.333 82.5 40 132.5zM435 308.001
c-13.333 -76.667 -34.999 -134.334 -64.999 -173.001s-67 -58 -111 -58s-74.333 19.333 -91 58s-18.334 96.334 -5.00098 173.001c14 77.333 36 135.166 66 173.499s67 57.5 111 57.5s74.333 -19.167 91 -57.5s18 -96.166 4 -173.499z" />
    <glyph glyph-name="P" unicode="P" horiz-adv-x="483" 
d="M492 428c10.667 58.667 -0.166992 104.667 -32.5 138s-82.833 50 -151.5 50h-190l-13 -54c17.333 0 28.333 -3.5 33 -10.5s5.33398 -19.167 2.00098 -36.5l-74 -414c-3.33301 -17.333 -8.33301 -29.5 -15 -36.5s-18.667 -10.5 -36 -10.5l8 -54h171l13 54
c-17.333 0 -28.333 3.5 -33 10.5s-5.33398 19.167 -2.00098 36.5l24 136h60c66 0 119 16.667 159 50s65.667 80.333 77 141zM388.999 428c-6 -34 -19.168 -60.833 -39.501 -80.5s-50.166 -29.5 -89.499 -29.5h-49l38 217h44c41.333 0 69 -10 83 -30s18.333 -45.667 13 -77z
" />
    <glyph glyph-name="Q" unicode="Q" horiz-adv-x="569" 
d="M562 -5l-31 9c-8.66699 -16 -20.334 -28.333 -35.001 -37s-30 -12.667 -46 -12s-31.333 6 -46 16s-26.667 25.667 -36 47c44 22 81.333 56.833 112 104.5s52 106.167 64 175.5c9.33301 55.333 11.333 103.333 6 144s-16.833 74.667 -34.5 102s-40.667 47.666 -69 60.999
s-60.5 20 -96.5 20s-70.167 -6.5 -102.5 -19.5s-61.333 -32.5 -87 -58.5s-47.667 -58.167 -66 -96.5s-31.833 -82.5 -40.5 -132.5c-9.33301 -52.667 -11.666 -99.167 -6.99902 -139.5s15 -74 31 -101s37.333 -47.667 64 -62s57 -22.166 91 -23.499
c7.33301 -0.666992 14.333 -1 21 -1c7.33301 0 14.333 0.666992 21 2c18.667 -34.667 38.667 -60.834 60 -78.501s42.833 -29.667 64.5 -36s43.167 -8.16602 64.5 -5.49902s41.333 6.66699 60 12zM435 308c-14 -76.667 -36.001 -134.334 -66.001 -173.001s-67 -58 -111 -58
s-74.333 19.333 -91 58s-18 96.334 -4 173.001c13.333 77.333 35 135.166 65 173.499s67 57.5 111 57.5s74.333 -19.167 91 -57.5s18.334 -96.166 5.00098 -173.499z" />
    <glyph glyph-name="R" unicode="R" horiz-adv-x="545" 
d="M530 54c-20.667 0 -39.332 5.66699 -55.999 17s-31.5 27 -44.5 47s-24.167 44 -33.5 72s-17 59 -23 93c35.333 13.333 64.833 33.5 88.5 60.5s39.167 59.5 46.5 97.5c9.33301 56 -2.33398 99.167 -35.001 129.5s-80.667 45.5 -144 45.5h-211l-13 -54
c17.333 0 28.333 -3.5 33 -10.5s5.33398 -19.167 2.00098 -36.5l-74 -414c-3.33301 -17.333 -8.33301 -29.5 -15 -36.5s-18.667 -10.5 -36 -10.5l8 -54h171l13 54c-17.333 0 -28.333 3.5 -33 10.5s-5.33398 19.167 -2.00098 36.5l28 156h84
c2.66699 -20 7.16699 -42.833 13.5 -68.5s14 -50.667 23 -75s19 -46.833 30 -67.5s22.833 -36 35.5 -46h131zM402.002 437c-14.667 -68.667 -59.332 -103 -133.999 -103h-55l37 208h55c36.667 0 63.667 -9 81 -27s22.666 -44 15.999 -78z" />
    <glyph glyph-name="S" unicode="S" horiz-adv-x="461" 
d="M451 579c-4 2.66699 -10.5 6.66504 -19.5 11.998s-20.333 10.5 -34 15.5s-29.667 9.5 -48 13.5s-38.833 6 -61.5 6c-23.333 0 -46.5 -3.33301 -69.5 -10s-44 -16.667 -63 -30s-35.167 -29.5 -48.5 -48.5s-22.333 -41.167 -27 -66.5
c-4.66699 -26 -4.33398 -49 0.999023 -69s14.166 -38 26.499 -54s27.5 -30.5 45.5 -43.5s38 -25.167 60 -36.5c40 -22 67.333 -42 82 -60s20 -38.667 16 -62c-5.33301 -27.333 -17.666 -47.333 -36.999 -60s-41.666 -19 -66.999 -19c-14 0 -28 1.5 -42 4.5
s-26.5 8.33301 -37.5 16s-20.167 18 -27.5 31s-11.666 29.167 -12.999 48.5h-40l-32 -113c4 -3.33301 11 -8.5 21 -15.5s22.667 -14 38 -21s33.166 -13.167 53.499 -18.5s42.833 -8 67.5 -8c58.667 0 107.334 14.167 146.001 42.5s62.667 68.5 72 120.5
c8.66699 49.333 -1 91.333 -29 126s-69.667 65.334 -125 92.001c-32 16 -54 32.5 -66 49.5s-16 36.167 -12 57.5c4 22.667 15.667 40.334 35 53.001s40.666 19 63.999 19c11.333 0 22.5 -1.16699 33.5 -3.5s21.167 -6.5 30.5 -12.5s17.5 -14.333 24.5 -25
s11.5 -24.667 13.5 -42h39z" />
    <glyph glyph-name="T" unicode="T" horiz-adv-x="456" 
d="M512 616h-441.999l-26 -126l45 -12c3.33301 11.333 6.5 20.833 9.5 28.5s7 14 12 19s11.5 8.66699 19.5 11s18 3.5 30 3.5h70l-78 -439c-3.33301 -17.333 -8.33301 -29.5 -15 -36.5s-18.667 -10.5 -36 -10.5l8 -54h171l13 54c-17.333 0 -28.333 3.5 -33 10.5
s-5.33398 19.167 -2.00098 36.5l78 439h58c27.333 0 44.5 -5 51.5 -15s10.167 -25.667 9.5 -47l49 12z" />
    <glyph glyph-name="U" unicode="U" horiz-adv-x="581" 
d="M604 562l-7.99707 54h-163l-12 -54c17.333 0 28.166 -3.5 32.499 -10.5s4.83301 -19.167 1.5 -36.5l-54 -299c-2.66699 -17.333 -7.33398 -34.166 -14.001 -50.499s-15.334 -30.833 -26.001 -43.5s-23.667 -22.834 -39 -30.501s-33.333 -11.5 -54 -11.5
s-37.334 3.83301 -50.001 11.5s-22.167 17.834 -28.5 30.501s-9.66602 27.167 -9.99902 43.5s0.833984 33.166 3.50098 50.499l53 299c3.33301 17.333 8.5 29.5 15.5 36.5s19.167 10.5 36.5 10.5l-8 54h-173l-12 -54c17.333 0 28.166 -3.5 32.499 -10.5
s4.83301 -19.167 1.5 -36.5l-53 -298c-6 -32.667 -6.66699 -62.834 -2 -90.501s14.5 -51.5 29.5 -71.5s35 -35.667 60 -47s55.5 -17 91.5 -17c34.667 0 65.834 5.66699 93.501 17s51.667 27 72 47s37.166 43.833 50.499 71.5s23 57.834 29 90.501l53 298
c3.33301 17.333 8.33301 29.5 15 36.5s18.667 10.5 36 10.5z" />
    <glyph glyph-name="V" unicode="V" horiz-adv-x="514" 
d="M589 562l-7.00098 54.001h-165l-13 -54c18 0 29 -2.66699 33 -8s1.66699 -17 -7 -35l-159 -324c-4.66699 -9.33301 -9.66699 -21.333 -15 -36l-13 -36.5c-3.33301 -9.66699 -5.33301 -15.167 -6 -16.5c0 1.33301 0.166992 6.66602 0.5 15.999s0.5 21.333 0.5 36
s-0.333008 27 -1 37l-38 324c-2 17.333 -0.5 28.833 4.5 34.5s16.5 8.5 34.5 8.5l-7 54h-173l-14 -54c15.333 0 26.333 -2.33301 33 -7s11.334 -16.667 14.001 -36l70 -525h106l261 525c4.66699 9.33301 9 16.833 13 22.5s8.16699 10 12.5 13s9.33301 5 15 6
s12.5 1.5 20.5 1.5z" />
    <glyph glyph-name="W" unicode="W" horiz-adv-x="768" 
d="M835 562l-7.00488 54h-159l-13 -54c17.333 0 27.5 -2.66699 30.5 -8s0.833008 -17 -6.5 -35l-123 -314l-10 -30c-4 -12 -7.66699 -23.667 -11 -35l-8.5 -29c-2.33301 -8 -3.16602 -8 -2.49902 0s1.33398 17.667 2.00098 29s1.16699 23 1.5 35s0.166016 22 -0.500977 30
l-25 314c-1.33301 18 0.333984 29.667 5.00098 35s16 8 34 8l-8 54h-166l-13 -54c17.333 0 27.333 -2.66699 30 -8s0.333984 -17 -6.99902 -35l-131 -314c-4 -8.66699 -8 -19 -12 -31s-7.66699 -23.5 -11 -34.5l-8.5 -28.5c-2.33301 -8 -3.16602 -8 -2.49902 0
s1.33398 17.5 2.00098 28.5s1.16699 22.667 1.5 35s0.5 22.5 0.5 30.5l-18 314c-1.33301 18 0.333984 29.667 5.00098 35s15.667 8 33 8l-7 54h-164l-14 -54c16 0 27.167 -2.33301 33.5 -7s10.166 -16.667 11.499 -36l44 -525h90l165 383c4 9.33301 7.83301 19.5 11.5 30.5
l10 31l7.5 24.5c2 6.66699 3 9.66699 3 9s-0.666992 -6 -2 -16s-2.33301 -22.833 -3 -38.5s-0.666992 -29.167 0 -40.5l35 -383h92l225 525c8 19.333 16 31.333 24 36s20 7 36 7z" />
    <glyph glyph-name="X" unicode="X" horiz-adv-x="533" 
d="M579 562l-7.00098 54.002h-166l-13 -54c15.333 0 24 -2.83301 26 -8.5s-3.66699 -17.167 -17 -34.5l-103 -128l-58 128c-8 17.333 -10.333 28.833 -7 34.5s13.333 8.5 30 8.5l-8 54h-176l-14 -54c16 0 28 -3 36 -9s16 -17.333 24 -34l99 -206l-182 -216
c-14.667 -17.333 -26.667 -28.833 -36 -34.5s-21.666 -8.5 -36.999 -8.5l8 -54h168l13 54c-17.333 0 -26.833 3.33301 -28.5 10s3.5 17.667 15.5 33l115 143l65 -143c7.33301 -15.333 9.16602 -26.333 5.49902 -33s-14.167 -10 -31.5 -10l7 -54h182l13 54
c-15.333 0 -27.166 2.83301 -35.499 8.5s-16.833 17.167 -25.5 34.5l-106 221l171 201c7.33301 8.66699 13.833 15.667 19.5 21s11.167 9.66602 16.5 12.999s10.833 5.66602 16.5 6.99902s12.5 2 20.5 2z" />
    <glyph glyph-name="Y" unicode="Y" horiz-adv-x="501" 
d="M574 562l-6.99609 54h-163l-13 -54c33.333 0 39.666 -14.333 18.999 -43l-138 -197l-67 197c-5.33301 16 -5.33301 27.167 0 33.5s16.666 9.5 33.999 9.5l-7 54h-176l-14 -54c15.333 0 26.166 -3.33301 32.499 -10s12.5 -17.667 18.5 -33l104 -282l-24 -136
c-3.33301 -18 -8.33301 -30.333 -15 -37s-18.667 -10 -36 -10l7 -54h172l13 54c-17.333 0 -28.333 3.33301 -33 10s-5.33398 19 -2.00098 37l24 136l204 282c11.333 16.667 21.333 28 30 34s21 9 37 9z" />
    <glyph glyph-name="Z" unicode="Z" horiz-adv-x="446" 
d="M481 586l-6.00195 30.001h-369l-27 -127l45 -12c3.33301 11.333 6.83301 20.666 10.5 27.999s8 13.5 13 18.5s11.5 8.5 19.5 10.5s18 3 30 3h135l-350 -507l7 -30h389l27 127l-46 12c-3.33301 -12 -6.66602 -22 -9.99902 -30s-7.66602 -14.167 -12.999 -18.5
s-11.833 -7.33301 -19.5 -9s-17.5 -2.5 -29.5 -2.5h-155z" />
    <glyph glyph-name="bracketleft" unicode="[" horiz-adv-x="275" 
d="M360 728h-181l-159 -902h181l11 63h-102l137 776h102z" />
    <glyph glyph-name="backslash" unicode="\" horiz-adv-x="353" 
d="M325 -6l-199 628h-71l200 -628h70z" />
    <glyph glyph-name="bracketright" unicode="]" horiz-adv-x="275" 
d="M271 728h-180l-11 -63h103l-137 -776h-102l-12 -63h180z" />
    <glyph glyph-name="asciicircum" unicode="^" horiz-adv-x="397" 
d="M423 466l-114 263h-40l-207 -263h91l122 165l64 -165h84z" />
    <glyph glyph-name="underscore" unicode="_" horiz-adv-x="449" 
d="M418 0h-467l-11 -63h467z" />
    <glyph glyph-name="grave" unicode="`" 
d="M333 525l-101 137h-103l141 -137h63z" />
    <glyph glyph-name="a" unicode="a" horiz-adv-x="482" 
d="M466 77c-7.33301 -4.66699 -15.668 -8.83398 -25.001 -12.501s-17.666 -5.5 -24.999 -5.5c-14.667 0 -25.167 5.16699 -31.5 15.5s-6.83301 29.5 -1.5 57.5l28 156c8 45.333 16.167 82.5 24.5 111.5s14.833 49.5 19.5 61.5h-43c-12.667 -7.33301 -24.667 -18.333 -36 -33
s-21 -30 -29 -46c-6.66699 26.667 -19.334 47.834 -38.001 63.501s-42 23.5 -70 23.5c-22.667 0 -44.667 -4.83301 -66 -14.5s-40.833 -24.167 -58.5 -43.5s-33.167 -43.666 -46.5 -72.999s-23.666 -64 -30.999 -104c-6.66699 -40 -8.66699 -75.167 -6 -105.5
s9.5 -55.833 20.5 -76.5s25.5 -36.334 43.5 -47.001s38.333 -16 61 -16c25.333 0 49 6.33301 71 19s40.667 29.667 56 51c4 -25.333 13.833 -43 29.5 -53s34.167 -15 55.5 -15c20.667 0 38 2.83301 52 8.5s25.667 12.5 35 20.5zM299.998 229
c-10 -56.667 -24.668 -97.834 -44.001 -123.501s-41.666 -38.5 -66.999 -38.5c-24 0 -41.167 12.833 -51.5 38.5s-10.5 66.834 -0.5 123.501s24.333 97.834 43 123.501s40 38.5 64 38.5c25.333 0 43.5 -12.833 54.5 -38.5s11.5 -66.834 1.5 -123.501z" />
    <glyph glyph-name="b" unicode="b" horiz-adv-x="465" 
d="M429 229c7.33301 40 9.3291 75 5.99609 105s-10.5 55 -21.5 75s-25.333 35 -43 45s-37.834 15 -60.501 15c-22 0 -42.667 -5 -62 -15s-36.666 -24 -51.999 -42l29 170c4.66699 26 7.5 47.667 8.5 65s1.16699 31.5 0.5 42.5s-2.16699 19.667 -4.5 26
s-4.83301 11.5 -7.5 15.5l-118 -20l-12 -50c18 0 29.667 -6 35 -18s5.33301 -33.333 0 -64l-73 -409c-8 -47.333 -16.167 -85 -24.5 -113s-15.166 -48 -20.499 -60h44c12.667 7.33301 24.834 18.333 36.501 33s21.5 29.667 29.5 45c6.66699 -26 19.334 -46.833 38.001 -62.5
s42 -23.5 70 -23.5c22.667 0 44.5 5 65.5 15s40.5 25 58.5 45s33.833 45 47.5 75s23.834 65 30.501 105zM327.996 229c-10 -56.667 -24.168 -97.834 -42.501 -123.501s-39.5 -38.5 -63.5 -38.5c-25.333 0 -43.666 12.833 -54.999 38.5s-12 66.834 -2 123.501
s24.833 97.834 44.5 123.501s42.167 38.5 67.5 38.5c24 0 41 -12.833 51 -38.5s10 -66.834 0 -123.501z" />
    <glyph glyph-name="c" unicode="c" horiz-adv-x="372" 
d="M375 359c5.33301 32 -3.00293 58.3311 -25.0029 78.998s-53 31 -93 31c-56 0 -103.333 -20.167 -142 -60.5s-64.667 -97.5 -78 -171.5c-6.66699 -38.667 -8 -73.334 -4 -104.001s12.167 -56.667 24.5 -78s28.833 -37.666 49.5 -48.999s44.334 -17 71.001 -17
c32 0 60 6.16699 84 18.5s41.667 26.5 53 42.5l14 78c-20.667 -19.333 -40.167 -33.666 -58.5 -42.999s-38.166 -14 -59.499 -14c-34 0 -57.167 13.5 -69.5 40.5s-13.833 66.167 -4.5 117.5c9.33301 50 24 89 44 117s44.333 42 73 42c14 0 25.333 -2 34 -6
s15 -9.16699 19 -15.5s5.83301 -13.666 5.5 -21.999s-2.16602 -16.5 -5.49902 -24.5h52c8 11.333 13.333 24.333 16 39z" />
    <glyph glyph-name="d" unicode="d" horiz-adv-x="482" 
d="M466 77c-7.33301 -4.66699 -15.6689 -8.83301 -25.002 -12.5s-17.666 -5.5 -24.999 -5.5c-14.667 0 -25.167 5.16699 -31.5 15.5s-6.83301 29.5 -1.5 57.5l79 450c4.66699 26 7.5 47.667 8.5 65s1.16699 31.5 0.5 42.5s-2.16699 19.667 -4.5 26s-4.83301 11.5 -7.5 15.5
l-120 -20l-12 -50c18 0 29.667 -6 35 -18s5.33301 -33.333 0 -64l-29 -165c-9.33301 17.333 -22 30.833 -38 40.5s-34.667 14.5 -56 14.5c-22.667 0 -44.667 -4.83301 -66 -14.5s-40.833 -24.167 -58.5 -43.5s-33.167 -43.666 -46.5 -72.999s-23.666 -64 -30.999 -104
c-6.66699 -40 -8.66699 -75.167 -6 -105.5s9.5 -55.833 20.5 -76.5s25.5 -36.334 43.5 -47.001s38.333 -16 61 -16c25.333 0 49 6.33301 71 19s40.667 29.667 56 51c4 -25.333 13.833 -43 29.5 -53s34.167 -15 55.5 -15c20.667 0 38 2.83301 52 8.5s25.667 12.5 35 20.5z
M299.997 229.001c-10 -56.667 -24.668 -97.834 -44.001 -123.501s-41.666 -38.5 -66.999 -38.5c-24 0 -41.167 12.833 -51.5 38.5s-10.5 66.834 -0.5 123.501s24.333 97.834 43 123.501s40 38.5 64 38.5c25.333 0 43.5 -12.833 54.5 -38.5s11.5 -66.834 1.5 -123.501z" />
    <glyph glyph-name="e" unicode="e" horiz-adv-x="410" 
d="M396 332c3.33301 18.667 3.16699 36.333 -0.5 53s-10.834 31.167 -21.501 43.5s-25 22.166 -43 29.499s-40 11 -66 11c-28 0 -54.333 -5.33301 -79 -16s-47 -26.167 -67 -46.5s-37.167 -44.833 -51.5 -73.5s-24.833 -61 -31.5 -97
c-6.66699 -36.667 -7.66699 -70.334 -3 -101.001s13.834 -56.667 27.501 -78s31.5 -38 53.5 -50s47.333 -18 76 -18c38 0 70.167 6.83301 96.5 20.5s46.833 29.5 61.5 47.5l14 80c-19.333 -19.333 -40.833 -35.833 -64.5 -49.5s-49.5 -20.5 -77.5 -20.5
c-38.667 0 -64.5 13.5 -77.5 40.5s-16.167 62.5 -9.5 106.5c40 -10.667 75.5 -14.167 106.5 -10.5s57.5 11.834 79.5 24.501s39.5 28.334 52.5 47.001s21.167 37.667 24.5 57zM308.001 338.999c-2 -12 -6.83496 -22.998 -14.502 -32.998s-18.167 -17.833 -31.5 -23.5
s-29.5 -8.83398 -48.5 -9.50098s-41.167 2 -66.5 8c11.333 41.333 27.833 71.166 49.5 89.499s42.5 27.5 62.5 27.5c20.667 0 34.834 -5.83301 42.501 -17.5s9.83398 -25.5 6.50098 -41.5z" />
    <glyph glyph-name="f" unicode="f" horiz-adv-x="286" 
d="M400 718c-7.33301 1.33301 -16.999 2.3291 -28.999 2.99609s-24 1 -36 1c-56.667 0 -101.834 -16.5 -135.501 -49.5s-55.834 -77.5 -66.501 -133.5l-14 -81h-71l-14 -76h72l-76 -426c-2.66699 -15.333 -6 -30.166 -10 -44.499s-9 -26.833 -15 -37.5
s-13 -19.167 -21 -25.5s-17.333 -9.5 -28 -9.5c-9.33301 0 -16.166 2 -20.499 6s-7 9.16699 -8 15.5s-0.5 13.5 1.5 21.5s4.33301 15.667 7 23h-48c-9.33301 -17.333 -14.833 -34 -16.5 -50s0.166016 -30.167 5.49902 -42.5s14.333 -22.333 27 -30s28.667 -11.5 48 -11.5
c30 0 55.833 7.83301 77.5 23.5s40 35.834 55 60.501s27.333 52.334 37 83.001s17.167 61 22.5 91l62 353h123l14 76h-124l13 73c7.33301 38.667 17.666 66.834 30.999 84.501s31.333 26.5 54 26.5c12.667 0 22.334 -2.5 29.001 -7.5s11.334 -14.167 14.001 -27.5l32 6z" />
    <glyph glyph-name="g" unicode="g" horiz-adv-x="464" 
d="M463 461l-44.002 0.00195312c-11.333 -6.66699 -22.5 -16.667 -33.5 -30s-20.5 -27 -28.5 -41c-6 22.667 -19.167 41.5 -39.5 56.5s-44.833 22.5 -73.5 22.5c-23.333 0 -45.833 -4.5 -67.5 -13.5s-41.5 -22.333 -59.5 -40s-33.5 -39.334 -46.5 -65.001
s-22.5 -55.167 -28.5 -88.5c-6 -34.667 -7 -65.5 -3 -92.5s11.833 -49.833 23.5 -68.5s26.667 -32.667 45 -42s39.166 -14 62.499 -14c24 0 46.667 5 68 15s39.666 24.667 54.999 44l-16 -95c-2.66699 -14 -5.83398 -27.333 -9.50098 -40s-7.5 -24.667 -11.5 -36
c-22 14.667 -47.667 27 -77 37s-56.666 15 -81.999 15c-41.333 0 -75.666 -9.33301 -102.999 -28s-43.666 -43.334 -48.999 -74.001c-4 -22 -2 -41.667 6 -59s19.5 -31.833 34.5 -43.5s32.5 -20.5 52.5 -26.5s40 -9 60 -9c38.667 0 73.334 6.83301 104.001 20.5
s57.334 32.5 80.001 56.5s41.5 52.5 56.5 85.5s25.833 68.833 32.5 107.5l48 273c8 46 16 83.333 24 112s14.667 49 20 61zM312.998 257.002c-8.66699 -46.667 -22.8311 -80.834 -42.498 -102.501s-42.5 -32.5 -68.5 -32.5c-24.667 0 -42.834 10.833 -54.501 32.5
s-13.167 55.834 -4.5 102.501c8 46 21.167 80 39.5 102s40.166 33 65.499 33c26 0 45.333 -11 58 -33s15 -56 7 -102zM229.001 -122.998c-14.667 -21.333 -31.999 -37.667 -51.999 -49s-42.667 -17 -68 -17c-12 0 -23.5 1.5 -34.5 4.5s-20.833 7.16699 -29.5 12.5
s-15.334 12.166 -20.001 20.499s-6 17.5 -4 27.5c2.66699 14.667 10.5 26 23.5 34s29.833 12 50.5 12c22 0 44.833 -4.16699 68.5 -12.5s45.5 -19.166 65.5 -32.499z" />
    <glyph glyph-name="h" unicode="h" horiz-adv-x="495" 
d="M476 77c-7.33301 -4.66699 -15.666 -8.83398 -24.999 -12.501s-17.666 -5.5 -24.999 -5.5c-14 0 -24.167 5.16699 -30.5 15.5s-6.83301 29.5 -1.5 57.5c6 34 13.167 65.667 21.5 95s15.166 58 20.499 86c5.33301 30.667 6.66602 56 3.99902 76s-8.16699 36 -16.5 48
s-18.5 20.333 -30.5 25s-25 7 -39 7c-14.667 0 -29.5 -3 -44.5 -9s-29.5 -14.167 -43.5 -24.5s-27 -22 -39 -35s-23 -26.5 -33 -40.5l39 222c4.66699 26 7.5 47.833 8.5 65.5s1 32 0 43s-2.66699 19.5 -5 25.5s-4.83301 11 -7.5 15l-117 -20l-13 -50c18 0 29.667 -6 35 -18
s5.33301 -33.333 0 -64l-84 -478c-2.66699 -16.667 -7 -28.667 -13 -36s-17.667 -11 -35 -11l7 -54h158l13 54c-17.333 0 -27.666 3.5 -30.999 10.5s-3.33301 19.167 0 36.5l27 155c23.333 41.333 46.333 71.833 69 91.5s41.334 29.5 56.001 29.5
c15.333 0 25.833 -5.66699 31.5 -17s5.5 -33.666 -0.5 -66.999c-3.33301 -19.333 -9.33301 -44 -18 -74s-15.667 -60.667 -21 -92c-4 -24.667 -4.83301 -45.667 -2.5 -63s7.5 -31.333 15.5 -42s18.167 -18.5 30.5 -23.5s26.166 -7.5 41.499 -7.5
c20.667 0 38.167 2.83301 52.5 8.5s26.166 12.5 35.499 20.5z" />
    <glyph glyph-name="i" unicode="i" horiz-adv-x="258" 
d="M247 627c2.66699 16.667 -0.833008 30.834 -10.5 42.501s-22.834 17.5 -39.501 17.5s-31.667 -5.83301 -45 -17.5s-21.666 -25.834 -24.999 -42.501s0 -30.667 10 -42s23 -17 39 -17c16.667 0 32 5.66699 46 17s22.333 25.333 25 42zM232 77
c-7.33301 -4.66699 -15.667 -8.83301 -25 -12.5s-17.666 -5.5 -24.999 -5.5c-14.667 0 -25.167 5.16699 -31.5 15.5s-6.83301 29.5 -1.5 57.5c6.66699 36 14.334 69.833 23.001 101.5s15.667 62.834 21 93.501c4 23.333 6.66699 43.166 8 59.499s1.5 30 0.5 41
s-2.66699 19.667 -5 26s-4.83301 11.5 -7.5 15.5l-120 -20l-12 -50c18 0 29.667 -6 35 -18s5.33301 -33.333 0 -64s-12.5 -62 -21.5 -94s-16.167 -64 -21.5 -96c-4.66699 -24.667 -5.66699 -45.667 -3 -63s8 -31.333 16 -42s18.167 -18.5 30.5 -23.5
s26.166 -7.5 41.499 -7.5c20 0 37.167 2.83301 51.5 8.5s26.166 12.5 35.499 20.5z" />
    <glyph glyph-name="j" unicode="j" horiz-adv-x="232" 
d="M248 627c2.66699 16.667 -0.832031 30.834 -10.499 42.501s-22.834 17.5 -39.501 17.5c-16 0 -30.833 -5.83301 -44.5 -17.5s-22.167 -25.834 -25.5 -42.501s0 -30.667 10 -42s23.333 -17 40 -17c16 0 31 5.66699 45 17s22.333 25.333 25 42zM194.001 469
l-129.998 -20.0029l-12 -50c18 0 29.667 -6 35 -18s5.33301 -33.333 0 -64l-57 -322c-4.66699 -29.333 -9.83398 -53.5 -15.501 -72.5s-11.5 -34.167 -17.5 -45.5s-12.5 -19.166 -19.5 -23.499s-14.5 -6.5 -22.5 -6.5c-12.667 0 -21.667 4.16699 -27 12.5s-9 19.5 -11 33.5
l-33 -7l-5 -104c70 -15.333 126 -2.66602 168 38.001s72.333 113 91 217l46 267c7.33301 42.667 11.666 77.334 12.999 104.001s0.333008 47 -3 61z" />
    <glyph glyph-name="k" unicode="k" horiz-adv-x="471" 
d="M478 402c3.33301 19.333 0.169922 34.5029 -9.49707 45.5029s-23.5 16.5 -41.5 16.5c-17.333 0 -36.833 -5.83301 -58.5 -17.5s-43.5 -26.5 -65.5 -44.5s-43.5 -37.333 -64.5 -58l-57.5 -58l52 296c4.66699 24.667 7.5 45.667 8.5 63s1 31.666 0 42.999
s-2.66699 20.333 -5 27s-4.83301 12 -7.5 16l-117 -20l-12 -50c18 0 29.5 -6 34.5 -18s4.83301 -33.333 -0.5 -64l-84 -478c-2.66699 -16.667 -7 -28.667 -13 -36s-17.667 -11 -35 -11l7 -54h155l13 54c-15.333 0 -24.666 3.5 -27.999 10.5s-3.33301 19.167 0 36.5l16 93
c8 9.33301 16.667 18.833 26 28.5s19 19.167 29 28.5c7.33301 -50 15.833 -91.5 25.5 -124.5s20.5 -59.5 32.5 -79.5s25.667 -34 41 -42s32.666 -12 51.999 -12c20 0 36 4.16699 48 12.5s20.667 16.166 26 23.499l11 65c-16 -12.667 -33.667 -19 -53 -19
c-12.667 0 -24.334 3.16699 -35.001 9.5s-20.334 18.333 -29.001 36s-16.834 42.167 -24.501 73.5s-15.5 72 -23.5 122c19.333 16 37 29.333 53 40s28.667 16 38 16c8.66699 0 14.334 -2.83301 17.001 -8.5s3 -13.167 1 -22.5
c-0.666992 -5.33301 -2.33398 -11.333 -5.00098 -18s-5.66699 -12.334 -9 -17.001h46c2.66699 2.66699 6.16699 7.16699 10.5 13.5s8.83301 14 13.5 23s9 18.667 13 29s7 20.5 9 30.5z" />
    <glyph glyph-name="l" unicode="l" horiz-adv-x="253" 
d="M230 77c-7.33301 -4.66699 -15.665 -8.83301 -24.998 -12.5s-17.666 -5.5 -24.999 -5.5c-14 0 -24.167 5.16699 -30.5 15.5s-6.83301 29.5 -1.5 57.5l79 450c4.66699 26 7.5 47.667 8.5 65s1 31.5 0 42.5s-2.66699 19.667 -5 26s-4.83301 11.5 -7.5 15.5l-119 -20
l-13 -50c18 0 29.667 -6 35 -18s5.33301 -33.333 0 -64l-78 -443c-4.66699 -27.333 -5.83398 -50.333 -3.50098 -69s7.5 -33.667 15.5 -45s18.167 -19.333 30.5 -24s26.166 -7 41.499 -7c20.667 0 38.167 2.83301 52.5 8.5s26.166 12.5 35.499 20.5z" />
    <glyph glyph-name="m" unicode="m" horiz-adv-x="730" 
d="M711 77c-7.33301 -4.66699 -15.498 -8.83789 -24.498 -12.5049s-17.167 -5.5 -24.5 -5.5c-14.667 0 -25.167 5.16699 -31.5 15.5s-6.83301 29.5 -1.5 57.5c5.33301 33.333 12.5 65.5 21.5 96.5s15.833 59.167 20.5 84.5c5.33301 30.667 6.66602 56 3.99902 76
s-7.83398 36 -15.501 48s-17.5 20.333 -29.5 25s-25 7 -39 7c-14.667 0 -29.5 -3.16699 -44.5 -9.5s-29.333 -14.666 -43 -24.999s-26.5 -22.333 -38.5 -36s-22.667 -27.5 -32 -41.5c0.666992 22 -1.16602 40.167 -5.49902 54.5s-10.333 25.666 -18 33.999
s-16.667 14.333 -27 18s-21.5 5.5 -33.5 5.5c-14.667 0 -29.5 -3.16699 -44.5 -9.5s-29.167 -14.666 -42.5 -24.999s-26 -22.166 -38 -35.499s-23 -27 -33 -41c2 18 3 33 3 45c0 12.667 -0.666992 23.334 -2 32.001s-3.16602 15.5 -5.49902 20.5s-4.5 8.83301 -6.5 11.5
l-110 -20l-12 -50c18 0 29.667 -6 35 -18s5.33301 -33.333 0 -64l-38 -214c-3.33301 -18 -7.83301 -30.333 -13.5 -37s-17.167 -10 -34.5 -10l8 -54h152l13 54c-16 0 -25.5 3.5 -28.5 10.5s-2.83301 19.167 0.5 36.5l29 167c21.333 36 42.5 63.167 63.5 81.5
s38.833 27.5 53.5 27.5s24.667 -5.66699 30 -17s5 -33.666 -1 -66.999l-34 -192c-3.33301 -18 -7.83301 -30.333 -13.5 -37s-17.167 -10 -34.5 -10l7 -54h153l13 54c-16 0 -25.667 3.5 -29 10.5s-3.33301 19.167 0 36.5l28 155c23.333 42 46 72.667 68 92s40.333 29 55 29
c15.333 0 25.5 -5.66699 30.5 -17s4.83301 -33.666 -0.5 -66.999c-3.33301 -19.333 -9.33301 -44 -18 -74s-15.667 -60.667 -21 -92c-8.66699 -49.333 -4.83398 -84.333 11.499 -105s39.833 -31 70.5 -31c20.667 0 38.167 2.83301 52.5 8.5s26.166 12.5 35.499 20.5z" />
    <glyph glyph-name="n" unicode="n" horiz-adv-x="501" 
d="M481 77c-7.33301 -4.66699 -15.499 -8.83496 -24.499 -12.502s-17.167 -5.5 -24.5 -5.5c-14.667 0 -25.167 5.16699 -31.5 15.5s-6.83301 29.5 -1.5 57.5c5.33301 31.333 12.5 63 21.5 95s15.833 60.667 20.5 86c5.33301 30.667 6.66602 56 3.99902 76s-8 36 -16 48
s-18 20.333 -30 25s-25 7 -39 7c-16 0 -32 -3.33301 -48 -10s-31.167 -15.667 -45.5 -27s-27.833 -24 -40.5 -38s-23.667 -28.667 -33 -44c2.66699 20 4 36.667 4 50s-0.833008 24.5 -2.5 33.5s-3.66699 16 -6 21s-4.5 9.16699 -6.5 12.5l-112 -20l-12 -50
c18 0 29.667 -6 35 -18s5.33301 -33.333 0 -64l-38 -214c-2.66699 -16.667 -7 -28.667 -13 -36s-17.667 -11 -35 -11l8 -54h158l13 54c-17.333 0 -27.833 3.5 -31.5 10.5s-3.83398 19.167 -0.500977 36.5l27 155c23.333 41.333 46.333 71.833 69 91.5s41.667 29.5 57 29.5
c14.667 0 24.834 -5.66699 30.501 -17s5.5 -33.666 -0.5 -66.999c-3.33301 -19.333 -9.16602 -44.166 -17.499 -74.499s-15.166 -60.833 -20.499 -91.5c-4.66699 -24.667 -5.66699 -45.667 -3 -63s8 -31.333 16 -42s18.167 -18.5 30.5 -23.5s26.166 -7.5 41.499 -7.5
c20 0 37.167 2.83301 51.5 8.5s26.166 12.5 35.499 20.5z" />
    <glyph glyph-name="o" unicode="o" horiz-adv-x="445" 
d="M410 223c7.33301 40 8.83496 75.332 4.50195 105.999s-13.166 56.334 -26.499 77.001s-30.833 36.334 -52.5 47.001s-46.167 16 -73.5 16s-53.333 -5.16699 -78 -15.5s-46.834 -25.333 -66.501 -45s-36.5 -44 -50.5 -73s-24.333 -62.5 -31 -100.5
c-6.66699 -40 -7.83398 -75.333 -3.50098 -106s13.166 -56.334 26.499 -77.001s30.833 -36.334 52.5 -47.001s46.167 -16 73.5 -16c56 0 104 19.833 144 59.5s67 97.834 81 174.501zM310.002 228.999c-10 -56 -24.999 -96.833 -44.999 -122.5s-44 -38.5 -72 -38.5
s-46.833 12.833 -56.5 38.5s-9.83398 66.5 -0.500977 122.5c10 56 25.167 96.833 45.5 122.5s44.5 38.5 72.5 38.5s46.667 -12.833 56 -38.5s9.33301 -66.5 0 -122.5z" />
    <glyph glyph-name="p" unicode="p" horiz-adv-x="461" 
d="M426 229c7.33301 40 9.33496 75.001 6.00195 105.001s-10.5 55 -21.5 75s-25.333 35 -43 45s-37.834 15 -60.501 15c-28 0 -53.833 -7.83301 -77.5 -23.5s-43.5 -36.834 -59.5 -63.501c-2.66699 16 -7.16699 31.333 -13.5 46s-14.5 25.667 -24.5 33h-44
c1.33301 -12 1.16602 -31.833 -0.500977 -59.5s-6.83398 -65.5 -15.501 -113.5l-91 -517l103 16l46 257c18.667 -36.667 50 -55 94 -55c22.667 0 44.5 5 65.5 15s40.5 25 58.5 45s33.833 45 47.5 75s23.834 65 30.501 105zM325.002 229.001
c-10 -56.667 -24.499 -97.834 -43.499 -123.501s-40.5 -38.5 -64.5 -38.5c-25.333 0 -43.333 12.833 -54 38.5s-11 66.834 -1 123.501s25.167 97.834 45.5 123.501s43.166 38.5 68.499 38.5c24 0 40.667 -12.833 50 -38.5s9 -66.834 -1 -123.501z" />
    <glyph glyph-name="q" unicode="q" horiz-adv-x="461" 
d="M455 461l-43.002 -0.000976562c-12.667 -7.33301 -24.667 -18.333 -36 -33s-21 -30 -29 -46c-7.33301 26.667 -20.166 47.834 -38.499 63.501s-41.5 23.5 -69.5 23.5c-22.667 0 -44.667 -4.83301 -66 -14.5s-40.833 -24.167 -58.5 -43.5s-33.167 -43.666 -46.5 -72.999
s-23.666 -64 -30.999 -104c-6.66699 -40 -8.66699 -75.167 -6 -105.5s9.5 -55.833 20.5 -76.5s25.5 -36.334 43.5 -47.001s38.333 -16 61 -16c44 0 81.667 18.333 113 55l-22 -125c-4.66699 -26 -7.5 -47.667 -8.5 -65s-1 -31.5 0 -42.5s2.66699 -19.667 5 -26
s4.83301 -11.5 7.5 -15.5l118 21l12 49c-18 0 -29.667 6 -35 18s-5.33301 33.333 0 64l65 366c8 45.333 16.167 82.5 24.5 111.5s14.833 49.5 19.5 61.5zM299.998 228.999c-10 -56.667 -24.668 -97.834 -44.001 -123.501s-41.666 -38.5 -66.999 -38.5
c-24 0 -41.167 12.833 -51.5 38.5s-10.5 66.834 -0.5 123.501s24.333 97.834 43 123.501s40 38.5 64 38.5c25.333 0 43.5 -12.833 54.5 -38.5s11.5 -66.834 1.5 -123.501z" />
    <glyph glyph-name="r" unicode="r" horiz-adv-x="351" 
d="M381 417c0 11.333 -3.49805 22 -10.498 32s-19.167 15 -36.5 15c-19.333 0 -42 -7.83301 -68 -23.5s-49.667 -37.167 -71 -64.5c2.66699 28 2.33398 48.667 -0.999023 62s-7.33301 23 -12 29l-112 -20l-12 -50c18 0 29.667 -6 35 -18s5.33301 -33.333 0 -64l-38 -214
c-2.66699 -16.667 -7 -28.667 -13 -36s-17.667 -11 -35 -11l8 -54h158l13 54c-17.333 0 -27.833 3.33301 -31.5 10s-3.83398 19 -0.500977 37l34 197c17.333 23.333 33.666 40.833 48.999 52.5s28.333 17.5 39 17.5c9.33301 0 15.333 -2.83301 18 -8.5
s3.66699 -12.167 3 -19.5s-2.16699 -14 -4.5 -20s-4.83301 -10.667 -7.5 -14h49c3.33301 3.33301 7.66602 9 12.999 17s10.5 17.167 15.5 27.5s9.33301 21.5 13 33.5s5.5 23 5.5 33z" />
    <glyph glyph-name="s" unicode="s" horiz-adv-x="370" 
d="M353 392c0 23.333 -10.9971 42.002 -32.9971 56.002s-53.333 21 -94 21c-20.667 0 -40.5 -2.66699 -59.5 -8s-36.333 -13 -52 -23s-29 -22.667 -40 -38s-18.5 -33 -22.5 -53s-3.66699 -38.167 1 -54.5s12.334 -30.666 23.001 -42.999s23.167 -22.833 37.5 -31.5
s29.166 -16 44.499 -22c26 -10.667 46.167 -21.334 60.5 -32.001s19.166 -26.667 14.499 -48c-3.33301 -17.333 -13.166 -31 -29.499 -41s-34.5 -15 -54.5 -15c-22.667 0 -40.167 3.83301 -52.5 11.5s-18.5 19.167 -18.5 34.5c0 8.66699 2 18 6 28h-57
c-12.667 -18 -19 -35.667 -19 -53c0 -27.333 11.333 -49.5 34 -66.5s56 -25.5 100 -25.5c20.667 0 41 2.66699 61 8s38.167 13.5 54.5 24.5s30.5 24.5 42.5 40.5s20.333 35 25 57c5.33301 23.333 5.83301 43.5 1.5 60.5s-11.833 31.833 -22.5 44.5s-24 23.667 -40 33
s-33.333 17.333 -52 24c-21.333 8.66699 -38.833 18.167 -52.5 28.5s-18.834 24.166 -15.501 41.499c3.33301 15.333 12.166 27.833 26.499 37.5s31.5 14.5 51.5 14.5c21.333 0 37.166 -3.66699 47.499 -11s15.5 -16.333 15.5 -27c0 -6.66699 -2.33301 -15.334 -7 -26.001
h54c6 8 11 16.167 15 24.5s6 17.833 6 28.5z" />
    <glyph glyph-name="t" unicode="t" horiz-adv-x="313" 
d="M344 458l-128.002 0.000976562l25 143l-104 -21l-22 -122h-71l-14 -76h72l-40 -223c-6 -32.667 -7 -60 -3 -82s11 -39.5 21 -52.5s22.667 -22.167 38 -27.5s31.666 -8 48.999 -8c21.333 0 40.5 3.66699 57.5 11s32.167 16.666 45.5 27.999l12 67
c-10.667 -9.33301 -22.667 -16.5 -36 -21.5s-25.666 -7.5 -36.999 -7.5c-19.333 0 -33.666 6.33301 -42.999 19s-10.666 37 -3.99902 73l40 224h128z" />
    <glyph glyph-name="u" unicode="u" horiz-adv-x="489" 
d="M473 77c-7.33301 -4.66699 -15.502 -8.83203 -24.502 -12.499s-17.167 -5.5 -24.5 -5.5c-14.667 0 -25.167 5.16699 -31.5 15.5s-6.83301 29.5 -1.5 57.5l60 337l-103 -17l-46 -262c-21.333 -36 -43 -63.333 -65 -82s-40.667 -28 -56 -28s-25.666 5.83301 -30.999 17.5
s-5 34.167 1 67.5c4.66699 25.333 11 52.333 19 81s14.333 55.667 19 81c4 23.333 6.5 43.166 7.5 59.499s1.16699 30 0.5 41s-2.16699 19.667 -4.5 26s-5.16602 11.5 -8.49902 15.5l-119 -20l-12 -50c18 0 29.5 -5.83301 34.5 -17.5s4.83301 -33.167 -0.5 -64.5
c-2 -12.667 -4.83301 -26.334 -8.5 -41.001l-11.5 -44.5l-11.5 -44.5c-3.66699 -14.667 -6.5 -28.667 -8.5 -42c-5.33301 -30.667 -6.66602 -56 -3.99902 -76s8 -36 16 -48s18 -20.333 30 -25s25 -7 39 -7c16 0 31.5 2.83301 46.5 8.5s29.167 13.334 42.5 23.001
s26 20.667 38 33s23 24.833 33 37.5c-0.666992 -36.667 7.33301 -62.5 24 -77.5s38 -22.5 64 -22.5c20 0 37.167 2.83301 51.5 8.5s26.166 12.5 35.499 20.5z" />
    <glyph glyph-name="v" unicode="v" horiz-adv-x="401" 
d="M447 445l-96 21c-8 -9.33301 -16.667 -22.5 -26 -39.5s-18.666 -36.167 -27.999 -57.5l-109 -232c-4.66699 -9.33301 -8.5 -18.666 -11.5 -27.999s-3.66699 8.16699 -2 52.5s0.166992 98.833 -4.5 163.5s-14.334 111.667 -29.001 141l-110 -21l-13 -49
c8.66699 0 16.334 -0.833008 23.001 -2.5s12.5 -6.5 17.5 -14.5s9.5 -20.333 13.5 -37s7.66699 -39.834 11 -69.501s6.5 -67 9.5 -112l10.5 -164.5h94l170 333c7.33301 13.333 13.666 24.333 18.999 33s10.833 15.5 16.5 20.5s11.5 8.5 17.5 10.5s13 3 21 3z" />
    <glyph glyph-name="w" unicode="w" horiz-adv-x="630" 
d="M677 445l-93.998 21c-8 -9.33301 -16.667 -22.666 -26 -39.999s-18.666 -36.333 -27.999 -57l-101 -227c-2.66699 -5.33301 -5.66699 -12 -9 -20l-8 -19.5c-2 -5 -3 -7.83301 -3 -8.5c2 22.667 3 38 3 46l-5 314h-78l-140 -312c-2.66699 -6 -5.5 -12.833 -8.5 -20.5
s-5.33301 -14 -7 -19s-2.5 -7.83301 -2.5 -8.5c3.33301 88.667 3.16602 165.5 -0.500977 230.5s-12.834 112.167 -27.501 141.5l-111 -21l-12 -49c8.66699 0 16 -0.833008 22 -2.5s11.5 -6.5 16.5 -14.5s9.16699 -20.333 12.5 -37s6.5 -39.834 9.5 -69.501
s6.16699 -67 9.5 -112s6.66602 -99.833 9.99902 -164.5h89l128 274c6 13.333 11 26.333 15 39s5.5 12.667 4.5 0s-1.16699 -25.667 -0.5 -39l10 -274h91l161 333c6.66699 14 12.667 25.333 18 34s10.833 15.5 16.5 20.5s11.667 8.33301 18 10s13.5 2.5 21.5 2.5z" />
    <glyph glyph-name="x" unicode="x" horiz-adv-x="405" 
d="M444 445l-91 20.9971c-19.333 -18.667 -36.833 -38.667 -52.5 -60l-51.5 -70l-25 -34l-7 33c-7.33301 30 -15.833 56.667 -25.5 80s-19.5 40.333 -29.5 51l-104 -21l-12 -49c10 0 18.833 -1 26.5 -3s14.667 -6 21 -12s12.166 -14.667 17.499 -26
s10.666 -26.333 15.999 -45l25 -80l-67 -82c-14 -17.333 -26.167 -31.666 -36.5 -42.999s-19.833 -20.166 -28.5 -26.499s-17 -10.666 -25 -12.999s-17 -3.5 -27 -3.5l-4 -49l90 -21c13.333 13.333 27.833 30 43.5 50l60.5 81l26 34l8 -34c8 -34 17 -62 27 -84
s19.333 -37.667 28 -47l105 21l11 49c-10 0 -18.833 1.16699 -26.5 3.5s-14.667 6.66602 -21 12.999s-12.166 15 -17.499 26s-10.666 25.5 -15.999 43.5l-26 81l66 81c13.333 16.667 25 30.5 35 41.5s19.333 19.833 28 26.5s17.167 11.334 25.5 14.001s17.5 4 27.5 4z" />
    <glyph glyph-name="y" unicode="y" horiz-adv-x="401" 
d="M448 445l-96.001 20.9951c-8 -9.33301 -16.667 -22.666 -26 -39.999s-18.666 -36.333 -27.999 -57l-112 -238c-4.66699 -9.33301 -8.5 -18.666 -11.5 -27.999s-4 -3.16602 -3 18.501s1.66699 52.167 2 91.5s-0.666992 75.333 -3 108s-5.83301 61.334 -10.5 86.001
s-10.667 44.334 -18 59.001l-110 -21l-13 -49c8.66699 0 16.334 -1 23.001 -3s12.5 -7.16699 17.5 -15.5s9.5 -20.833 13.5 -37.5s7.66699 -39.667 11 -69s6.66602 -66 9.99902 -110s6.66602 -97.667 9.99902 -161h9c-23.333 -54 -44.166 -92.667 -62.499 -116
s-36.5 -35 -54.5 -35c-26 0 -41 15.667 -45 47l-33 -7l-3 -103c26 -9.33301 48.333 -14 67 -14c21.333 0 40.666 4.33301 57.999 13s33.833 21 49.5 37s30.834 35.667 45.501 59s29.667 50 45 80l188 368c7.33301 14 13.833 25.333 19.5 34s11.167 15.5 16.5 20.5
s11 8.33301 17 10s13 2.5 21 2.5z" />
    <glyph glyph-name="z" unicode="z" horiz-adv-x="384" 
d="M385 428l-5.99902 29.998h-296l-27 -119l43 -11c7.33301 21.333 16.166 36.666 26.499 45.999s29.166 14 56.499 14h73l-269 -362l35 -37c0.666992 0.666992 3.66699 3.33398 9 8.00098s13.5 9.83398 24.5 15.501s22.833 8.5 35.5 8.5c16 0 31.833 -1.5 47.5 -4.5
s31 -6.5 46 -10.5s29.667 -7.5 44 -10.5s28.5 -4.5 42.5 -4.5c28 0 48.167 6.33301 60.5 19s19.5 27.667 21.5 45c2 13.333 1.33301 26.333 -2 39s-7.33301 22.334 -12 29.001h-47c1.33301 -3.33301 2.5 -7.16602 3.5 -11.499s0.833008 -8.83301 -0.5 -13.5
c-1.33301 -6 -4.16602 -11 -8.49902 -15s-10.5 -6 -18.5 -6c-23.333 0 -44.833 3.16699 -64.5 9.5s-40.167 10.166 -61.5 11.499z" />
    <glyph glyph-name="braceleft" unicode="{" horiz-adv-x="348" 
d="M447 729c-64 0 -118.165 -22.6738 -162.498 -68.0068s-74.166 -111.666 -89.499 -198.999c-5.33301 -29.333 -12.333 -53.666 -21 -72.999s-19 -35.166 -31 -47.499s-25.5 -22.333 -40.5 -30s-31.833 -14.5 -50.5 -20.5l-4 -27c16 -6 30.167 -12.833 42.5 -20.5
s22.333 -17.667 30 -30s12.5 -28.166 14.5 -47.499s0.333008 -43.666 -5 -72.999c-15.333 -88 -9 -154.667 19 -200s74 -68 138 -68l10 59c-22 0 -40 4.83301 -54 14.5s-24.333 23.334 -31 41.001s-10.167 39 -10.5 64s2.16699 52.833 7.5 83.5
c4 21.333 6.16699 41.833 6.5 61.5s-1.33398 37.834 -5.00098 54.501s-9.66699 31.167 -18 43.5s-19.833 21.5 -34.5 27.5c34 13.333 60.167 36.833 78.5 70.5s31.166 72.5 38.499 116.5c11.333 63.333 29.666 112.833 54.999 148.5s60.333 53.5 105 53.5z" />
    <glyph glyph-name="bar" unicode="|" horiz-adv-x="269" 
d="M257 728h-69l-159 -902h69z" />
    <glyph glyph-name="braceright" unicode="}" horiz-adv-x="348" 
d="M318 291c-16 6 -30.3359 12.8389 -43.0029 20.5059s-22.834 17.667 -30.501 30s-12.5 28.166 -14.5 47.499s-0.333008 43.666 5 72.999c15.333 87.333 9.16602 153.666 -18.501 198.999s-73.5 68 -137.5 68l-11 -59c44.667 0 73.334 -18 86.001 -54
s13.334 -85.667 2.00098 -149c-4 -22 -6.16699 -42.833 -6.5 -62.5s1.33398 -37.667 5.00098 -54s9.83398 -30.5 18.501 -42.5s20.334 -21.333 35.001 -28c-16.667 -6 -31.5 -15.167 -44.5 -27.5s-24.333 -26.833 -34 -43.5s-17.667 -34.834 -24 -54.501
s-11.5 -40.167 -15.5 -61.5c-10.667 -62 -28.667 -111.167 -54 -147.5s-60.333 -54.5 -105 -54.5l-12 -66c64 0 118 22.667 162 68s73.667 112 89 200c5.33301 29.333 12.333 53.666 21 72.999s19 35.166 31 47.499s25.667 22.333 41 30s32.333 14.5 51 20.5z" />
    <glyph glyph-name="asciitilde" unicode="~" horiz-adv-x="397" 
d="M386 328l-56.998 0.00292969c-8.66699 -22 -16.167 -36.5 -22.5 -43.5s-16.166 -10.5 -29.499 -10.5c-10 0 -19.5 3.66699 -28.5 11l-29 23.5c-10.333 8.33301 -21.833 16.166 -34.5 23.499s-27.334 11 -44.001 11c-32 0 -57.833 -12.333 -77.5 -37
s-33.5 -56.334 -41.5 -95.001h57c8 21.333 15.667 35.666 23 42.999s17.666 11 30.999 11c10.667 0 20.334 -3.5 29.001 -10.5l27.5 -23c9.66699 -8.33301 20.5 -16 32.5 -23s27 -10.5 45 -10.5c33.333 0 59.666 12.5 78.999 37.5s32.666 55.833 39.999 92.5z" />
    <glyph glyph-name="nonbreakingspace" unicode="&#xa0;" horiz-adv-x="163" 
 />
    <glyph glyph-name="exclamdown" unicode="&#xa1;" horiz-adv-x="267" 
d="M232 391c3.33301 18 -0.50293 33.667 -11.5029 47s-25.833 20 -44.5 20c-18 0 -34.667 -6.66699 -50 -20s-24.666 -29 -27.999 -47s0.333984 -33.5 11.001 -46.5s25 -19.5 43 -19.5c18.667 0 35.834 6.5 51.501 19.5s25.167 28.5 28.5 46.5zM175.997 244h-75l-100 -424
h124z" />
    <glyph glyph-name="cent" unicode="&#xa2;" horiz-adv-x="435" 
d="M451 516c-7.33301 6 -21.668 13.6641 -43.001 22.9971s-48.333 15.666 -81 18.999l16 88h-45l-16 -88c-29.333 -2 -56.666 -9.5 -81.999 -22.5s-48 -30.167 -68 -51.5s-36.667 -46.166 -50 -74.499s-23 -59.5 -29 -93.5c-6 -36 -7 -68.833 -3 -98.5
s12.167 -55.667 24.5 -78s28.833 -40.333 49.5 -54s44.334 -22.167 71.001 -25.5l-18 -101h45l18 101c31.333 2.66699 58.5 9.83398 81.5 21.501s40.833 23.834 53.5 36.501l13 72c-20.667 -14 -41.5 -25.167 -62.5 -33.5s-44.833 -13.166 -71.5 -14.499l59 337
c20.667 -2.66699 36.667 -10.5 48 -23.5s16.666 -30.167 15.999 -51.5h29zM267.998 476.997l-57.998 -330.998c-30.667 8.66699 -50.834 27.167 -60.501 55.5s-10.834 64.166 -3.50098 107.499c8.66699 46 23 83.667 43 113s46.333 47.666 79 54.999z" />
    <glyph glyph-name="sterling" unicode="&#xa3;" horiz-adv-x="460" 
d="M480 583c-4 3.33301 -10.1729 7.33203 -18.5059 11.999s-18.666 9.5 -30.999 14.5s-26.5 9.16699 -42.5 12.5s-33 5 -51 5c-52 0 -95.5 -17.333 -130.5 -52s-57.833 -82.334 -68.5 -143.001l-16 -91h-73l-12 -69h73l-3 -17c-6.66699 -36 -13.667 -65.5 -21 -88.5
s-15.666 -41.833 -24.999 -56.5s-19.666 -25.5 -30.999 -32.5s-24.333 -12.5 -39 -16.5l9 -74l26 12c10 4.66699 20.667 9.33398 32 14.001s23.333 8.5 36 11.5s25.334 4.5 38.001 4.5c18.667 0 35.834 -2 51.501 -6s31.167 -8.16699 46.5 -12.5s31.333 -8.5 48 -12.5
s35.667 -6 57 -6c24 0 43.333 4.83301 58 14.5s25.5 21.5 32.5 35.5s11.167 28.833 12.5 44.5s0.666016 29.167 -2.00098 40.5h-52c2 -14 -1 -24.833 -9 -32.5s-18.667 -11.5 -32 -11.5c-16 0 -32.167 2.33301 -48.5 7l-50 14c-17 4.66699 -34.5 7.66699 -52.5 9
s-36.333 -1 -55 -7c14.667 14 28.667 35.333 42 64s23 60 29 94l1 8h146l12 69h-146l16 91c8 44 20.833 74.667 38.5 92s37.5 26 59.5 26c8.66699 0 16.834 -1 24.501 -3s14.834 -5.66699 21.501 -11s12.167 -12.666 16.5 -21.999s7.5 -21.333 9.5 -36h30z" />
    <glyph glyph-name="currency" unicode="&#xa4;" horiz-adv-x="520" 
d="M550 566c-4.66699 4 -11.8408 9.33105 -21.5078 15.998s-21.5 13.167 -35.5 19.5s-30 11.833 -48 16.5s-37.667 7 -59 7c-61.333 0 -113.666 -19.333 -156.999 -58s-76.666 -91.334 -99.999 -158.001h-70l-11 -63h64c-1.33301 -4 -2.16602 -8.16699 -2.49902 -12.5
s-1.16602 -8.5 -2.49902 -12.5c-1.33301 -8.66699 -2.5 -17.167 -3.5 -25.5s-2.16699 -16.833 -3.5 -25.5h-66l-11 -63h75c1.33301 -31.333 6 -60.166 14 -86.499s19.667 -49.166 35 -68.499s34.333 -34.333 57 -45s49.334 -16 80.001 -16c21.333 0 40.5 1.66699 57.5 5
s32.5 7.83301 46.5 13.5s26.833 12.167 38.5 19.5s22.834 15 33.501 23l-1 117h-36c-13.333 -36 -30.166 -61.5 -50.499 -76.5s-44.166 -22.5 -71.499 -22.5c-66.667 0 -101 45.667 -103 137h148l11 63h-156c1.33301 6.66699 2.33301 13.334 3 20.001s1.66699 13.667 3 21
c1.33301 6 2.5 12 3.5 18s2.16699 11.667 3.5 17h157l11 63h-151c33.333 91.333 84.333 137 153 137c12 0 23.333 -1.5 34 -4.5s20 -8.33301 28 -16s14.5 -17.667 19.5 -30s7.83301 -27.5 8.5 -45.5h34z" />
    <glyph glyph-name="yen" unicode="&#xa5;" horiz-adv-x="519" 
d="M413 383l98.0039 136c12 16.667 22.167 28 30.5 34s20.5 9 36.5 9l-7 54h-156l-13 -54c33.333 0 39.666 -14.333 18.999 -43l-138 -197l-67 197c-5.33301 16 -5.33301 27.167 0 33.5s16.666 9.5 33.999 9.5l-7 54h-170l-13 -54c15.333 0 26.166 -3.33301 32.499 -10
s12.166 -17.667 17.499 -33l51 -136h-70l-12 -63h105l29 -78h-147l-11 -63h150l-14 -78c-3.33301 -17.333 -8.5 -29.5 -15.5 -36.5s-19.167 -10.5 -36.5 -10.5l8 -54h158l13 54c-17.333 0 -28.333 3.5 -33 10.5s-5.33398 19.167 -2.00098 36.5l14 78h150l11 63h-148
c0.666992 0 6.33398 7.5 17.001 22.5l40 55.5h104l11 63h-69z" />
    <glyph glyph-name="brokenbar" unicode="&#xa6;" horiz-adv-x="269" 
d="M257 728h-69l-68 -389h69zM167 216h-69l-69 -390h69z" />
    <glyph glyph-name="section" unicode="&#xa7;" horiz-adv-x="494" 
d="M332 104c-11.333 9.33301 -24.166 18.166 -38.499 26.499s-29.166 16.5 -44.499 24.5c-44 23.333 -76 44.666 -96 63.999s-27.667 41 -23 65c2 12.667 5.83301 24.167 11.5 34.5s12.167 18.833 19.5 25.5c11.333 -9.33301 24.166 -18.166 38.499 -26.499
s29.166 -16.5 44.499 -24.5c44 -23.333 76 -44.666 96 -63.999s27.667 -41 23 -65c-2 -12.667 -5.83301 -24 -11.5 -34s-12.167 -18.667 -19.5 -26zM119 391c-19.333 -13.333 -35.167 -30.001 -47.5 -50.001s-20.5 -41.667 -24.5 -65c-4 -24 -3 -45.833 3 -65.5
s16.167 -37.667 30.5 -54s32.5 -31.666 54.5 -45.999s47 -28.166 75 -41.499c32 -16 54.667 -31.333 68 -46s18.333 -32.667 15 -54c-4.66699 -24.667 -16.834 -43 -36.501 -55s-41.167 -18 -64.5 -18c-10.667 0 -22.167 1.16699 -34.5 3.5s-23.666 6.5 -33.999 12.5
s-19.5 14.333 -27.5 25s-13 24.667 -15 42h-39l-31 -111c4 -2.66699 10.833 -6.66699 20.5 -12s21.834 -10.5 36.501 -15.5s31.334 -9.5 50.001 -13.5s39.334 -6 62.001 -6c24.667 0 48.5 3.16699 71.5 9.5s43.833 15.666 62.5 27.999s34.5 27.5 47.5 45.5
s21.5 38.667 25.5 62c3.33301 19.333 3.83301 36.333 1.5 51s-7.16602 28.334 -14.499 41.001c19.333 13.333 35.166 29.833 47.499 49.5s20.5 41.167 24.5 64.5c4 24 3.16699 45.833 -2.5 65.5s-15.834 37.834 -30.501 54.501s-32.834 32 -54.501 46s-46.5 27.667 -74.5 41
c-32.667 16 -55.667 31.333 -69 46s-18.333 32.667 -15 54c4.66699 24.667 17 43 37 55s41.667 18 65 18c11.333 0 23 -1.16699 35 -3.5s23.167 -6.5 33.5 -12.5s19.333 -14.333 27 -25s12.834 -24.334 15.501 -41.001h39l30 110c-4 2.66699 -10.833 6.66699 -20.5 12
s-21.667 10.5 -36 15.5s-30.833 9.5 -49.5 13.5s-39.334 6 -62.001 6c-24.667 0 -48.667 -3.16699 -72 -9.5s-44.333 -15.666 -63 -27.999s-34.5 -27.5 -47.5 -45.5s-21.5 -38.667 -25.5 -62c-3.33301 -18.667 -3.83301 -35.334 -1.5 -50.001
s7.16602 -28.334 14.499 -41.001z" />
    <glyph glyph-name="dieresis" unicode="&#xa8;" 
d="M413 589c2.66699 12 0.166992 22.667 -7.5 32s-17.834 14 -30.501 14s-24.334 -4.66699 -35.001 -14s-17 -20 -19 -32c-2.66699 -13.333 -0.166992 -24.333 7.5 -33s17.834 -13 30.501 -13s24.334 4.33301 35.001 13s17 19.667 19 33zM231 589
c2.66699 12 0.166992 22.667 -7.5 32s-17.834 14 -30.501 14s-24.334 -4.66699 -35.001 -14s-17 -20 -19 -32c-2.66699 -13.333 -0.166992 -24.333 7.5 -33s17.834 -13 30.501 -13s24.334 4.33301 35.001 13s17 19.667 19 33z" />
    <glyph glyph-name="copyright" unicode="&#xa9;" horiz-adv-x="724" 
d="M702 308c4 44.667 -0.833008 86.834 -14.5 126.501s-34 74.167 -61 103.5s-59.5 52.666 -97.5 69.999s-79.333 26 -124 26s-87.5 -8.66699 -128.5 -26s-77.667 -40.666 -110 -69.999s-58.833 -63.833 -79.5 -103.5s-33 -81.834 -37 -126.501
s0.833008 -86.834 14.5 -126.501s34 -74.167 61 -103.5s59.5 -52.666 97.5 -69.999s79.333 -26 124 -26s87.5 8.66699 128.5 26s77.667 40.666 110 69.999s58.833 63.833 79.5 103.5s33 81.834 37 126.501zM648 308c-3.33301 -37.333 -13.5 -72.5 -30.5 -105.5
s-38.833 -61.833 -65.5 -86.5s-57.167 -44.167 -91.5 -58.5s-70.5 -21.5 -108.5 -21.5c-37.333 0 -71.833 7.16699 -103.5 21.5s-58.834 33.833 -81.501 58.5s-39.667 53.5 -51 86.5s-15.333 68.167 -12 105.5s13.5 72.5 30.5 105.5s38.833 61.833 65.5 86.5
s57.167 44.167 91.5 58.5s70.5 21.5 108.5 21.5c37.333 0 71.833 -7.16699 103.5 -21.5s58.834 -33.833 81.501 -58.5s39.667 -53.5 51 -86.5s15.333 -68.167 12 -105.5zM535 463c-3.33301 2.66699 -8.67188 6.33594 -16.0049 11.0029s-16.166 9.16699 -26.499 13.5
s-22.166 8.16602 -35.499 11.499s-27.666 5 -42.999 5c-24 0 -47.167 -4.5 -69.5 -13.5s-42.666 -21.833 -60.999 -38.5s-34 -37 -47 -61s-22.167 -51 -27.5 -81c-5.33301 -32 -5 -60.5 1 -85.5s16 -45.833 30 -62.5s31 -29.334 51 -38.001s41.333 -13 64 -13
c26 0 49.5 4.83301 70.5 14.5s38.833 19.5 53.5 29.5l3 78h-29c-7.33301 -19.333 -18.666 -33.333 -33.999 -42s-32.333 -13 -51 -13c-31.333 0 -53.5 11.667 -66.5 35s-15.833 55 -8.5 95s21.5 71.5 42.5 94.5s46.833 34.5 77.5 34.5c17.333 0 32.333 -3.83301 45 -11.5
s19.667 -21.834 21 -42.501h29z" />
    <glyph glyph-name="ordfeminine" unicode="&#xaa;" horiz-adv-x="356" 
d="M364 313c-9.33301 -5.33301 -18.3301 -7.99902 -26.9971 -7.99902c-8 0 -13.833 2.5 -17.5 7.5s-4.5 13.5 -2.5 25.5l32 181c6.66699 34.667 -1 61.167 -23 79.5s-51.667 27.5 -89 27.5c-14.667 0 -28.667 -1.66699 -42 -5s-25.5 -7.16602 -36.5 -11.499
s-20.333 -8.5 -28 -12.5s-13.167 -6.66699 -16.5 -8l-12 -67l16 9.5c7.33301 4.33301 16.166 8.5 26.499 12.5s21.833 7.5 34.5 10.5s26 4.5 40 4.5c16 0 28.667 -3.33301 38 -10s12.333 -18.667 9 -36l-6 -37c-60.667 0 -109.334 -10.167 -146.001 -30.5
s-58.667 -50.5 -66 -90.5c-2 -12.667 -1.66699 -25.334 1 -38.001s7.66699 -23.834 15 -33.501s17.166 -17.5 29.499 -23.5s26.833 -9 43.5 -9c15.333 0 31 3.5 47 10.5s34 18.167 54 33.5c2 -13.333 8.83301 -24 20.5 -32s25.167 -12 40.5 -12c18.667 0 37.667 6 57 18z
M249.003 423.001l-14 -76.999c-14.667 -11.333 -28.667 -20.333 -42 -27s-25 -10 -35 -10c-13.333 0 -22.833 5 -28.5 15s-7.16699 21 -4.5 33c3.33301 21.333 14.5 37.666 33.5 48.999s49.167 17 90.5 17z" />
    <glyph glyph-name="guillemotleft" unicode="&#xab;" horiz-adv-x="405" 
d="M416 444l-203 -156l-7 -41l148 -152l13 73l-68 96l102 95zM260 466l-237 -176l-7 -41l174 -176l14 73l-95 118l136 117z" />
    <glyph glyph-name="logicalnot" unicode="&#xac;" horiz-adv-x="436" 
d="M378 310h-322l-14 -78h244l-19 -109h78z" />
    <glyph glyph-name="registered" unicode="&#xae;" horiz-adv-x="597" 
d="M584 365c3.33301 36 -0.5 69.833 -11.5 101.5s-27.167 59.334 -48.5 83.001s-47.333 42.334 -78 56.001s-64 20.5 -100 20.5s-70.5 -6.83301 -103.5 -20.5s-62.333 -32.334 -88 -56.001s-46.667 -51.334 -63 -83.001s-26.166 -65.5 -29.499 -101.5
s0.5 -69.833 11.5 -101.5s27.167 -59.334 48.5 -83.001s47.333 -42.334 78 -56.001s64 -20.5 100 -20.5s70.5 6.83301 103.5 20.5s62.333 32.334 88 56.001s46.667 51.334 63 83.001s26.166 65.5 29.499 101.5zM537 365c-2.66699 -29.333 -10.667 -57 -24 -83
s-30.666 -48.667 -51.999 -68s-45.5 -34.666 -72.5 -45.999s-55.167 -17 -84.5 -17s-56.5 5.66699 -81.5 17s-46.333 26.666 -64 45.999s-31 42 -40 68s-12.167 53.667 -9.5 83s10.667 57 24 83s30.666 48.667 51.999 68s45.5 34.666 72.5 45.999s55.167 17 84.5 17
s56.5 -5.66699 81.5 -17s46.333 -26.666 64 -45.999s31 -42 40 -68s12.167 -53.667 9.5 -83zM448 256h-6.00098c-11.333 0 -21 3.5 -29 10.5s-14.667 15.333 -20 25s-9.33301 19.667 -12 30s-4.66699 19.166 -6 26.499c21.333 7.33301 37.5 18.333 48.5 33
s18.167 29.667 21.5 45c4.66699 24.667 -0.666016 44.334 -15.999 59.001s-39 22 -71 22h-118l-12 -33c8.66699 0 14 -1.66699 16 -5s2.33301 -9 1 -17l-31 -174c-1.33301 -8 -3.5 -13.667 -6.5 -17s-8.83301 -5 -17.5 -5l3 -34h87l12 34c-8.66699 0 -14 1.66699 -16 5
s-2.33301 9 -1 17l10 58h37c4.66699 -49.333 18 -87.333 40 -114h73zM384.999 423c-2.66699 -11.333 -8.66797 -20.999 -18.001 -28.999s-21.666 -12 -36.999 -12h-37l15 83h37c15.333 0 26.333 -3.83301 33 -11.5s9 -17.834 7 -30.501z" />
    <glyph glyph-name="macron" unicode="&#xaf;" 
d="M380 580h-210c0 -0.666992 -1 -5.66699 -3 -15s-3.66699 -18 -5 -26s-2 -12.667 -2 -14h211c0 0.666992 0.833008 5.66699 2.5 15l4.5 26c1.33301 8 2 12.667 2 14z" />
    <glyph glyph-name="degree" unicode="&#xb0;" horiz-adv-x="350" 
d="M370 475c4 20.667 3.49805 40.167 -1.50195 58.5s-13.167 34.333 -24.5 48s-25.5 24.5 -42.5 32.5s-35.833 12 -56.5 12s-40.834 -4 -60.501 -12s-37.5 -18.833 -53.5 -32.5s-29.667 -29.667 -41 -48s-18.666 -37.833 -21.999 -58.5c-4 -20.667 -3.5 -40.167 1.5 -58.5
s13.167 -34.333 24.5 -48s25.333 -24.5 42 -32.5s35.334 -12 56.001 -12s40.834 4 60.501 12s37.667 18.833 54 32.5s30 29.667 41 48s18.5 37.833 22.5 58.5zM296.998 475c-2 -10.667 -5.83203 -20.834 -11.499 -30.501s-12.667 -18 -21 -25s-17.666 -12.667 -27.999 -17
s-20.833 -6.5 -31.5 -6.5c-21.333 0 -38.333 7.83301 -51 23.5s-17.334 34.167 -14.001 55.5c2 10.667 5.83301 20.834 11.5 30.501s12.667 18 21 25s17.666 12.667 27.999 17s20.833 6.5 31.5 6.5c22 0 39.333 -7.83301 52 -23.5s17 -34.167 13 -55.5z" />
    <glyph glyph-name="plusminus" unicode="&#xb1;" horiz-adv-x="474" 
d="M459 375h-158l28 157h-78l-28 -157h-157l-13 -76h157l-27 -157h77l28 157h157zM406 76h-392l-14 -76h392z" />
    <glyph glyph-name="twosuperior" unicode="&#xb2;" horiz-adv-x="290" 
d="M310 524c3.33301 17.333 2.66699 32.501 -2 45.501s-12.167 23.667 -22.5 32s-22.833 14.5 -37.5 18.5s-30.334 6 -47.001 6c-13.333 0 -26 -1.33301 -38 -4s-23.167 -5.83398 -33.5 -9.50098s-19.333 -7.5 -27 -11.5s-13.834 -7.33301 -18.501 -10v-71h31
c9.33301 18 20.5 30.833 33.5 38.5s26.167 11.5 39.5 11.5c32.667 0 46.334 -15.667 41.001 -47c-2.66699 -15.333 -8.83398 -28.833 -18.501 -40.5s-21.167 -23 -34.5 -34s-27.833 -22.167 -43.5 -33.5s-30.5 -24.5 -44.5 -39.5s-26.667 -32.167 -38 -51.5
s-19.333 -42.333 -24 -69h242l17 100h-38c-3.33301 -12.667 -7.66602 -21.667 -12.999 -27s-13.666 -8 -24.999 -8h-91c4.66699 11.333 12.167 21.833 22.5 31.5s22.166 19.5 35.499 29.5l42 30c14.667 10 28.334 20.833 41.001 32.5s23.667 24 33 37s15.333 27.5 18 43.5z
" />
    <glyph glyph-name="threesuperior" unicode="&#xb3;" horiz-adv-x="292" 
d="M311 532c2.66699 14.667 1.5 27.835 -3.5 39.502s-12.833 21.5 -23.5 29.5s-23.334 14.167 -38.001 18.5s-30.334 6.5 -47.001 6.5c-28 0 -52 -4.16699 -72 -12.5s-34.333 -15.166 -43 -20.499v-67h31c10 18 21.333 30.167 34 36.5s25.667 9.5 39 9.5
c15.333 0 26.833 -4 34.5 -12s10.834 -17 9.50098 -27c-2.66699 -14.667 -12.667 -27.834 -30 -39.501s-41.666 -19.167 -72.999 -22.5l-9 -45c32 -4 56 -12.5 72 -25.5s22.333 -29.167 19 -48.5c-3.33301 -15.333 -10.666 -27.333 -21.999 -36s-25.666 -13 -42.999 -13
c-8 0 -15.833 0.833008 -23.5 2.5s-14.5 4.66699 -20.5 9s-11.167 10.166 -15.5 17.499s-6.83301 16.666 -7.5 27.999h-31l-24 -68l15 -11.5c6.66699 -5 15.167 -10 25.5 -15s22.166 -9.16699 35.499 -12.5s28 -5 44 -5c40 0 72.833 9.66699 98.5 29s41.167 43.333 46.5 72
c4.66699 24 1.16699 44.5 -10.5 61.5s-26.834 30.167 -45.501 39.5c19.333 9.33301 36.333 20.5 51 33.5s23.667 29.167 27 48.5z" />
    <glyph glyph-name="acute" unicode="&#xb4;" 
d="M445 662h-108l-139 -137h62z" />
    <glyph glyph-name="mu" unicode="&#xb5;" horiz-adv-x="489" 
d="M473 77c-7.33301 -4.66699 -15.502 -8.83301 -24.502 -12.5s-17.167 -5.5 -24.5 -5.5c-14.667 0 -25.167 5.16699 -31.5 15.5s-6.83301 29.5 -1.5 57.5l60 337l-102 -17l-46 -262c-22 -36 -43.833 -63.333 -65.5 -82s-40.167 -28 -55.5 -28s-25.833 5.83301 -31.5 17.5
s-5.5 34.167 0.5 67.5l29 162c4 23.333 6.5 43.166 7.5 59.499s1 30 0 41s-2.66699 19.667 -5 26s-5.16602 11.5 -8.49902 15.5l-119 -20l-12 -50c18 0 29.5 -6 34.5 -18s4.83301 -33.333 -0.5 -64l-95 -540h101l37 212h8c16 0 31.5 2.83301 46.5 8.5
s29.333 13.334 43 23.001s26.5 20.667 38.5 33s23 24.833 33 37.5c-1.33301 -37.333 6.33398 -63.333 23.001 -78s38 -22 64 -22c20 0 37.167 2.83301 51.5 8.5s26.5 12.5 36.5 20.5z" />
    <glyph glyph-name="mu" unicode="&#x3bc;" horiz-adv-x="489" 
d="M473 77c-7.33301 -4.66699 -15.502 -8.83301 -24.502 -12.5s-17.167 -5.5 -24.5 -5.5c-14.667 0 -25.167 5.16699 -31.5 15.5s-6.83301 29.5 -1.5 57.5l60 337l-102 -17l-46 -262c-22 -36 -43.833 -63.333 -65.5 -82s-40.167 -28 -55.5 -28s-25.833 5.83301 -31.5 17.5
s-5.5 34.167 0.5 67.5l29 162c4 23.333 6.5 43.166 7.5 59.499s1 30 0 41s-2.66699 19.667 -5 26s-5.16602 11.5 -8.49902 15.5l-119 -20l-12 -50c18 0 29.5 -6 34.5 -18s4.83301 -33.333 -0.5 -64l-95 -540h101l37 212h8c16 0 31.5 2.83301 46.5 8.5
s29.333 13.334 43 23.001s26.5 20.667 38.5 33s23 24.833 33 37.5c-1.33301 -37.333 6.33398 -63.333 23.001 -78s38 -22 64 -22c20 0 37.167 2.83301 51.5 8.5s26.5 12.5 36.5 20.5z" />
    <glyph glyph-name="paragraph" unicode="&#xb6;" horiz-adv-x="511" 
d="M530 562l-7.99707 54.001h-250c-24.667 0 -48.334 -4.16699 -71.001 -12.5s-43.167 -20 -61.5 -35s-33.833 -33 -46.5 -54s-21.334 -43.833 -26.001 -68.5c-4 -22 -3.66699 -43.333 1 -64s12.5 -39 23.5 -55s25 -29.333 42 -40s36.167 -17.334 57.5 -20.001l-69 -390
c-3.33301 -17.333 -8.33301 -29.333 -15 -36s-18.667 -10 -36 -10l11 -54h99l135 765h92l-135 -765h116l12 54c-17.333 0 -28.333 3.33301 -33 10s-5.33398 18.667 -2.00098 36l113 638c3.33301 17.333 8.33301 29.5 15 36.5s18.667 10.5 36 10.5z" />
    <glyph glyph-name="periodcentered" unicode="&#xb7;" horiz-adv-x="213" 
d="M180 270c3.33301 18.667 -0.335938 34.5 -11.0029 47.5s-25 19.5 -43 19.5c-18.667 0 -35.667 -6.5 -51 -19.5s-24.666 -28.833 -27.999 -47.5c-3.33301 -18 0.333984 -33.667 11.001 -47s25.334 -20 44.001 -20s35.5 6.66699 50.5 20s24.167 29 27.5 47z" />
    <glyph glyph-name="periodcentered" unicode="&#x22c5;" horiz-adv-x="213" 
d="M180 270c3.33301 18.667 -0.335938 34.5 -11.0029 47.5s-25 19.5 -43 19.5c-18.667 0 -35.667 -6.5 -51 -19.5s-24.666 -28.833 -27.999 -47.5c-3.33301 -18 0.333984 -33.667 11.001 -47s25.334 -20 44.001 -20s35.5 6.66699 50.5 20s24.167 29 27.5 47z" />
    <glyph glyph-name="cedilla" unicode="&#xb8;" 
d="M225 -131c3.33301 18 -0.999023 34.166 -12.999 48.499s-29.333 22.166 -52 23.499l25 82h-47l-42 -129h23c12.667 0 23.5 -2.16699 32.5 -6.5s12.5 -12.166 10.5 -23.499c-2 -10.667 -7.83301 -18.167 -17.5 -22.5s-20.834 -6.5 -33.501 -6.5
c-4.66699 0 -10.5 0.666992 -17.5 2s-14.167 3.33301 -21.5 6s-14.5 5.83398 -21.5 9.50098s-12.833 7.5 -17.5 11.5l-10 -55c12 -6 23.833 -11.333 35.5 -16s26.834 -7 45.501 -7c31.333 0 58.166 7.16699 80.499 21.5s35.833 34.833 40.5 61.5z" />
    <glyph glyph-name="onesuperior" unicode="&#xb9;" horiz-adv-x="237" 
d="M232 624l-58.001 0.00195312c-8.66699 -12 -16.334 -21.667 -23.001 -29s-13.5 -13.333 -20.5 -18s-14.167 -8.5 -21.5 -11.5s-15.666 -5.83301 -24.999 -8.5l-10 -51c16 1.33301 28.667 3.66602 38 6.99902s17 6.66602 23 9.99902l-35 -201
c-1.33301 -7.33301 -3.66602 -12.333 -6.99902 -15s-9.33301 -4 -18 -4h-28l6 -48h160l10 48h-28c-8 0 -13.167 1.33301 -15.5 4s-2.83301 7.66699 -1.5 15z" />
    <glyph glyph-name="ordmasculine" unicode="&#xba;" horiz-adv-x="374" 
d="M381 435c5.33301 31.333 5.83398 58.833 1.50098 82.5s-12.5 43.5 -24.5 59.5s-27.167 28.167 -45.5 36.5s-38.166 12.5 -59.499 12.5c-44 0 -83.167 -15 -117.5 -45s-56.833 -76 -67.5 -138c-5.33301 -30.667 -5.83301 -58 -1.5 -82s12.333 -44 24 -60
s26.5 -28.167 44.5 -36.5s38 -12.5 60 -12.5c21.333 0 42.166 3.83301 62.499 11.5s38.666 19 54.999 34s30.5 34 42.5 57s20.667 49.833 26 80.5zM297.001 439c-7.33301 -41.333 -19.5 -72.166 -36.5 -92.499s-36.167 -30.5 -57.5 -30.5c-22 0 -38 10.167 -48 30.5
s-11.333 51.166 -4 92.499c7.33301 42 19.5 73.167 36.5 93.5s36.5 30.5 58.5 30.5c21.333 0 37 -10.167 47 -30.5s11.333 -51.5 4 -93.5z" />
    <glyph glyph-name="guillemotright" unicode="&#xbb;" horiz-adv-x="405" 
d="M404 290l-174 176l-13 -73l94 -117l-135 -118l-16 -85l237 176zM214 292l-148 152l-13 -73l69 -95l-102 -96l-16 -85l204 156z" />
    <glyph glyph-name="onequarter" unicode="&#xbc;" horiz-adv-x="676" 
d="M608 366l-73 -0.000976562l-201 -230l15 -33h139l-7 -39c-1.33301 -7.33301 -4.16602 -12.5 -8.49902 -15.5s-12.166 -4.5 -23.499 -4.5l6 -44h114l10 44c-12 0 -19.333 1.5 -22 4.5s-3.33398 8.16699 -2.00098 15.5l7 39h62l13 69l-23 9
c-3.33301 -9.33301 -7.33301 -15.666 -12 -18.999s-12.334 -5 -23.001 -5h-7zM572 615.999h-59l-418 -616h59zM232 623.999l-58.001 0.00195312c-8.66699 -12 -16.334 -21.667 -23.001 -29s-13.5 -13.333 -20.5 -18s-14.167 -8.5 -21.5 -11.5s-15.666 -5.83301 -24.999 -8.5
l-10 -51c16 1.33301 28.667 3.66602 38 6.99902s17 6.66602 23 9.99902l-35 -201c-1.33301 -7.33301 -3.66602 -12.333 -6.99902 -15s-9.33301 -4 -18 -4h-28l6 -48h160l10 48h-28c-8 0 -13.167 1.33301 -15.5 4s-2.83301 7.66699 -1.5 15zM522.999 289.001
c-3.33301 -14 -5.66699 -22.999 -7 -26.999l-18 -105h-85l93 108c3.33301 3.33301 7 8.16602 11 14.499z" />
    <glyph glyph-name="onehalf" unicode="&#xbd;" horiz-adv-x="698" 
d="M674 269c3.33301 17.333 2.50098 32.501 -2.49902 45.501s-12.5 23.667 -22.5 32s-22.333 14.5 -37 18.5s-30.334 6 -47.001 6c-13.333 0 -26 -1.33301 -38 -4s-23.167 -5.83398 -33.5 -9.50098s-19.333 -7.5 -27 -11.5s-13.834 -7.33301 -18.501 -10v-71h31
c9.33301 18 20.5 30.833 33.5 38.5s26.167 11.5 39.5 11.5c32.667 0 46.334 -15.667 41.001 -47c-2.66699 -15.333 -8.83398 -28.833 -18.501 -40.5s-21.167 -23 -34.5 -34s-27.833 -22.167 -43.5 -33.5s-30.667 -24.5 -45 -39.5s-27 -32.167 -38 -51.5
s-18.833 -42.333 -23.5 -69h241l18 100h-38c-3.33301 -12.667 -7.66602 -21.667 -12.999 -27s-13.666 -8 -24.999 -8h-91c6.66699 16.667 19.5 32.167 38.5 46.5l60.5 44.5c21.333 15.333 41.166 32 59.499 50s29.5 39 33.5 63zM572.001 616.001h-59l-418 -616h59z
M232.001 624.001l-58.001 0.00195312c-8.66699 -12 -16.334 -21.667 -23.001 -29s-13.5 -13.333 -20.5 -18s-14.167 -8.5 -21.5 -11.5s-15.666 -5.83301 -24.999 -8.5l-10 -51c16 1.33301 28.667 3.66602 38 6.99902s17 6.66602 23 9.99902l-35 -201
c-1.33301 -7.33301 -3.66602 -12.333 -6.99902 -15s-9.33301 -4 -18 -4h-28l6 -48h160l10 48h-28c-8 0 -13.167 1.33301 -15.5 4s-2.83301 7.66699 -1.5 15z" />
    <glyph glyph-name="threequarters" unicode="&#xbe;" horiz-adv-x="717" 
d="M656 366l-72.999 -0.000976562l-202 -230l15 -33h140l-7 -39c-1.33301 -7.33301 -4.16602 -12.5 -8.49902 -15.5s-12.5 -4.5 -24.5 -4.5l6 -44h114l10 44c-11.333 0 -18.333 1.5 -21 4.5s-3.33398 8.16699 -2.00098 15.5l6 39h63l12 69l-23 9
c-3.33301 -9.33301 -7.33301 -15.666 -12 -18.999s-12.334 -5 -23.001 -5h-7zM620.001 615.999h-59l-418 -616h59zM311.001 531.999c2.66699 14.667 1.5 27.835 -3.5 39.502s-12.833 21.5 -23.5 29.5s-23.334 14.167 -38.001 18.5s-30.334 6.5 -47.001 6.5
c-28 0 -52 -4.16699 -72 -12.5s-34.333 -15.166 -43 -20.499v-67h31c10 18 21.333 30.167 34 36.5s25.667 9.5 39 9.5c15.333 0 26.833 -4 34.5 -12s10.834 -17 9.50098 -27c-2.66699 -14.667 -12.667 -27.834 -30 -39.501s-41.666 -19.167 -72.999 -22.5l-9 -45
c32 -4 56 -12.5 72 -25.5s22.333 -29.167 19 -48.5c-3.33301 -15.333 -10.666 -27.333 -21.999 -36s-25.666 -13 -42.999 -13c-8 0 -15.833 0.833008 -23.5 2.5s-14.5 4.66699 -20.5 9s-11.167 10.166 -15.5 17.499s-6.83301 16.666 -7.5 27.999h-31l-24 -68l15 -11.5
c6.66699 -5 15.167 -10 25.5 -15s22.166 -9.16699 35.499 -12.5s28 -5 44 -5c40 0 72.833 9.66699 98.5 29s41.167 43.333 46.5 72c4.66699 24 1.16699 44.5 -10.5 61.5s-26.834 30.167 -45.501 39.5c19.333 9.33301 36.333 20.5 51 33.5s23.667 29.167 27 48.5z
M571.001 289c-4 -14 -6.33301 -22.999 -7 -26.999l-19 -105h-85l94 108c3.33301 3.33301 7 8.16602 11 14.499z" />
    <glyph glyph-name="questiondown" unicode="&#xbf;" horiz-adv-x="419" 
d="M331 391c3.33301 18 -0.333984 33.667 -11.001 47s-25.334 20 -44.001 20c-18 0 -34.667 -6.66699 -50 -20s-24.666 -29 -27.999 -47s0.333984 -33.5 11.001 -46.5s25.334 -19.5 44.001 -19.5c18 0 34.667 6.5 50 19.5s24.666 28.5 27.999 46.5zM342 -131
l0.00390625 113.996h-36c-16.667 -34.667 -36.334 -57.667 -59.001 -69s-45 -17 -67 -17c-28.667 0 -50 8.16699 -64 24.5s-19 35.833 -15 58.5c3.33301 17.333 9.66602 32.5 18.999 45.5s20.166 25.333 32.499 37s25.5 23.334 39.5 35.001s26.833 24.667 38.5 39
s21.5 30.666 29.5 48.999s12.667 40.166 14 65.499h-63c-6 -21.333 -15 -39.666 -27 -54.999s-25.5 -29.166 -40.5 -41.499s-30.667 -24.166 -47 -35.499s-31.833 -23.666 -46.5 -36.999s-27.5 -28.333 -38.5 -45s-18.5 -36.667 -22.5 -60
c-4.66699 -25.333 -3.5 -47.666 3.5 -66.999s18.5 -35.833 34.5 -49.5s35.667 -24 59 -31s49.333 -10.5 78 -10.5c21.333 0 41.666 2 60.999 6s36.833 8.66699 52.5 14s29.167 10.833 40.5 16.5s19.333 10.167 24 13.5z" />
    <glyph glyph-name="Agrave" unicode="&#xc0;" horiz-adv-x="532" 
d="M510 54c-15.333 0 -25.998 2.33301 -31.998 7s-10.667 16.667 -14 36l-53 436c-1.33301 10 0.166992 17.333 4.5 22s15.166 7 32.499 7l-5 54h-230l-13 -54c16.667 0 26.5 -2.5 29.5 -7.5s2.16699 -12.833 -2.5 -23.5l-208 -434
c-4.66699 -10 -8.83398 -17.833 -12.501 -23.5s-7.66699 -10 -12 -13s-9.33301 -4.83301 -15 -5.5s-12.5 -1 -20.5 -1l8 -54h157l13 54c-17.333 0 -28.166 2.33301 -32.499 7s-2.16602 16.667 6.50098 36l40 83h199l10 -83c1.33301 -18 -0.333984 -29.667 -5.00098 -35
s-16.334 -8 -35.001 -8l8 -54h169zM344.002 261h-157.002l102 216c4 9.33301 8.66699 21.5 14 36.5l13 37.5c3.33301 10 5.33301 15.667 6 17c0 -1.33301 -0.166992 -7 -0.5 -17s-0.666016 -22.5 -0.999023 -37.5s-0.166016 -27.167 0.500977 -36.5zM413 669l-101 137h-103
l141 -137h63z" />
    <glyph glyph-name="Aacute" unicode="&#xc1;" horiz-adv-x="532" 
d="M510 54c-15.333 0 -25.998 2.33301 -31.998 7s-10.667 16.667 -14 36l-53 436c-1.33301 10 0.166992 17.333 4.5 22s15.166 7 32.499 7l-5 54h-230l-13 -54c16.667 0 26.5 -2.5 29.5 -7.5s2.16699 -12.833 -2.5 -23.5l-208 -434
c-4.66699 -10 -8.83398 -17.833 -12.501 -23.5s-7.66699 -10 -12 -13s-9.33301 -4.83301 -15 -5.5s-12.5 -1 -20.5 -1l8 -54h157l13 54c-17.333 0 -28.166 2.33301 -32.499 7s-2.16602 16.667 6.50098 36l40 83h199l10 -83c1.33301 -18 -0.333984 -29.667 -5.00098 -35
s-16.334 -8 -35.001 -8l8 -54h169zM344.002 261h-157.002l102 216c4 9.33301 8.66699 21.5 14 36.5l13 37.5c3.33301 10 5.33301 15.667 6 17c0 -1.33301 -0.166992 -7 -0.5 -17s-0.666016 -22.5 -0.999023 -37.5s-0.166016 -27.167 0.500977 -36.5zM512 806h-108l-139 -137
h62z" />
    <glyph glyph-name="Acircumflex" unicode="&#xc2;" horiz-adv-x="532" 
d="M510 54c-15.333 0 -25.998 2.33301 -31.998 7s-10.667 16.667 -14 36l-53 436c-1.33301 10 0.166992 17.333 4.5 22s15.166 7 32.499 7l-5 54h-230l-13 -54c16.667 0 26.5 -2.5 29.5 -7.5s2.16699 -12.833 -2.5 -23.5l-208 -434
c-4.66699 -10 -8.83398 -17.833 -12.501 -23.5s-7.66699 -10 -12 -13s-9.33301 -4.83301 -15 -5.5s-12.5 -1 -20.5 -1l8 -54h157l13 54c-17.333 0 -28.166 2.33301 -32.499 7s-2.16602 16.667 6.50098 36l40 83h199l10 -83c1.33301 -18 -0.333984 -29.667 -5.00098 -35
s-16.334 -8 -35.001 -8l8 -54h169zM344.002 261h-157.002l102 216c4 9.33301 8.66699 21.5 14 36.5l13 37.5c3.33301 10 5.33301 15.667 6 17c0 -1.33301 -0.166992 -7 -0.5 -17s-0.666016 -22.5 -0.999023 -37.5s-0.166016 -27.167 0.500977 -36.5zM493 669l-110 148h-32
l-162 -148h65l104 78l77 -78h58z" />
    <glyph glyph-name="Atilde" unicode="&#xc3;" horiz-adv-x="532" 
d="M510 54c-15.333 0 -25.998 2.33301 -31.998 7s-10.667 16.667 -14 36l-53 436c-1.33301 10 0.166992 17.333 4.5 22s15.166 7 32.499 7l-5 54h-230l-13 -54c16.667 0 26.5 -2.5 29.5 -7.5s2.16699 -12.833 -2.5 -23.5l-208 -434
c-4.66699 -10 -8.83398 -17.833 -12.501 -23.5s-7.66699 -10 -12 -13s-9.33301 -4.83301 -15 -5.5s-12.5 -1 -20.5 -1l8 -54h157l13 54c-17.333 0 -28.166 2.33301 -32.499 7s-2.16602 16.667 6.50098 36l40 83h199l10 -83c1.33301 -18 -0.333984 -29.667 -5.00098 -35
s-16.334 -8 -35.001 -8l8 -54h169zM344.002 261h-157.002l102 216c4 9.33301 8.66699 21.5 14 36.5l13 37.5c3.33301 10 5.33301 15.667 6 17c0 -1.33301 -0.166992 -7 -0.5 -17s-0.666016 -22.5 -0.999023 -37.5s-0.166016 -27.167 0.500977 -36.5zM503 789
l-39.999 -0.00195312c-4 -19.333 -9.66699 -33.166 -17 -41.499s-16.666 -12.5 -27.999 -12.5c-10 0 -19.5 3.16699 -28.5 9.5s-18.167 13.333 -27.5 21s-19.166 14.667 -29.499 21s-21.5 9.5 -33.5 9.5c-26.667 0 -48 -10.667 -64 -32s-27.333 -50.666 -34 -87.999h40
c4.66699 18 10.5 31.667 17.5 41s16.5 14 28.5 14c9.33301 0 18.666 -3.16699 27.999 -9.5s18.666 -13.333 27.999 -21s19.166 -14.667 29.499 -21s21.5 -9.5 33.5 -9.5c24 0 44.333 9.66699 61 29s28.667 49.333 36 90z" />
    <glyph glyph-name="Adieresis" unicode="&#xc4;" horiz-adv-x="532" 
d="M510 54c-15.333 0 -25.998 2.33301 -31.998 7s-10.667 16.667 -14 36l-53 436c-1.33301 10 0.166992 17.333 4.5 22s15.166 7 32.499 7l-5 54h-230l-13 -54c16.667 0 26.5 -2.5 29.5 -7.5s2.16699 -12.833 -2.5 -23.5l-208 -434
c-4.66699 -10 -8.83398 -17.833 -12.501 -23.5s-7.66699 -10 -12 -13s-9.33301 -4.83301 -15 -5.5s-12.5 -1 -20.5 -1l8 -54h157l13 54c-17.333 0 -28.166 2.33301 -32.499 7s-2.16602 16.667 6.50098 36l40 83h199l10 -83c1.33301 -18 -0.333984 -29.667 -5.00098 -35
s-16.334 -8 -35.001 -8l8 -54h169zM344.002 261h-157.002l102 216c4 9.33301 8.66699 21.5 14 36.5l13 37.5c3.33301 10 5.33301 15.667 6 17c0 -1.33301 -0.166992 -7 -0.5 -17s-0.666016 -22.5 -0.999023 -37.5s-0.166016 -27.167 0.500977 -36.5zM488 733
c2.66699 12 0.166992 22.667 -7.5 32s-17.834 14 -30.501 14s-24.334 -4.66699 -35.001 -14s-17 -20 -19 -32c-2.66699 -13.333 -0.166992 -24.333 7.5 -33s17.834 -13 30.501 -13s24.334 4.33301 35.001 13s17 19.667 19 33zM306 733c2.66699 12 0.166992 22.667 -7.5 32
s-17.834 14 -30.501 14s-24.334 -4.66699 -35.001 -14s-17 -20 -19 -32c-2.66699 -13.333 -0.166992 -24.333 7.5 -33s17.834 -13 30.501 -13s24.334 4.33301 35.001 13s17 19.667 19 33z" />
    <glyph glyph-name="Aring" unicode="&#xc5;" horiz-adv-x="532" 
d="M510 54c-15.333 0 -25.998 2.33301 -31.998 7s-10.667 16.667 -14 36l-53 436c-1.33301 10 0.166992 17.333 4.5 22s15.166 7 32.499 7l-5 54h-230l-13 -54c16.667 0 26.5 -2.5 29.5 -7.5s2.16699 -12.833 -2.5 -23.5l-208 -434
c-4.66699 -10 -8.83398 -17.833 -12.501 -23.5s-7.66699 -10 -12 -13s-9.33301 -4.83301 -15 -5.5s-12.5 -1 -20.5 -1l8 -54h157l13 54c-17.333 0 -28.166 2.33301 -32.499 7s-2.16602 16.667 6.50098 36l40 83h199l10 -83c1.33301 -18 -0.333984 -29.667 -5.00098 -35
s-16.334 -8 -35.001 -8l8 -54h169zM344.002 261h-157.002l102 216c4 9.33301 8.66699 21.5 14 36.5l13 37.5c3.33301 10 5.33301 15.667 6 17c0 -1.33301 -0.166992 -7 -0.5 -17s-0.666016 -22.5 -0.999023 -37.5s-0.166016 -27.167 0.500977 -36.5zM461 773
c2.66699 14.667 2.50098 28.334 -0.499023 41.001s-8.5 23.834 -16.5 33.501s-17.833 17.167 -29.5 22.5s-24.5 8 -38.5 8c-14.667 0 -28.834 -2.66699 -42.501 -8s-26.167 -12.833 -37.5 -22.5s-20.833 -20.834 -28.5 -33.501s-12.5 -26.334 -14.5 -41.001
c-2.66699 -14 -2.33398 -27.333 0.999023 -40s9 -23.834 17 -33.501s17.833 -17.167 29.5 -22.5s24.5 -8 38.5 -8c14.667 0 28.834 2.66699 42.501 8s26 12.833 37 22.5s20.167 20.834 27.5 33.501s12.333 26 15 40zM413.001 773c-3.33301 -15.333 -11.333 -28.333 -24 -39
s-26.667 -16 -42 -16s-27.666 5.33301 -36.999 16s-12.333 23.667 -9 39s11.333 28.5 24 39.5s26.667 16.5 42 16.5s27.666 -5.5 36.999 -16.5s12.333 -24.167 9 -39.5z" />
    <glyph glyph-name="AE" unicode="&#xc6;" horiz-adv-x="700" 
d="M706 616l-493 0.000976562l-13 -54c16.667 0 26.5 -2.5 29.5 -7.5s2.16699 -12.833 -2.5 -23.5l-208 -434c-4.66699 -10 -8.83398 -17.833 -12.501 -23.5s-7.66699 -10 -12 -13s-9.33301 -4.83301 -15 -5.5s-12.5 -1 -20.5 -1l8 -54h157l13 54
c-17.333 0 -28.166 2.33301 -32.499 7s-2.16602 16.667 6.50098 36l40 83h199l10 -83c1.33301 -18 -0.333984 -29.667 -5.00098 -35s-16.334 -8 -35.001 -8l8 -54h302l23 127l-45 12c-6.66699 -23.333 -14.5 -39.5 -23.5 -48.5s-23.833 -13.5 -44.5 -13.5h-73l-26 203h176
l14 78h-198l-23 182h156c16.667 0 30 -0.833008 40 -2.5s17.5 -4.83398 22.5 -9.50098s7.83301 -11 8.5 -19s0.333984 -18 -0.999023 -30l48 12zM344 261.001h-157.002l102 216c4 9.33301 8.66699 21.5 14 36.5l13 37.5c3.33301 10 5.33301 15.667 6 17
c0 -1.33301 -0.166992 -7 -0.5 -17s-0.666016 -22.5 -0.999023 -37.5s-0.166016 -27.167 0.500977 -36.5z" />
    <glyph glyph-name="Ccedilla" unicode="&#xc7;" horiz-adv-x="489" 
d="M525 564c-4.66699 4 -12.001 9.49707 -22.001 16.4971s-22.5 13.833 -37.5 20.5s-32 12.5 -51 17.5s-40.167 7.5 -63.5 7.5c-75.333 0 -139.166 -26.167 -191.499 -78.5s-87.166 -128.166 -104.499 -227.499c-8.66699 -48.667 -10.834 -92.167 -6.50098 -130.5
s13.5 -71.166 27.5 -98.499s32.167 -49 54.5 -65s47.833 -26.667 76.5 -32l-32 -100h23c12.667 0 23.5 -2.16699 32.5 -6.5s12.5 -12.166 10.5 -23.499c-2 -10.667 -7.83301 -18.167 -17.5 -22.5s-20.834 -6.5 -33.501 -6.5c-4.66699 0 -10.5 0.666992 -17.5 2
s-14.167 3.33301 -21.5 6s-14.5 5.83398 -21.5 9.50098s-12.833 7.5 -17.5 11.5l-10 -55c12 -6 23.833 -11.333 35.5 -16s26.834 -7 45.501 -7c31.333 0 58.166 7.16699 80.499 21.5s35.833 34.833 40.5 61.5c3.33301 18 -1 34.167 -13 48.5s-29.333 22.166 -52 23.499
l15 49c42 0.666992 77.333 7.33398 106 20.001s53.667 26.667 75 42l-4 122h-36c-13.333 -34.667 -30.666 -59.5 -51.999 -74.5s-46 -22.5 -74 -22.5c-24.667 0 -45.167 5.66699 -61.5 17s-28.833 27.166 -37.5 47.499s-13.334 45 -14.001 74s2.33301 61.5 9 97.5
c12.667 70.667 34.334 126 65.001 166s70.667 60 120 60c27.333 0 49.5 -6.83301 66.5 -20.5s26.167 -38.5 27.5 -74.5h34z" />
    <glyph glyph-name="Egrave" unicode="&#xc8;" horiz-adv-x="465" 
d="M472 616l-353.002 0.000976562l-13 -54c17.333 0 28.333 -3.5 33 -10.5s5.33398 -19.167 2.00098 -36.5l-74 -414c-3.33301 -17.333 -8.33301 -29.5 -15 -36.5s-18.667 -10.5 -36 -10.5l8 -54h372l23 127l-46 12c-6.66699 -23.333 -14.5 -39.5 -23.5 -48.5
s-23.5 -13.5 -43.5 -13.5h-137l36 203h178l14 78h-178l32 182h81c16.667 0 30 -0.833008 40 -2.5s17.5 -4.83398 22.5 -9.50098s7.83301 -11 8.5 -19s0.333984 -18 -0.999023 -30l48 12zM388.998 669.001l-101 137h-103l141 -137h63z" />
    <glyph glyph-name="Eacute" unicode="&#xc9;" horiz-adv-x="465" 
d="M472 616l-353.002 0.000976562l-13 -54c17.333 0 28.333 -3.5 33 -10.5s5.33398 -19.167 2.00098 -36.5l-74 -414c-3.33301 -17.333 -8.33301 -29.5 -15 -36.5s-18.667 -10.5 -36 -10.5l8 -54h372l23 127l-46 12c-6.66699 -23.333 -14.5 -39.5 -23.5 -48.5
s-23.5 -13.5 -43.5 -13.5h-137l36 203h178l14 78h-178l32 182h81c16.667 0 30 -0.833008 40 -2.5s17.5 -4.83398 22.5 -9.50098s7.83301 -11 8.5 -19s0.333984 -18 -0.999023 -30l48 12zM488.998 806.001h-108l-139 -137h62z" />
    <glyph glyph-name="Ecircumflex" unicode="&#xca;" horiz-adv-x="465" 
d="M472 616l-353.002 0.000976562l-13 -54c17.333 0 28.333 -3.5 33 -10.5s5.33398 -19.167 2.00098 -36.5l-74 -414c-3.33301 -17.333 -8.33301 -29.5 -15 -36.5s-18.667 -10.5 -36 -10.5l8 -54h372l23 127l-46 12c-6.66699 -23.333 -14.5 -39.5 -23.5 -48.5
s-23.5 -13.5 -43.5 -13.5h-137l36 203h178l14 78h-178l32 182h81c16.667 0 30 -0.833008 40 -2.5s17.5 -4.83398 22.5 -9.50098s7.83301 -11 8.5 -19s0.333984 -18 -0.999023 -30l48 12zM467.998 669.001l-110 148h-32l-162 -148h65l104 78l77 -78h58z" />
    <glyph glyph-name="Edieresis" unicode="&#xcb;" horiz-adv-x="465" 
d="M472 616l-353.002 0.000976562l-13 -54c17.333 0 28.333 -3.5 33 -10.5s5.33398 -19.167 2.00098 -36.5l-74 -414c-3.33301 -17.333 -8.33301 -29.5 -15 -36.5s-18.667 -10.5 -36 -10.5l8 -54h372l23 127l-46 12c-6.66699 -23.333 -14.5 -39.5 -23.5 -48.5
s-23.5 -13.5 -43.5 -13.5h-137l36 203h178l14 78h-178l32 182h81c16.667 0 30 -0.833008 40 -2.5s17.5 -4.83398 22.5 -9.50098s7.83301 -11 8.5 -19s0.333984 -18 -0.999023 -30l48 12zM461.998 733.001c2.66699 12 0.166992 22.667 -7.5 32s-17.834 14 -30.501 14
s-24.334 -4.66699 -35.001 -14s-17 -20 -19 -32c-2.66699 -13.333 -0.166992 -24.333 7.5 -33s17.834 -13 30.501 -13s24.334 4.33301 35.001 13s17 19.667 19 33zM279.998 733.001c2.66699 12 0.166992 22.667 -7.5 32s-17.834 14 -30.501 14s-24.334 -4.66699 -35.001 -14
s-17 -20 -19 -32c-2.66699 -13.333 -0.166992 -24.333 7.5 -33s17.834 -13 30.501 -13s24.334 4.33301 35.001 13s17 19.667 19 33z" />
    <glyph glyph-name="Igrave" unicode="&#xcc;" horiz-adv-x="292" 
d="M301 562l-7 54h-172l-13 -54c17.333 0 28.333 -3.5 33 -10.5s5.33398 -19.167 2.00098 -36.5l-73 -414c-3.33301 -17.333 -8.33301 -29.5 -15 -36.5s-18.667 -10.5 -36 -10.5l7 -54h172l13 54c-17.333 0 -28.333 3.5 -33 10.5s-5.33398 19.167 -2.00098 36.5l73 414
c3.33301 17.333 8.33301 29.5 15 36.5s18.667 10.5 36 10.5zM299 669l-101 137h-103l141 -137h63z" />
    <glyph glyph-name="Iacute" unicode="&#xcd;" horiz-adv-x="292" 
d="M301 562l-7 54h-172l-13 -54c17.333 0 28.333 -3.5 33 -10.5s5.33398 -19.167 2.00098 -36.5l-73 -414c-3.33301 -17.333 -8.33301 -29.5 -15 -36.5s-18.667 -10.5 -36 -10.5l7 -54h172l13 54c-17.333 0 -28.333 3.5 -33 10.5s-5.33398 19.167 -2.00098 36.5l73 414
c3.33301 17.333 8.33301 29.5 15 36.5s18.667 10.5 36 10.5zM397 806h-108l-139 -137h62z" />
    <glyph glyph-name="Icircumflex" unicode="&#xce;" horiz-adv-x="292" 
d="M301 562l-7 54h-172l-13 -54c17.333 0 28.333 -3.5 33 -10.5s5.33398 -19.167 2.00098 -36.5l-73 -414c-3.33301 -17.333 -8.33301 -29.5 -15 -36.5s-18.667 -10.5 -36 -10.5l7 -54h172l13 54c-17.333 0 -28.333 3.5 -33 10.5s-5.33398 19.167 -2.00098 36.5l73 414
c3.33301 17.333 8.33301 29.5 15 36.5s18.667 10.5 36 10.5zM375 669l-110 148h-32l-162 -148h65l104 78l77 -78h58z" />
    <glyph glyph-name="Idieresis" unicode="&#xcf;" horiz-adv-x="292" 
d="M301 562l-7 54h-172l-13 -54c17.333 0 28.333 -3.5 33 -10.5s5.33398 -19.167 2.00098 -36.5l-73 -414c-3.33301 -17.333 -8.33301 -29.5 -15 -36.5s-18.667 -10.5 -36 -10.5l7 -54h172l13 54c-17.333 0 -28.333 3.5 -33 10.5s-5.33398 19.167 -2.00098 36.5l73 414
c3.33301 17.333 8.33301 29.5 15 36.5s18.667 10.5 36 10.5zM371 733c2.66699 12 0.166992 22.667 -7.5 32s-17.834 14 -30.501 14s-24.334 -4.66699 -35.001 -14s-17 -20 -19 -32c-2.66699 -13.333 -0.166992 -24.333 7.5 -33s17.834 -13 30.501 -13
s24.334 4.33301 35.001 13s17 19.667 19 33zM189 733c2.66699 12 0.166992 22.667 -7.5 32s-17.834 14 -30.501 14s-24.334 -4.66699 -35.001 -14s-17 -20 -19 -32c-2.66699 -13.333 -0.166992 -24.333 7.5 -33s17.834 -13 30.501 -13s24.334 4.33301 35.001 13
s17 19.667 19 33z" />
    <glyph glyph-name="Eth" unicode="&#xd0;" horiz-adv-x="575" 
d="M223 358l31.999 178.002h72c54 0 90.167 -19.833 108.5 -59.5s20.833 -95.834 7.5 -168.501c-12.667 -72.667 -35.167 -128.834 -67.5 -168.501s-75.166 -59.5 -128.499 -59.5h-73l36 204h103l13 74h-103zM103.999 284.002l-32.001 -183
c-3.33301 -17.333 -8.5 -29.5 -15.5 -36.5s-19.167 -10.5 -36.5 -10.5l8 -54h212c85.333 0 153.833 26 205.5 78s86.5 128 104.5 228c18 101.333 8.66699 178.333 -28 231s-97.667 79 -183 79h-216l-13 -54c17.333 0 28.333 -3.5 33 -10.5s5.33398 -19.167 2.00098 -36.5
l-28 -157h-71l-13 -74h71z" />
    <glyph glyph-name="Ntilde" unicode="&#xd1;" horiz-adv-x="589" 
d="M608 562l-7 53.9971h-153l-13 -54c17.333 0 28.333 -3.5 33 -10.5s5.33398 -19.167 2.00098 -36.5l-46 -260c-1.33301 -8.66699 -2.83301 -19.5 -4.5 -32.5l-4 -32c-1 -8.33301 -1.5 -13.166 -1.5 -14.499c0 1.33301 -0.833008 6 -2.5 14s-4.16699 18 -7.5 30
s-6.33301 22 -9 30l-143 366h-134l-13 -54c17.333 0 28.333 -3.5 33 -10.5s5.33398 -19.167 2.00098 -36.5l-74 -414c-3.33301 -17.333 -8.33301 -29.5 -15 -36.5s-18.667 -10.5 -36 -10.5l8 -54h153l13 54c-17.333 0 -28.166 3.5 -32.499 10.5s-4.83301 19.167 -1.5 36.5
l51 292c1.33301 7.33301 2.66602 17.333 3.99902 30s2.5 23.334 3.5 32.001s1.5 13.667 1.5 15c0 -1.33301 1 -6.16602 3 -14.499l7.5 -30.5c3 -12 5.83301 -21.333 8.5 -28l158 -401h74l92 519c3.33301 17.333 8.16602 29.5 14.499 36.5s18.166 10.5 35.499 10.5z
M535 788.997l-39.999 -0.00195312c-4 -19.333 -9.66699 -33.166 -17 -41.499s-16.666 -12.5 -27.999 -12.5c-10 0 -19.5 3.16699 -28.5 9.5s-18.167 13.333 -27.5 21s-19.166 14.667 -29.499 21s-21.5 9.5 -33.5 9.5c-26.667 0 -48 -10.667 -64 -32
s-27.333 -50.666 -34 -87.999h40c4.66699 18 10.5 31.667 17.5 41s16.5 14 28.5 14c9.33301 0 18.666 -3.16699 27.999 -9.5s18.666 -13.333 27.999 -21s19.166 -14.667 29.499 -21s21.5 -9.5 33.5 -9.5c24 0 44.333 9.66699 61 29s28.667 49.333 36 90z" />
    <glyph glyph-name="Ograve" unicode="&#xd2;" horiz-adv-x="569" 
d="M544 298c9.33301 54.667 11.333 102.335 6 143.002s-16.666 74.667 -33.999 102s-40.166 47.833 -68.499 61.5s-60.833 20.5 -97.5 20.5c-36 0 -70 -6.5 -102 -19.5s-60.833 -32.5 -86.5 -58.5s-47.667 -58.167 -66 -96.5s-31.833 -82.5 -40.5 -132.5
c-9.33301 -54 -11.333 -101.333 -6 -142s16.666 -74.834 33.999 -102.501s40.166 -48.334 68.499 -62.001s60.5 -20.5 96.5 -20.5c36.667 0 71 6.5 103 19.5s61 32.5 87 58.5s48 58.167 66 96.5s31.333 82.5 40 132.5zM435 308.001
c-13.333 -76.667 -34.999 -134.334 -64.999 -173.001s-67 -58 -111 -58s-74.333 19.333 -91 58s-18.334 96.334 -5.00098 173.001c14 77.333 36 135.166 66 173.499s67 57.5 111 57.5s74.333 -19.167 91 -57.5s18 -96.166 4 -173.499zM430.001 669.001l-101 137h-103
l141 -137h63z" />
    <glyph glyph-name="Oacute" unicode="&#xd3;" horiz-adv-x="569" 
d="M544 298c9.33301 54.667 11.333 102.335 6 143.002s-16.666 74.667 -33.999 102s-40.166 47.833 -68.499 61.5s-60.833 20.5 -97.5 20.5c-36 0 -70 -6.5 -102 -19.5s-60.833 -32.5 -86.5 -58.5s-47.667 -58.167 -66 -96.5s-31.833 -82.5 -40.5 -132.5
c-9.33301 -54 -11.333 -101.333 -6 -142s16.666 -74.834 33.999 -102.501s40.166 -48.334 68.499 -62.001s60.5 -20.5 96.5 -20.5c36.667 0 71 6.5 103 19.5s61 32.5 87 58.5s48 58.167 66 96.5s31.333 82.5 40 132.5zM435 308.001
c-13.333 -76.667 -34.999 -134.334 -64.999 -173.001s-67 -58 -111 -58s-74.333 19.333 -91 58s-18.334 96.334 -5.00098 173.001c14 77.333 36 135.166 66 173.499s67 57.5 111 57.5s74.333 -19.167 91 -57.5s18 -96.166 4 -173.499zM527.001 806.001h-108l-139 -137h62z
" />
    <glyph glyph-name="Ocircumflex" unicode="&#xd4;" horiz-adv-x="569" 
d="M544 298c9.33301 54.667 11.333 102.335 6 143.002s-16.666 74.667 -33.999 102s-40.166 47.833 -68.499 61.5s-60.833 20.5 -97.5 20.5c-36 0 -70 -6.5 -102 -19.5s-60.833 -32.5 -86.5 -58.5s-47.667 -58.167 -66 -96.5s-31.833 -82.5 -40.5 -132.5
c-9.33301 -54 -11.333 -101.333 -6 -142s16.666 -74.834 33.999 -102.501s40.166 -48.334 68.499 -62.001s60.5 -20.5 96.5 -20.5c36.667 0 71 6.5 103 19.5s61 32.5 87 58.5s48 58.167 66 96.5s31.333 82.5 40 132.5zM435 308.001
c-13.333 -76.667 -34.999 -134.334 -64.999 -173.001s-67 -58 -111 -58s-74.333 19.333 -91 58s-18.334 96.334 -5.00098 173.001c14 77.333 36 135.166 66 173.499s67 57.5 111 57.5s74.333 -19.167 91 -57.5s18 -96.166 4 -173.499zM512.001 669.001l-110 148h-32
l-162 -148h65l104 78l77 -78h58z" />
    <glyph glyph-name="Otilde" unicode="&#xd5;" horiz-adv-x="569" 
d="M544 298c9.33301 54.667 11.333 102.335 6 143.002s-16.666 74.667 -33.999 102s-40.166 47.833 -68.499 61.5s-60.833 20.5 -97.5 20.5c-36 0 -70 -6.5 -102 -19.5s-60.833 -32.5 -86.5 -58.5s-47.667 -58.167 -66 -96.5s-31.833 -82.5 -40.5 -132.5
c-9.33301 -54 -11.333 -101.333 -6 -142s16.666 -74.834 33.999 -102.501s40.166 -48.334 68.499 -62.001s60.5 -20.5 96.5 -20.5c36.667 0 71 6.5 103 19.5s61 32.5 87 58.5s48 58.167 66 96.5s31.333 82.5 40 132.5zM435 308.001
c-13.333 -76.667 -34.999 -134.334 -64.999 -173.001s-67 -58 -111 -58s-74.333 19.333 -91 58s-18.334 96.334 -5.00098 173.001c14 77.333 36 135.166 66 173.499s67 57.5 111 57.5s74.333 -19.167 91 -57.5s18 -96.166 4 -173.499zM527.001 790.001l-39.999 -0.00195312
c-4 -19.333 -9.66699 -33.166 -17 -41.499s-16.666 -12.5 -27.999 -12.5c-10 0 -19.5 3.16699 -28.5 9.5s-18.167 13.333 -27.5 21s-19.166 14.667 -29.499 21s-21.5 9.5 -33.5 9.5c-26.667 0 -48 -10.667 -64 -32s-27.333 -50.666 -34 -87.999h40
c4.66699 18 10.5 31.667 17.5 41s16.5 14 28.5 14c9.33301 0 18.666 -3.16699 27.999 -9.5s18.666 -13.333 27.999 -21s19.166 -14.667 29.499 -21s21.5 -9.5 33.5 -9.5c24 0 44.333 9.66699 61 29s28.667 49.333 36 90z" />
    <glyph glyph-name="Odieresis" unicode="&#xd6;" horiz-adv-x="569" 
d="M544 298c9.33301 54.667 11.333 102.335 6 143.002s-16.666 74.667 -33.999 102s-40.166 47.833 -68.499 61.5s-60.833 20.5 -97.5 20.5c-36 0 -70 -6.5 -102 -19.5s-60.833 -32.5 -86.5 -58.5s-47.667 -58.167 -66 -96.5s-31.833 -82.5 -40.5 -132.5
c-9.33301 -54 -11.333 -101.333 -6 -142s16.666 -74.834 33.999 -102.501s40.166 -48.334 68.499 -62.001s60.5 -20.5 96.5 -20.5c36.667 0 71 6.5 103 19.5s61 32.5 87 58.5s48 58.167 66 96.5s31.333 82.5 40 132.5zM435 308.001
c-13.333 -76.667 -34.999 -134.334 -64.999 -173.001s-67 -58 -111 -58s-74.333 19.333 -91 58s-18.334 96.334 -5.00098 173.001c14 77.333 36 135.166 66 173.499s67 57.5 111 57.5s74.333 -19.167 91 -57.5s18 -96.166 4 -173.499zM508.001 733.001
c2.66699 12 0.166992 22.667 -7.5 32s-17.834 14 -30.501 14s-24.334 -4.66699 -35.001 -14s-17 -20 -19 -32c-2.66699 -13.333 -0.166992 -24.333 7.5 -33s17.834 -13 30.501 -13s24.334 4.33301 35.001 13s17 19.667 19 33zM326.001 733.001
c2.66699 12 0.166992 22.667 -7.5 32s-17.834 14 -30.501 14s-24.334 -4.66699 -35.001 -14s-17 -20 -19 -32c-2.66699 -13.333 -0.166992 -24.333 7.5 -33s17.834 -13 30.501 -13s24.334 4.33301 35.001 13s17 19.667 19 33z" />
    <glyph glyph-name="multiply" unicode="&#xd7;" horiz-adv-x="454" 
d="M442 397l-47 57l-152 -129l-105 127l-63 -55l104 -126l-152 -130l47 -57l153 130l104 -129l64 55l-105 128z" />
    <glyph glyph-name="Oslash" unicode="&#xd8;" horiz-adv-x="569" 
d="M441 448c3.33301 -18 4.66699 -38.667 4 -62s-3.66699 -49.333 -9 -78c-14 -76.667 -36.167 -134.667 -66.5 -174s-67.5 -59 -111.5 -59c-39.333 0 -68 15.667 -86 47zM157.001 168c-6.66699 35.333 -4.99902 82 5.00098 140c13.333 77.333 35.333 135.5 66 174.5
s68 58.5 112 58.5c39.333 0 67.666 -15.667 84.999 -47zM81.002 75l-81.001 -97.999h53l54 66c17.333 -17.333 38 -30.333 62 -39s50.333 -13 79 -13c36 0 70.167 6.5 102.5 19.5s61.333 32.5 87 58.5s47.667 58.167 66 96.5s31.833 82.5 40.5 132.5
c9.33301 54 11.5 101.167 6.5 141.5s-16.167 74.166 -33.5 101.499l81 98h-53l-54 -65c-17.333 17.333 -38 30.166 -62 38.499s-50.333 12.5 -79 12.5c-36 0 -70 -6.5 -102 -19.5s-60.833 -32.5 -86.5 -58.5s-47.667 -58.167 -66 -96.5s-32.166 -82.5 -41.499 -132.5
c-9.33301 -53.333 -11.5 -100.166 -6.5 -140.499s16.167 -74.5 33.5 -102.5z" />
    <glyph glyph-name="Ugrave" unicode="&#xd9;" horiz-adv-x="581" 
d="M604 562l-7.99707 54h-163l-12 -54c17.333 0 28.166 -3.5 32.499 -10.5s4.83301 -19.167 1.5 -36.5l-54 -299c-2.66699 -17.333 -7.33398 -34.166 -14.001 -50.499s-15.334 -30.833 -26.001 -43.5s-23.667 -22.834 -39 -30.501s-33.333 -11.5 -54 -11.5
s-37.334 3.83301 -50.001 11.5s-22.167 17.834 -28.5 30.501s-9.66602 27.167 -9.99902 43.5s0.833984 33.166 3.50098 50.499l53 299c3.33301 17.333 8.5 29.5 15.5 36.5s19.167 10.5 36.5 10.5l-8 54h-173l-12 -54c17.333 0 28.166 -3.5 32.499 -10.5
s4.83301 -19.167 1.5 -36.5l-53 -298c-6 -32.667 -6.66699 -62.834 -2 -90.501s14.5 -51.5 29.5 -71.5s35 -35.667 60 -47s55.5 -17 91.5 -17c34.667 0 65.834 5.66699 93.501 17s51.667 27 72 47s37.166 43.833 50.499 71.5s23 57.834 29 90.501l53 298
c3.33301 17.333 8.33301 29.5 15 36.5s18.667 10.5 36 10.5zM429.003 669l-101 137h-103l141 -137h63z" />
    <glyph glyph-name="Uacute" unicode="&#xda;" horiz-adv-x="581" 
d="M604 562l-7.99707 54h-163l-12 -54c17.333 0 28.166 -3.5 32.499 -10.5s4.83301 -19.167 1.5 -36.5l-54 -299c-2.66699 -17.333 -7.33398 -34.166 -14.001 -50.499s-15.334 -30.833 -26.001 -43.5s-23.667 -22.834 -39 -30.501s-33.333 -11.5 -54 -11.5
s-37.334 3.83301 -50.001 11.5s-22.167 17.834 -28.5 30.501s-9.66602 27.167 -9.99902 43.5s0.833984 33.166 3.50098 50.499l53 299c3.33301 17.333 8.5 29.5 15.5 36.5s19.167 10.5 36.5 10.5l-8 54h-173l-12 -54c17.333 0 28.166 -3.5 32.499 -10.5
s4.83301 -19.167 1.5 -36.5l-53 -298c-6 -32.667 -6.66699 -62.834 -2 -90.501s14.5 -51.5 29.5 -71.5s35 -35.667 60 -47s55.5 -17 91.5 -17c34.667 0 65.834 5.66699 93.501 17s51.667 27 72 47s37.166 43.833 50.499 71.5s23 57.834 29 90.501l53 298
c3.33301 17.333 8.33301 29.5 15 36.5s18.667 10.5 36 10.5zM541.003 806h-108l-139 -137h62z" />
    <glyph glyph-name="Ucircumflex" unicode="&#xdb;" horiz-adv-x="581" 
d="M604 562l-7.99707 54h-163l-12 -54c17.333 0 28.166 -3.5 32.499 -10.5s4.83301 -19.167 1.5 -36.5l-54 -299c-2.66699 -17.333 -7.33398 -34.166 -14.001 -50.499s-15.334 -30.833 -26.001 -43.5s-23.667 -22.834 -39 -30.501s-33.333 -11.5 -54 -11.5
s-37.334 3.83301 -50.001 11.5s-22.167 17.834 -28.5 30.501s-9.66602 27.167 -9.99902 43.5s0.833984 33.166 3.50098 50.499l53 299c3.33301 17.333 8.5 29.5 15.5 36.5s19.167 10.5 36.5 10.5l-8 54h-173l-12 -54c17.333 0 28.166 -3.5 32.499 -10.5
s4.83301 -19.167 1.5 -36.5l-53 -298c-6 -32.667 -6.66699 -62.834 -2 -90.501s14.5 -51.5 29.5 -71.5s35 -35.667 60 -47s55.5 -17 91.5 -17c34.667 0 65.834 5.66699 93.501 17s51.667 27 72 47s37.166 43.833 50.499 71.5s23 57.834 29 90.501l53 298
c3.33301 17.333 8.33301 29.5 15 36.5s18.667 10.5 36 10.5zM521.003 669l-110 148h-32l-162 -148h65l104 78l77 -78h58z" />
    <glyph glyph-name="Udieresis" unicode="&#xdc;" horiz-adv-x="581" 
d="M604 562l-7.99707 54h-163l-12 -54c17.333 0 28.166 -3.5 32.499 -10.5s4.83301 -19.167 1.5 -36.5l-54 -299c-2.66699 -17.333 -7.33398 -34.166 -14.001 -50.499s-15.334 -30.833 -26.001 -43.5s-23.667 -22.834 -39 -30.501s-33.333 -11.5 -54 -11.5
s-37.334 3.83301 -50.001 11.5s-22.167 17.834 -28.5 30.501s-9.66602 27.167 -9.99902 43.5s0.833984 33.166 3.50098 50.499l53 299c3.33301 17.333 8.5 29.5 15.5 36.5s19.167 10.5 36.5 10.5l-8 54h-173l-12 -54c17.333 0 28.166 -3.5 32.499 -10.5
s4.83301 -19.167 1.5 -36.5l-53 -298c-6 -32.667 -6.66699 -62.834 -2 -90.501s14.5 -51.5 29.5 -71.5s35 -35.667 60 -47s55.5 -17 91.5 -17c34.667 0 65.834 5.66699 93.501 17s51.667 27 72 47s37.166 43.833 50.499 71.5s23 57.834 29 90.501l53 298
c3.33301 17.333 8.33301 29.5 15 36.5s18.667 10.5 36 10.5zM517.003 733c2.66699 12 0.166992 22.667 -7.5 32s-17.834 14 -30.501 14s-24.334 -4.66699 -35.001 -14s-17 -20 -19 -32c-2.66699 -13.333 -0.166992 -24.333 7.5 -33s17.834 -13 30.501 -13
s24.334 4.33301 35.001 13s17 19.667 19 33zM335.003 733c2.66699 12 0.166992 22.667 -7.5 32s-17.834 14 -30.501 14s-24.334 -4.66699 -35.001 -14s-17 -20 -19 -32c-2.66699 -13.333 -0.166992 -24.333 7.5 -33s17.834 -13 30.501 -13s24.334 4.33301 35.001 13
s17 19.667 19 33z" />
    <glyph glyph-name="Yacute" unicode="&#xdd;" horiz-adv-x="501" 
d="M574 562l-6.99609 54h-163l-13 -54c33.333 0 39.666 -14.333 18.999 -43l-138 -197l-67 197c-5.33301 16 -5.33301 27.167 0 33.5s16.666 9.5 33.999 9.5l-7 54h-176l-14 -54c15.333 0 26.166 -3.33301 32.499 -10s12.5 -17.667 18.5 -33l104 -282l-24 -136
c-3.33301 -18 -8.33301 -30.333 -15 -37s-18.667 -10 -36 -10l7 -54h172l13 54c-17.333 0 -28.333 3.33301 -33 10s-5.33398 19 -2.00098 37l24 136l204 282c11.333 16.667 21.333 28 30 34s21 9 37 9zM509.004 806h-108l-139 -137h62z" />
    <glyph glyph-name="Thorn" unicode="&#xde;" horiz-adv-x="483" 
d="M476 318c9.33301 51.333 -0.666992 92.666 -30 123.999s-76.333 47 -141 47h-60l5 26c3.33301 17.333 8.33301 29.5 15 36.5s18.667 10.5 36 10.5l-8 54h-171l-13 -54c17.333 0 28.333 -3.5 33 -10.5s5.33398 -19.167 2.00098 -36.5l-74 -414
c-3.33301 -17.333 -8.33301 -29.5 -15 -36.5s-18.667 -10.5 -36 -10.5l8 -54h171l13 54c-17.333 0 -28.333 3.5 -33 10.5s-5.33398 19.167 -2.00098 36.5l8 43h72c62 0 111.833 15.833 149.5 47.5s61.167 73.834 70.5 126.501zM368 318
c-5.33301 -30 -17.1689 -53.333 -35.502 -70s-45.166 -25 -80.499 -25h-54l33 187h48c37.333 0 62.833 -8.33301 76.5 -25s17.834 -39 12.501 -67z" />
    <glyph glyph-name="germandbls" unicode="&#xdf;" horiz-adv-x="492" 
d="M477 578c3.33301 20 2.33398 38.6689 -2.99902 56.002s-14.333 32.5 -27 45.5s-28.667 23.333 -48 31s-41.666 11.5 -66.999 11.5c-58.667 0 -106.334 -16.667 -143.001 -50s-60.667 -80.666 -72 -141.999l-94 -535c-4.66699 -29.333 -9.83398 -53.5 -15.501 -72.5
s-11.5 -34.167 -17.5 -45.5s-12.5 -19.166 -19.5 -23.499s-14.5 -6.5 -22.5 -6.5c-12.667 0 -21.667 4.16699 -27 12.5s-9 19.5 -11 33.5l-33 -7l-5 -104c69.333 -15.333 125.166 -2.66602 167.499 38.001s72.833 113 91.5 217l86 490
c7.33301 43.333 20.5 74.166 39.5 92.499s41.167 27.5 66.5 27.5c21.333 0 38 -6 50 -18s15.667 -30.333 11 -55c-2.66699 -15.333 -9 -29.5 -19 -42.5s-21.333 -25.5 -34 -37.5l-28 -25c-9.33301 -8.66699 -18.166 -17.834 -26.499 -27.501s-15.666 -20 -21.999 -31
s-10.833 -23.5 -13.5 -37.5c-6 -28.667 -3.5 -53.167 7.5 -73.5s26.167 -39.166 45.5 -56.499c26 -23.333 44.5 -44.5 55.5 -63.5s14.833 -39.833 11.5 -62.5c-3.33301 -19.333 -11 -34.5 -23 -45.5s-27 -16.5 -45 -16.5c-19.333 0 -32.666 5.83301 -39.999 17.5
s-7.33301 28.5 0 50.5h-48c-9.33301 -12 -15.333 -25 -18 -39c-5.33301 -30 1.66699 -53.833 21 -71.5s47.666 -26.5 84.999 -26.5c20 0 38.833 2.66699 56.5 8s33.667 13.5 48 24.5s26.5 25 36.5 42s17 36.833 21 59.5c3.33301 17.333 3.5 33.666 0.5 48.999
s-8.16699 29.833 -15.5 43.5s-16.5 26.5 -27.5 38.5s-22.833 23.333 -35.5 34c-17.333 15.333 -29.666 29.666 -36.999 42.999s-9.33301 28.666 -6 45.999c3.33301 15.333 11.166 29.166 23.499 41.499s26.166 25.5 41.499 39.5c16.667 15.333 32.5 32.5 47.5 51.5
s25.167 42.833 30.5 71.5z" />
    <glyph glyph-name="agrave" unicode="&#xe0;" horiz-adv-x="482" 
d="M364 525l-101 137h-103l141 -137h63zM466 77c-7.33301 -4.66699 -15.668 -8.83398 -25.001 -12.501s-17.666 -5.5 -24.999 -5.5c-14.667 0 -25.167 5.16699 -31.5 15.5s-6.83301 29.5 -1.5 57.5l28 156c8 45.333 16.167 82.5 24.5 111.5s14.833 49.5 19.5 61.5h-43
c-12.667 -7.33301 -24.667 -18.333 -36 -33s-21 -30 -29 -46c-6.66699 26.667 -19.334 47.834 -38.001 63.501s-42 23.5 -70 23.5c-22.667 0 -44.667 -4.83301 -66 -14.5s-40.833 -24.167 -58.5 -43.5s-33.167 -43.666 -46.5 -72.999s-23.666 -64 -30.999 -104
c-6.66699 -40 -8.66699 -75.167 -6 -105.5s9.5 -55.833 20.5 -76.5s25.5 -36.334 43.5 -47.001s38.333 -16 61 -16c25.333 0 49 6.33301 71 19s40.667 29.667 56 51c4 -25.333 13.833 -43 29.5 -53s34.167 -15 55.5 -15c20.667 0 38 2.83301 52 8.5s25.667 12.5 35 20.5z
M299.998 229c-10 -56.667 -24.668 -97.834 -44.001 -123.501s-41.666 -38.5 -66.999 -38.5c-24 0 -41.167 12.833 -51.5 38.5s-10.5 66.834 -0.5 123.501s24.333 97.834 43 123.501s40 38.5 64 38.5c25.333 0 43.5 -12.833 54.5 -38.5s11.5 -66.834 1.5 -123.501z" />
    <glyph glyph-name="aacute" unicode="&#xe1;" horiz-adv-x="482" 
d="M466 77c-7.33301 -4.66699 -15.668 -8.83398 -25.001 -12.501s-17.666 -5.5 -24.999 -5.5c-14.667 0 -25.167 5.16699 -31.5 15.5s-6.83301 29.5 -1.5 57.5l28 156c8 45.333 16.167 82.5 24.5 111.5s14.833 49.5 19.5 61.5h-43c-12.667 -7.33301 -24.667 -18.333 -36 -33
s-21 -30 -29 -46c-6.66699 26.667 -19.334 47.834 -38.001 63.501s-42 23.5 -70 23.5c-22.667 0 -44.667 -4.83301 -66 -14.5s-40.833 -24.167 -58.5 -43.5s-33.167 -43.666 -46.5 -72.999s-23.666 -64 -30.999 -104c-6.66699 -40 -8.66699 -75.167 -6 -105.5
s9.5 -55.833 20.5 -76.5s25.5 -36.334 43.5 -47.001s38.333 -16 61 -16c25.333 0 49 6.33301 71 19s40.667 29.667 56 51c4 -25.333 13.833 -43 29.5 -53s34.167 -15 55.5 -15c20.667 0 38 2.83301 52 8.5s25.667 12.5 35 20.5zM299.998 229
c-10 -56.667 -24.668 -97.834 -44.001 -123.501s-41.666 -38.5 -66.999 -38.5c-24 0 -41.167 12.833 -51.5 38.5s-10.5 66.834 -0.5 123.501s24.333 97.834 43 123.501s40 38.5 64 38.5c25.333 0 43.5 -12.833 54.5 -38.5s11.5 -66.834 1.5 -123.501zM463.997 662h-108
l-139 -137h62z" />
    <glyph glyph-name="acircumflex" unicode="&#xe2;" horiz-adv-x="482" 
d="M466 77c-7.33301 -4.66699 -15.668 -8.83398 -25.001 -12.501s-17.666 -5.5 -24.999 -5.5c-14.667 0 -25.167 5.16699 -31.5 15.5s-6.83301 29.5 -1.5 57.5l28 156c8 45.333 16.167 82.5 24.5 111.5s14.833 49.5 19.5 61.5h-43c-12.667 -7.33301 -24.667 -18.333 -36 -33
s-21 -30 -29 -46c-6.66699 26.667 -19.334 47.834 -38.001 63.501s-42 23.5 -70 23.5c-22.667 0 -44.667 -4.83301 -66 -14.5s-40.833 -24.167 -58.5 -43.5s-33.167 -43.666 -46.5 -72.999s-23.666 -64 -30.999 -104c-6.66699 -40 -8.66699 -75.167 -6 -105.5
s9.5 -55.833 20.5 -76.5s25.5 -36.334 43.5 -47.001s38.333 -16 61 -16c25.333 0 49 6.33301 71 19s40.667 29.667 56 51c4 -25.333 13.833 -43 29.5 -53s34.167 -15 55.5 -15c20.667 0 38 2.83301 52 8.5s25.667 12.5 35 20.5zM299.998 229
c-10 -56.667 -24.668 -97.834 -44.001 -123.501s-41.666 -38.5 -66.999 -38.5c-24 0 -41.167 12.833 -51.5 38.5s-10.5 66.834 -0.5 123.501s24.333 97.834 43 123.501s40 38.5 64 38.5c25.333 0 43.5 -12.833 54.5 -38.5s11.5 -66.834 1.5 -123.501zM442.997 525l-110 148
h-32l-162 -148h65l104 78l77 -78h58z" />
    <glyph glyph-name="atilde" unicode="&#xe3;" horiz-adv-x="482" 
d="M466 77c-7.33301 -4.66699 -15.668 -8.83398 -25.001 -12.501s-17.666 -5.5 -24.999 -5.5c-14.667 0 -25.167 5.16699 -31.5 15.5s-6.83301 29.5 -1.5 57.5l28 156c8 45.333 16.167 82.5 24.5 111.5s14.833 49.5 19.5 61.5h-43c-12.667 -7.33301 -24.667 -18.333 -36 -33
s-21 -30 -29 -46c-6.66699 26.667 -19.334 47.834 -38.001 63.501s-42 23.5 -70 23.5c-22.667 0 -44.667 -4.83301 -66 -14.5s-40.833 -24.167 -58.5 -43.5s-33.167 -43.666 -46.5 -72.999s-23.666 -64 -30.999 -104c-6.66699 -40 -8.66699 -75.167 -6 -105.5
s9.5 -55.833 20.5 -76.5s25.5 -36.334 43.5 -47.001s38.333 -16 61 -16c25.333 0 49 6.33301 71 19s40.667 29.667 56 51c4 -25.333 13.833 -43 29.5 -53s34.167 -15 55.5 -15c20.667 0 38 2.83301 52 8.5s25.667 12.5 35 20.5zM299.998 229
c-10 -56.667 -24.668 -97.834 -44.001 -123.501s-41.666 -38.5 -66.999 -38.5c-24 0 -41.167 12.833 -51.5 38.5s-10.5 66.834 -0.5 123.501s24.333 97.834 43 123.501s40 38.5 64 38.5c25.333 0 43.5 -12.833 54.5 -38.5s11.5 -66.834 1.5 -123.501zM452.997 645
l-39.999 -0.00195312c-4 -19.333 -9.66699 -33.166 -17 -41.499s-16.666 -12.5 -27.999 -12.5c-10 0 -19.5 3.16699 -28.5 9.5s-18.167 13.333 -27.5 21s-19.166 14.667 -29.499 21s-21.5 9.5 -33.5 9.5c-26.667 0 -48 -10.667 -64 -32s-27.333 -50.666 -34 -87.999h40
c4.66699 18 10.5 31.667 17.5 41s16.5 14 28.5 14c9.33301 0 18.666 -3.16699 27.999 -9.5s18.666 -13.333 27.999 -21s19.166 -14.667 29.499 -21s21.5 -9.5 33.5 -9.5c24 0 44.333 9.66699 61 29s28.667 49.333 36 90z" />
    <glyph glyph-name="adieresis" unicode="&#xe4;" horiz-adv-x="482" 
d="M466 77c-7.33301 -4.66699 -15.668 -8.83398 -25.001 -12.501s-17.666 -5.5 -24.999 -5.5c-14.667 0 -25.167 5.16699 -31.5 15.5s-6.83301 29.5 -1.5 57.5l28 156c8 45.333 16.167 82.5 24.5 111.5s14.833 49.5 19.5 61.5h-43c-12.667 -7.33301 -24.667 -18.333 -36 -33
s-21 -30 -29 -46c-6.66699 26.667 -19.334 47.834 -38.001 63.501s-42 23.5 -70 23.5c-22.667 0 -44.667 -4.83301 -66 -14.5s-40.833 -24.167 -58.5 -43.5s-33.167 -43.666 -46.5 -72.999s-23.666 -64 -30.999 -104c-6.66699 -40 -8.66699 -75.167 -6 -105.5
s9.5 -55.833 20.5 -76.5s25.5 -36.334 43.5 -47.001s38.333 -16 61 -16c25.333 0 49 6.33301 71 19s40.667 29.667 56 51c4 -25.333 13.833 -43 29.5 -53s34.167 -15 55.5 -15c20.667 0 38 2.83301 52 8.5s25.667 12.5 35 20.5zM299.998 229
c-10 -56.667 -24.668 -97.834 -44.001 -123.501s-41.666 -38.5 -66.999 -38.5c-24 0 -41.167 12.833 -51.5 38.5s-10.5 66.834 -0.5 123.501s24.333 97.834 43 123.501s40 38.5 64 38.5c25.333 0 43.5 -12.833 54.5 -38.5s11.5 -66.834 1.5 -123.501zM436.997 589
c2.66699 12 0.166992 22.667 -7.5 32s-17.834 14 -30.501 14s-24.334 -4.66699 -35.001 -14s-17 -20 -19 -32c-2.66699 -13.333 -0.166992 -24.333 7.5 -33s17.834 -13 30.501 -13s24.334 4.33301 35.001 13s17 19.667 19 33zM254.997 589
c2.66699 12 0.166992 22.667 -7.5 32s-17.834 14 -30.501 14s-24.334 -4.66699 -35.001 -14s-17 -20 -19 -32c-2.66699 -13.333 -0.166992 -24.333 7.5 -33s17.834 -13 30.501 -13s24.334 4.33301 35.001 13s17 19.667 19 33z" />
    <glyph glyph-name="aring" unicode="&#xe5;" horiz-adv-x="482" 
d="M466 77c-7.33301 -4.66699 -15.668 -8.83398 -25.001 -12.501s-17.666 -5.5 -24.999 -5.5c-14.667 0 -25.167 5.16699 -31.5 15.5s-6.83301 29.5 -1.5 57.5l28 156c8 45.333 16.167 82.5 24.5 111.5s14.833 49.5 19.5 61.5h-43c-12.667 -7.33301 -24.667 -18.333 -36 -33
s-21 -30 -29 -46c-6.66699 26.667 -19.334 47.834 -38.001 63.501s-42 23.5 -70 23.5c-22.667 0 -44.667 -4.83301 -66 -14.5s-40.833 -24.167 -58.5 -43.5s-33.167 -43.666 -46.5 -72.999s-23.666 -64 -30.999 -104c-6.66699 -40 -8.66699 -75.167 -6 -105.5
s9.5 -55.833 20.5 -76.5s25.5 -36.334 43.5 -47.001s38.333 -16 61 -16c25.333 0 49 6.33301 71 19s40.667 29.667 56 51c4 -25.333 13.833 -43 29.5 -53s34.167 -15 55.5 -15c20.667 0 38 2.83301 52 8.5s25.667 12.5 35 20.5zM299.998 229
c-10 -56.667 -24.668 -97.834 -44.001 -123.501s-41.666 -38.5 -66.999 -38.5c-24 0 -41.167 12.833 -51.5 38.5s-10.5 66.834 -0.5 123.501s24.333 97.834 43 123.501s40 38.5 64 38.5c25.333 0 43.5 -12.833 54.5 -38.5s11.5 -66.834 1.5 -123.501zM413.997 629
c2.66699 14.667 2.50098 28.334 -0.499023 41.001s-8.5 23.834 -16.5 33.501s-17.833 17.167 -29.5 22.5s-24.5 8 -38.5 8c-14.667 0 -28.834 -2.66699 -42.501 -8s-26.167 -12.833 -37.5 -22.5s-20.833 -20.834 -28.5 -33.501s-12.5 -26.334 -14.5 -41.001
c-2.66699 -14 -2.33398 -27.333 0.999023 -40s9 -23.834 17 -33.501s17.833 -17.167 29.5 -22.5s24.5 -8 38.5 -8c14.667 0 28.834 2.66699 42.501 8s26 12.833 37 22.5s20.167 20.834 27.5 33.501s12.333 26 15 40zM365.998 629c-3.33301 -15.333 -11.333 -28.333 -24 -39
s-26.667 -16 -42 -16s-27.666 5.33301 -36.999 16s-12.333 23.667 -9 39s11.333 28.5 24 39.5s26.667 16.5 42 16.5s27.666 -5.5 36.999 -16.5s12.333 -24.167 9 -39.5z" />
    <glyph glyph-name="ae" unicode="&#xe6;" horiz-adv-x="639" 
d="M625 334c3.33301 18.667 3.16992 36.165 -0.49707 52.498s-10.834 30.666 -21.501 42.999s-25 22 -43 29s-40 10.5 -66 10.5c-23.333 0 -46 -4.66699 -68 -14s-41.333 -21.666 -58 -36.999c-7.33301 15.333 -19.833 27.666 -37.5 36.999s-40.834 14 -69.501 14
c-18 0 -35.333 -1.66699 -52 -5s-32 -7.16602 -46 -11.499s-26.667 -9 -38 -14s-20.333 -9.5 -27 -13.5l-15 -80c16 9.33301 36.833 19.333 62.5 30s55.167 16 88.5 16c21.333 0 37 -5 47 -15s13.333 -26 10 -48l-6.5 -21c-2.33301 -7.33301 -4.16602 -14 -5.49902 -20
c-36 0 -69 -3.5 -99 -10.5s-56.333 -17.333 -79 -31s-41.334 -30.167 -56.001 -49.5s-24 -41.666 -28 -66.999c-2.66699 -17.333 -2.83398 -34.5 -0.500977 -51.5s8 -32 17 -45s21 -23.5 36 -31.5s33.5 -12 55.5 -12c26.667 0 53.167 7.16699 79.5 21.5
s52.5 34.166 78.5 59.499c13.333 -25.333 31.5 -45.166 54.5 -59.499s50.167 -21.5 81.5 -21.5c38 0 70.167 6.83301 96.5 20.5s46.5 29.5 60.5 47.5l14 78c-19.333 -20 -40.833 -36.667 -64.5 -50s-49.5 -20 -77.5 -20c-19.333 0 -35.333 3.66699 -48 11
s-22.5 17.5 -29.5 30.5s-11 28.667 -12 47s0.166992 38.833 3.5 61.5c40 -10.667 75.667 -14.167 107 -10.5s58 11.834 80 24.501s39.333 28.5 52 47.5s20.667 38.167 24 57.5zM538.004 339.998c-2 -12 -6.83594 -22.999 -14.5029 -32.999s-18.167 -17.833 -31.5 -23.5
s-29.666 -8.83398 -48.999 -9.50098s-41.666 2 -66.999 8c11.333 42 27.833 72 49.5 90s42.5 27 62.5 27c21.333 0 35.833 -5.66699 43.5 -17s9.83398 -25.333 6.50098 -42zM265.001 124.999c-15.333 -16.667 -32.501 -31.3311 -51.501 -43.998s-38.167 -19 -57.5 -19
c-21.333 0 -35.666 6.66699 -42.999 20s-9.33301 28.666 -6 45.999c5.33301 27.333 20.5 50 45.5 68s62.5 27 112.5 27c-3.33301 -18.667 -4.83301 -36.834 -4.5 -54.501s1.83301 -32.167 4.5 -43.5z" />
    <glyph glyph-name="ccedilla" unicode="&#xe7;" horiz-adv-x="372" 
d="M376 359c5.33301 32 -3.00195 58.3291 -25.002 78.9961s-53 31 -93 31c-56 0 -103.333 -20.167 -142 -60.5s-64.667 -97.5 -78 -171.5c-11.333 -67.333 -7.66602 -122.166 11.001 -164.499s48.667 -68.5 90 -78.5l-32 -100h23c12.667 0 23.5 -2.16699 32.5 -6.5
s12.5 -12.166 10.5 -23.499c-2 -10.667 -7.83301 -18.167 -17.5 -22.5s-20.834 -6.5 -33.501 -6.5c-4.66699 0 -10.5 0.666992 -17.5 2s-14.167 3.33301 -21.5 6s-14.5 5.83398 -21.5 9.50098s-12.833 7.5 -17.5 11.5l-10 -55c12 -6 23.833 -11.333 35.5 -16
s26.834 -7 45.501 -7c31.333 0 58.166 7.16699 80.499 21.5s35.833 34.833 40.5 61.5c3.33301 18 -1 34.167 -13 48.5s-29.333 22.166 -52 23.499l15 48c30 1.33301 56.333 8 79 20s39.667 25.667 51 41l14 78c-20.667 -19.333 -40.167 -33.666 -58.5 -42.999
s-38.166 -14 -59.499 -14c-34 0 -57.167 13.5 -69.5 40.5s-13.833 66.167 -4.5 117.5c9.33301 50 24 89 44 117s44.333 42 73 42c14 0 25.333 -2 34 -6s15 -9.16699 19 -15.5s5.83301 -13.666 5.5 -21.999s-2.16602 -16.5 -5.49902 -24.5h52c8 11.333 13.333 24.333 16 39z
" />
    <glyph glyph-name="egrave" unicode="&#xe8;" horiz-adv-x="410" 
d="M345 525l-101 137h-103l141 -137h63zM396 332c3.33301 18.667 3.16699 36.333 -0.5 53s-10.834 31.167 -21.501 43.5s-25 22.166 -43 29.499s-40 11 -66 11c-28 0 -54.333 -5.33301 -79 -16s-47 -26.167 -67 -46.5s-37.167 -44.833 -51.5 -73.5s-24.833 -61 -31.5 -97
c-6.66699 -36.667 -7.66699 -70.334 -3 -101.001s13.834 -56.667 27.501 -78s31.5 -38 53.5 -50s47.333 -18 76 -18c38 0 70.167 6.83301 96.5 20.5s46.833 29.5 61.5 47.5l14 80c-19.333 -19.333 -40.833 -35.833 -64.5 -49.5s-49.5 -20.5 -77.5 -20.5
c-38.667 0 -64.5 13.5 -77.5 40.5s-16.167 62.5 -9.5 106.5c40 -10.667 75.5 -14.167 106.5 -10.5s57.5 11.834 79.5 24.501s39.5 28.334 52.5 47.001s21.167 37.667 24.5 57zM308.001 338.999c-2 -12 -6.83496 -22.998 -14.502 -32.998s-18.167 -17.833 -31.5 -23.5
s-29.5 -8.83398 -48.5 -9.50098s-41.167 2 -66.5 8c11.333 41.333 27.833 71.166 49.5 89.499s42.5 27.5 62.5 27.5c20.667 0 34.834 -5.83301 42.501 -17.5s9.83398 -25.5 6.50098 -41.5z" />
    <glyph glyph-name="eacute" unicode="&#xe9;" horiz-adv-x="410" 
d="M396 332c3.33301 18.667 3.16699 36.333 -0.5 53s-10.834 31.167 -21.501 43.5s-25 22.166 -43 29.499s-40 11 -66 11c-28 0 -54.333 -5.33301 -79 -16s-47 -26.167 -67 -46.5s-37.167 -44.833 -51.5 -73.5s-24.833 -61 -31.5 -97
c-6.66699 -36.667 -7.66699 -70.334 -3 -101.001s13.834 -56.667 27.501 -78s31.5 -38 53.5 -50s47.333 -18 76 -18c38 0 70.167 6.83301 96.5 20.5s46.833 29.5 61.5 47.5l14 80c-19.333 -19.333 -40.833 -35.833 -64.5 -49.5s-49.5 -20.5 -77.5 -20.5
c-38.667 0 -64.5 13.5 -77.5 40.5s-16.167 62.5 -9.5 106.5c40 -10.667 75.5 -14.167 106.5 -10.5s57.5 11.834 79.5 24.501s39.5 28.334 52.5 47.001s21.167 37.667 24.5 57zM308.001 338.999c-2 -12 -6.83496 -22.998 -14.502 -32.998s-18.167 -17.833 -31.5 -23.5
s-29.5 -8.83398 -48.5 -9.50098s-41.167 2 -66.5 8c11.333 41.333 27.833 71.166 49.5 89.499s42.5 27.5 62.5 27.5c20.667 0 34.834 -5.83301 42.501 -17.5s9.83398 -25.5 6.50098 -41.5zM446.999 662.001h-108l-139 -137h62z" />
    <glyph glyph-name="ecircumflex" unicode="&#xea;" horiz-adv-x="410" 
d="M396 332c3.33301 18.667 3.16699 36.333 -0.5 53s-10.834 31.167 -21.501 43.5s-25 22.166 -43 29.499s-40 11 -66 11c-28 0 -54.333 -5.33301 -79 -16s-47 -26.167 -67 -46.5s-37.167 -44.833 -51.5 -73.5s-24.833 -61 -31.5 -97
c-6.66699 -36.667 -7.66699 -70.334 -3 -101.001s13.834 -56.667 27.501 -78s31.5 -38 53.5 -50s47.333 -18 76 -18c38 0 70.167 6.83301 96.5 20.5s46.833 29.5 61.5 47.5l14 80c-19.333 -19.333 -40.833 -35.833 -64.5 -49.5s-49.5 -20.5 -77.5 -20.5
c-38.667 0 -64.5 13.5 -77.5 40.5s-16.167 62.5 -9.5 106.5c40 -10.667 75.5 -14.167 106.5 -10.5s57.5 11.834 79.5 24.501s39.5 28.334 52.5 47.001s21.167 37.667 24.5 57zM308.001 338.999c-2 -12 -6.83496 -22.998 -14.502 -32.998s-18.167 -17.833 -31.5 -23.5
s-29.5 -8.83398 -48.5 -9.50098s-41.167 2 -66.5 8c11.333 41.333 27.833 71.166 49.5 89.499s42.5 27.5 62.5 27.5c20.667 0 34.834 -5.83301 42.501 -17.5s9.83398 -25.5 6.50098 -41.5zM424.999 525.001l-110 148h-32l-162 -148h65l104 78l77 -78h58z" />
    <glyph glyph-name="edieresis" unicode="&#xeb;" horiz-adv-x="410" 
d="M396 332c3.33301 18.667 3.16699 36.333 -0.5 53s-10.834 31.167 -21.501 43.5s-25 22.166 -43 29.499s-40 11 -66 11c-28 0 -54.333 -5.33301 -79 -16s-47 -26.167 -67 -46.5s-37.167 -44.833 -51.5 -73.5s-24.833 -61 -31.5 -97
c-6.66699 -36.667 -7.66699 -70.334 -3 -101.001s13.834 -56.667 27.501 -78s31.5 -38 53.5 -50s47.333 -18 76 -18c38 0 70.167 6.83301 96.5 20.5s46.833 29.5 61.5 47.5l14 80c-19.333 -19.333 -40.833 -35.833 -64.5 -49.5s-49.5 -20.5 -77.5 -20.5
c-38.667 0 -64.5 13.5 -77.5 40.5s-16.167 62.5 -9.5 106.5c40 -10.667 75.5 -14.167 106.5 -10.5s57.5 11.834 79.5 24.501s39.5 28.334 52.5 47.001s21.167 37.667 24.5 57zM308.001 338.999c-2 -12 -6.83496 -22.998 -14.502 -32.998s-18.167 -17.833 -31.5 -23.5
s-29.5 -8.83398 -48.5 -9.50098s-41.167 2 -66.5 8c11.333 41.333 27.833 71.166 49.5 89.499s42.5 27.5 62.5 27.5c20.667 0 34.834 -5.83301 42.501 -17.5s9.83398 -25.5 6.50098 -41.5zM421.999 589.001c2.66699 12 0.166992 22.667 -7.5 32s-17.834 14 -30.501 14
s-24.334 -4.66699 -35.001 -14s-17 -20 -19 -32c-2.66699 -13.333 -0.166992 -24.333 7.5 -33s17.834 -13 30.501 -13s24.334 4.33301 35.001 13s17 19.667 19 33zM239.999 589.001c2.66699 12 0.166992 22.667 -7.5 32s-17.834 14 -30.501 14s-24.334 -4.66699 -35.001 -14
s-17 -20 -19 -32c-2.66699 -13.333 -0.166992 -24.333 7.5 -33s17.834 -13 30.501 -13s24.334 4.33301 35.001 13s17 19.667 19 33z" />
    <glyph glyph-name="igrave" unicode="&#xec;" horiz-adv-x="258" 
d="M252 525l-101 137h-103l141 -137h63zM232 77c-7.33301 -4.66699 -15.667 -8.83301 -25 -12.5s-17.666 -5.5 -24.999 -5.5c-14.667 0 -25.167 5.16699 -31.5 15.5s-6.83301 29.5 -1.5 57.5c6.66699 36 14.334 69.833 23.001 101.5s15.667 62.834 21 93.501
c4 23.333 6.66699 43.166 8 59.499s1.5 30 0.5 41s-2.66699 19.667 -5 26s-4.83301 11.5 -7.5 15.5l-120 -20l-12 -50c18 0 29.667 -6 35 -18s5.33301 -33.333 0 -64s-12.5 -62 -21.5 -94s-16.167 -64 -21.5 -96c-4.66699 -24.667 -5.66699 -45.667 -3 -63s8 -31.333 16 -42
s18.167 -18.5 30.5 -23.5s26.166 -7.5 41.499 -7.5c20 0 37.167 2.83301 51.5 8.5s26.166 12.5 35.499 20.5z" />
    <glyph glyph-name="iacute" unicode="&#xed;" horiz-adv-x="258" 
d="M357 662h-108l-139 -137h62zM232 77c-7.33301 -4.66699 -15.667 -8.83301 -25 -12.5s-17.666 -5.5 -24.999 -5.5c-14.667 0 -25.167 5.16699 -31.5 15.5s-6.83301 29.5 -1.5 57.5c6.66699 36 14.334 69.833 23.001 101.5s15.667 62.834 21 93.501
c4 23.333 6.66699 43.166 8 59.499s1.5 30 0.5 41s-2.66699 19.667 -5 26s-4.83301 11.5 -7.5 15.5l-120 -20l-12 -50c18 0 29.667 -6 35 -18s5.33301 -33.333 0 -64s-12.5 -62 -21.5 -94s-16.167 -64 -21.5 -96c-4.66699 -24.667 -5.66699 -45.667 -3 -63s8 -31.333 16 -42
s18.167 -18.5 30.5 -23.5s26.166 -7.5 41.499 -7.5c20 0 37.167 2.83301 51.5 8.5s26.166 12.5 35.499 20.5z" />
    <glyph glyph-name="icircumflex" unicode="&#xee;" horiz-adv-x="258" 
d="M232 77c-7.33301 -4.66699 -15.667 -8.83301 -25 -12.5s-17.666 -5.5 -24.999 -5.5c-14.667 0 -25.167 5.16699 -31.5 15.5s-6.83301 29.5 -1.5 57.5c6.66699 36 14.334 69.833 23.001 101.5s15.667 62.834 21 93.501c4 23.333 6.66699 43.166 8 59.499s1.5 30 0.5 41
s-2.66699 19.667 -5 26s-4.83301 11.5 -7.5 15.5l-120 -20l-12 -50c18 0 29.667 -6 35 -18s5.33301 -33.333 0 -64s-12.5 -62 -21.5 -94s-16.167 -64 -21.5 -96c-4.66699 -24.667 -5.66699 -45.667 -3 -63s8 -31.333 16 -42s18.167 -18.5 30.5 -23.5
s26.166 -7.5 41.499 -7.5c20 0 37.167 2.83301 51.5 8.5s26.166 12.5 35.499 20.5zM330.999 525.001l-110 148h-32l-162 -148h65l104 78l77 -78h58z" />
    <glyph glyph-name="idieresis" unicode="&#xef;" horiz-adv-x="258" 
d="M329 589c2.66699 12 0.166992 22.667 -7.5 32s-17.834 14 -30.501 14s-24.334 -4.66699 -35.001 -14s-17 -20 -19 -32c-2.66699 -13.333 -0.166992 -24.333 7.5 -33s17.834 -13 30.501 -13s24.334 4.33301 35.001 13s17 19.667 19 33zM147 589
c2.66699 12 0.166992 22.667 -7.5 32s-17.834 14 -30.501 14s-24.334 -4.66699 -35.001 -14s-17 -20 -19 -32c-2.66699 -13.333 -0.166992 -24.333 7.5 -33s17.834 -13 30.501 -13s24.334 4.33301 35.001 13s17 19.667 19 33zM232 77
c-7.33301 -4.66699 -15.667 -8.83301 -25 -12.5s-17.666 -5.5 -24.999 -5.5c-14.667 0 -25.167 5.16699 -31.5 15.5s-6.83301 29.5 -1.5 57.5c6.66699 36 14.334 69.833 23.001 101.5s15.667 62.834 21 93.501c4 23.333 6.66699 43.166 8 59.499s1.5 30 0.5 41
s-2.66699 19.667 -5 26s-4.83301 11.5 -7.5 15.5l-120 -20l-12 -50c18 0 29.667 -6 35 -18s5.33301 -33.333 0 -64s-12.5 -62 -21.5 -94s-16.167 -64 -21.5 -96c-4.66699 -24.667 -5.66699 -45.667 -3 -63s8 -31.333 16 -42s18.167 -18.5 30.5 -23.5
s26.166 -7.5 41.499 -7.5c20 0 37.167 2.83301 51.5 8.5s26.166 12.5 35.499 20.5z" />
    <glyph glyph-name="eth" unicode="&#xf0;" horiz-adv-x="445" 
d="M309 229c-10 -56 -24.999 -96.833 -44.999 -122.5s-44 -38.5 -72 -38.5s-46.833 12.833 -56.5 38.5s-9.5 66.5 0.5 122.5c9.33301 56 24.166 96.833 44.499 122.5s44.5 38.5 72.5 38.5s46.833 -12.833 56.5 -38.5s9.5 -66.5 -0.5 -122.5zM338.001 639
c-24.667 26.667 -53.6699 48.332 -87.0029 64.999l-78 -24c17.333 -9.33301 34 -20.333 50 -33s30.667 -26.667 44 -42c-17.333 -7.33301 -31 -13.5 -41 -18.5l-28 -13.5c-8.66699 -4 -8 -19 2 -45l93 44c14.667 -21.333 26.334 -44.5 35.001 -69.5
s13.334 -52.5 14.001 -82.5c-9.33301 16 -21.333 28.167 -36 36.5s-33 12.5 -55 12.5c-30 0 -57 -6.16699 -81 -18.5s-45 -29.166 -63 -50.499s-33 -46.166 -45 -74.499s-20.667 -58.5 -26 -90.5c-6.66699 -36.667 -8.33398 -70.167 -5.00098 -100.5
s11.333 -56.166 24 -77.499s29.834 -38 51.501 -50s47.834 -18 78.501 -18c60.667 0 110.167 22.167 148.5 66.5s65.833 113.166 82.5 206.499c12.667 70.667 14.667 135 6 193s-27.667 108 -57 150l42.5 20.5l29 14c9 4.33301 7.83301 19.166 -3.5 44.499z" />
    <glyph glyph-name="ntilde" unicode="&#xf1;" horiz-adv-x="501" 
d="M481 77c-7.33301 -4.66699 -15.499 -8.83496 -24.499 -12.502s-17.167 -5.5 -24.5 -5.5c-14.667 0 -25.167 5.16699 -31.5 15.5s-6.83301 29.5 -1.5 57.5c5.33301 31.333 12.5 63 21.5 95s15.833 60.667 20.5 86c5.33301 30.667 6.66602 56 3.99902 76s-8 36 -16 48
s-18 20.333 -30 25s-25 7 -39 7c-16 0 -32 -3.33301 -48 -10s-31.167 -15.667 -45.5 -27s-27.833 -24 -40.5 -38s-23.667 -28.667 -33 -44c2.66699 20 4 36.667 4 50s-0.833008 24.5 -2.5 33.5s-3.66699 16 -6 21s-4.5 9.16699 -6.5 12.5l-112 -20l-12 -50
c18 0 29.667 -6 35 -18s5.33301 -33.333 0 -64l-38 -214c-2.66699 -16.667 -7 -28.667 -13 -36s-17.667 -11 -35 -11l8 -54h158l13 54c-17.333 0 -27.833 3.5 -31.5 10.5s-3.83398 19.167 -0.500977 36.5l27 155c23.333 41.333 46.333 71.833 69 91.5s41.667 29.5 57 29.5
c14.667 0 24.834 -5.66699 30.501 -17s5.5 -33.666 -0.5 -66.999c-3.33301 -19.333 -9.16602 -44.166 -17.499 -74.499s-15.166 -60.833 -20.499 -91.5c-4.66699 -24.667 -5.66699 -45.667 -3 -63s8 -31.333 16 -42s18.167 -18.5 30.5 -23.5s26.166 -7.5 41.499 -7.5
c20 0 37.167 2.83301 51.5 8.5s26.166 12.5 35.499 20.5zM465.001 644.999l-39.999 -0.00195312c-4 -19.333 -9.66699 -33.166 -17 -41.499s-16.666 -12.5 -27.999 -12.5c-10 0 -19.5 3.16699 -28.5 9.5s-18.167 13.333 -27.5 21s-19.166 14.667 -29.499 21
s-21.5 9.5 -33.5 9.5c-26.667 0 -48 -10.667 -64 -32s-27.333 -50.666 -34 -87.999h40c4.66699 18 10.5 31.667 17.5 41s16.5 14 28.5 14c9.33301 0 18.666 -3.16699 27.999 -9.5s18.666 -13.333 27.999 -21s19.166 -14.667 29.499 -21s21.5 -9.5 33.5 -9.5
c24 0 44.333 9.66699 61 29s28.667 49.333 36 90z" />
    <glyph glyph-name="ograve" unicode="&#xf2;" horiz-adv-x="445" 
d="M353 525l-101 137h-103l141 -137h63zM410 223c7.33301 40 8.83496 75.332 4.50195 105.999s-13.166 56.334 -26.499 77.001s-30.833 36.334 -52.5 47.001s-46.167 16 -73.5 16s-53.333 -5.16699 -78 -15.5s-46.834 -25.333 -66.501 -45s-36.5 -44 -50.5 -73
s-24.333 -62.5 -31 -100.5c-6.66699 -40 -7.83398 -75.333 -3.50098 -106s13.166 -56.334 26.499 -77.001s30.833 -36.334 52.5 -47.001s46.167 -16 73.5 -16c56 0 104 19.833 144 59.5s67 97.834 81 174.501zM310.002 228.999c-10 -56 -24.999 -96.833 -44.999 -122.5
s-44 -38.5 -72 -38.5s-46.833 12.833 -56.5 38.5s-9.83398 66.5 -0.500977 122.5c10 56 25.167 96.833 45.5 122.5s44.5 38.5 72.5 38.5s46.667 -12.833 56 -38.5s9.33301 -66.5 0 -122.5z" />
    <glyph glyph-name="oacute" unicode="&#xf3;" horiz-adv-x="445" 
d="M410 223c7.33301 40 8.83496 75.332 4.50195 105.999s-13.166 56.334 -26.499 77.001s-30.833 36.334 -52.5 47.001s-46.167 16 -73.5 16s-53.333 -5.16699 -78 -15.5s-46.834 -25.333 -66.501 -45s-36.5 -44 -50.5 -73s-24.333 -62.5 -31 -100.5
c-6.66699 -40 -7.83398 -75.333 -3.50098 -106s13.166 -56.334 26.499 -77.001s30.833 -36.334 52.5 -47.001s46.167 -16 73.5 -16c56 0 104 19.833 144 59.5s67 97.834 81 174.501zM310.002 228.999c-10 -56 -24.999 -96.833 -44.999 -122.5s-44 -38.5 -72 -38.5
s-46.833 12.833 -56.5 38.5s-9.83398 66.5 -0.500977 122.5c10 56 25.167 96.833 45.5 122.5s44.5 38.5 72.5 38.5s46.667 -12.833 56 -38.5s9.33301 -66.5 0 -122.5zM450.003 661.999h-108l-139 -137h62z" />
    <glyph glyph-name="ocircumflex" unicode="&#xf4;" horiz-adv-x="445" 
d="M410 223c7.33301 40 8.83496 75.332 4.50195 105.999s-13.166 56.334 -26.499 77.001s-30.833 36.334 -52.5 47.001s-46.167 16 -73.5 16s-53.333 -5.16699 -78 -15.5s-46.834 -25.333 -66.501 -45s-36.5 -44 -50.5 -73s-24.333 -62.5 -31 -100.5
c-6.66699 -40 -7.83398 -75.333 -3.50098 -106s13.166 -56.334 26.499 -77.001s30.833 -36.334 52.5 -47.001s46.167 -16 73.5 -16c56 0 104 19.833 144 59.5s67 97.834 81 174.501zM310.002 228.999c-10 -56 -24.999 -96.833 -44.999 -122.5s-44 -38.5 -72 -38.5
s-46.833 12.833 -56.5 38.5s-9.83398 66.5 -0.500977 122.5c10 56 25.167 96.833 45.5 122.5s44.5 38.5 72.5 38.5s46.667 -12.833 56 -38.5s9.33301 -66.5 0 -122.5zM429.003 524.999l-110 148h-32l-162 -148h65l104 78l77 -78h58z" />
    <glyph glyph-name="otilde" unicode="&#xf5;" horiz-adv-x="445" 
d="M410 223c7.33301 40 8.83496 75.332 4.50195 105.999s-13.166 56.334 -26.499 77.001s-30.833 36.334 -52.5 47.001s-46.167 16 -73.5 16s-53.333 -5.16699 -78 -15.5s-46.834 -25.333 -66.501 -45s-36.5 -44 -50.5 -73s-24.333 -62.5 -31 -100.5
c-6.66699 -40 -7.83398 -75.333 -3.50098 -106s13.166 -56.334 26.499 -77.001s30.833 -36.334 52.5 -47.001s46.167 -16 73.5 -16c56 0 104 19.833 144 59.5s67 97.834 81 174.501zM310.002 228.999c-10 -56 -24.999 -96.833 -44.999 -122.5s-44 -38.5 -72 -38.5
s-46.833 12.833 -56.5 38.5s-9.83398 66.5 -0.500977 122.5c10 56 25.167 96.833 45.5 122.5s44.5 38.5 72.5 38.5s46.667 -12.833 56 -38.5s9.33301 -66.5 0 -122.5zM436.003 644.999l-39.999 -0.00195312c-4 -19.333 -9.66699 -33.166 -17 -41.499
s-16.666 -12.5 -27.999 -12.5c-10 0 -19.5 3.16699 -28.5 9.5s-18.167 13.333 -27.5 21s-19.166 14.667 -29.499 21s-21.5 9.5 -33.5 9.5c-26.667 0 -48 -10.667 -64 -32s-27.333 -50.666 -34 -87.999h40c4.66699 18 10.5 31.667 17.5 41s16.5 14 28.5 14
c9.33301 0 18.666 -3.16699 27.999 -9.5s18.666 -13.333 27.999 -21s19.166 -14.667 29.499 -21s21.5 -9.5 33.5 -9.5c24 0 44.333 9.66699 61 29s28.667 49.333 36 90z" />
    <glyph glyph-name="odieresis" unicode="&#xf6;" horiz-adv-x="445" 
d="M410 223c7.33301 40 8.83496 75.332 4.50195 105.999s-13.166 56.334 -26.499 77.001s-30.833 36.334 -52.5 47.001s-46.167 16 -73.5 16s-53.333 -5.16699 -78 -15.5s-46.834 -25.333 -66.501 -45s-36.5 -44 -50.5 -73s-24.333 -62.5 -31 -100.5
c-6.66699 -40 -7.83398 -75.333 -3.50098 -106s13.166 -56.334 26.499 -77.001s30.833 -36.334 52.5 -47.001s46.167 -16 73.5 -16c56 0 104 19.833 144 59.5s67 97.834 81 174.501zM310.002 228.999c-10 -56 -24.999 -96.833 -44.999 -122.5s-44 -38.5 -72 -38.5
s-46.833 12.833 -56.5 38.5s-9.83398 66.5 -0.500977 122.5c10 56 25.167 96.833 45.5 122.5s44.5 38.5 72.5 38.5s46.667 -12.833 56 -38.5s9.33301 -66.5 0 -122.5zM425.003 588.999c2.66699 12 0.166992 22.667 -7.5 32s-17.834 14 -30.501 14
s-24.334 -4.66699 -35.001 -14s-17 -20 -19 -32c-2.66699 -13.333 -0.166992 -24.333 7.5 -33s17.834 -13 30.501 -13s24.334 4.33301 35.001 13s17 19.667 19 33zM243.003 588.999c2.66699 12 0.166992 22.667 -7.5 32s-17.834 14 -30.501 14s-24.334 -4.66699 -35.001 -14
s-17 -20 -19 -32c-2.66699 -13.333 -0.166992 -24.333 7.5 -33s17.834 -13 30.501 -13s24.334 4.33301 35.001 13s17 19.667 19 33z" />
    <glyph glyph-name="divide" unicode="&#xf7;" horiz-adv-x="474" 
d="M331 439c3.33301 16 0.333008 29.5 -9 40.5s-22 16.5 -38 16.5c-15.333 0 -29.5 -5.5 -42.5 -16.5s-21.167 -24.5 -24.5 -40.5c-2.66699 -15.333 0.5 -28.666 9.5 -39.999s21.167 -17 36.5 -17c16 0 30.667 5.66699 44 17s21.333 24.666 24 39.999zM448 308h-393l-14 -76
h394zM271 101c3.33301 16 0.333008 29.5 -9 40.5s-22 16.5 -38 16.5c-15.333 0 -29.5 -5.5 -42.5 -16.5s-21.167 -24.5 -24.5 -40.5c-3.33301 -15.333 -0.333008 -28.833 9 -40.5s22 -17.5 38 -17.5s30.333 5.83301 43 17.5s20.667 25.167 24 40.5z" />
    <glyph glyph-name="oslash" unicode="&#xf8;" horiz-adv-x="445" 
d="M318 317c1.33301 -25.333 -0.999023 -54.667 -6.99902 -88c-10 -58 -25.333 -99.833 -46 -125.5s-45 -38.5 -73 -38.5c-24.667 0 -42.334 9.33301 -53.001 28zM127.001 138.999c-2 25.333 0.333008 55.333 7 90c10 57.333 25.5 99 46.5 125s45.5 39 73.5 39
c24 0 41.333 -10 52 -30zM58.001 51.999l-32 -39.002l-22 -27.5c-6.66699 -8.33301 6.33301 -12.5 39 -12.5l20.5 25.5l13.5 17c4 5 13 1.83301 27 -9.5s41 -17 81 -17c55.333 0 103 19.833 143 59.5s67 97.834 81 174.501c7.33301 40 9 75 5 105s-12.667 55.667 -26 77
l64 80h-49l-40 -51c-26.667 23.333 -60.667 35 -102 35c-27.333 0 -53.166 -5.16699 -77.499 -15.5s-46.333 -25.333 -66 -45s-36.5 -44 -50.5 -73s-24.333 -62.5 -31 -100.5c-7.33301 -40 -8.83301 -75.167 -4.5 -105.5s13.166 -56.166 26.499 -77.499z" />
    <glyph glyph-name="ugrave" unicode="&#xf9;" horiz-adv-x="489" 
d="M359 525l-101 137h-103l141 -137h63zM473 77c-7.33301 -4.66699 -15.502 -8.83203 -24.502 -12.499s-17.167 -5.5 -24.5 -5.5c-14.667 0 -25.167 5.16699 -31.5 15.5s-6.83301 29.5 -1.5 57.5l60 337l-103 -17l-46 -262c-21.333 -36 -43 -63.333 -65 -82
s-40.667 -28 -56 -28s-25.666 5.83301 -30.999 17.5s-5 34.167 1 67.5c4.66699 25.333 11 52.333 19 81s14.333 55.667 19 81c4 23.333 6.5 43.166 7.5 59.499s1.16699 30 0.5 41s-2.16699 19.667 -4.5 26s-5.16602 11.5 -8.49902 15.5l-119 -20l-12 -50
c18 0 29.5 -5.83301 34.5 -17.5s4.83301 -33.167 -0.5 -64.5c-2 -12.667 -4.83301 -26.334 -8.5 -41.001l-11.5 -44.5l-11.5 -44.5c-3.66699 -14.667 -6.5 -28.667 -8.5 -42c-5.33301 -30.667 -6.66602 -56 -3.99902 -76s8 -36 16 -48s18 -20.333 30 -25s25 -7 39 -7
c16 0 31.5 2.83301 46.5 8.5s29.167 13.334 42.5 23.001s26 20.667 38 33s23 24.833 33 37.5c-0.666992 -36.667 7.33301 -62.5 24 -77.5s38 -22.5 64 -22.5c20 0 37.167 2.83301 51.5 8.5s26.166 12.5 35.499 20.5z" />
    <glyph glyph-name="uacute" unicode="&#xfa;" horiz-adv-x="489" 
d="M473 77c-7.33301 -4.66699 -15.502 -8.83203 -24.502 -12.499s-17.167 -5.5 -24.5 -5.5c-14.667 0 -25.167 5.16699 -31.5 15.5s-6.83301 29.5 -1.5 57.5l60 337l-103 -17l-46 -262c-21.333 -36 -43 -63.333 -65 -82s-40.667 -28 -56 -28s-25.666 5.83301 -30.999 17.5
s-5 34.167 1 67.5c4.66699 25.333 11 52.333 19 81s14.333 55.667 19 81c4 23.333 6.5 43.166 7.5 59.499s1.16699 30 0.5 41s-2.16699 19.667 -4.5 26s-5.16602 11.5 -8.49902 15.5l-119 -20l-12 -50c18 0 29.5 -5.83301 34.5 -17.5s4.83301 -33.167 -0.5 -64.5
c-2 -12.667 -4.83301 -26.334 -8.5 -41.001l-11.5 -44.5l-11.5 -44.5c-3.66699 -14.667 -6.5 -28.667 -8.5 -42c-5.33301 -30.667 -6.66602 -56 -3.99902 -76s8 -36 16 -48s18 -20.333 30 -25s25 -7 39 -7c16 0 31.5 2.83301 46.5 8.5s29.167 13.334 42.5 23.001
s26 20.667 38 33s23 24.833 33 37.5c-0.666992 -36.667 7.33301 -62.5 24 -77.5s38 -22.5 64 -22.5c20 0 37.167 2.83301 51.5 8.5s26.166 12.5 35.499 20.5zM464.998 662.002h-108l-139 -137h62z" />
    <glyph glyph-name="ucircumflex" unicode="&#xfb;" horiz-adv-x="489" 
d="M473 77c-7.33301 -4.66699 -15.502 -8.83203 -24.502 -12.499s-17.167 -5.5 -24.5 -5.5c-14.667 0 -25.167 5.16699 -31.5 15.5s-6.83301 29.5 -1.5 57.5l60 337l-103 -17l-46 -262c-21.333 -36 -43 -63.333 -65 -82s-40.667 -28 -56 -28s-25.666 5.83301 -30.999 17.5
s-5 34.167 1 67.5c4.66699 25.333 11 52.333 19 81s14.333 55.667 19 81c4 23.333 6.5 43.166 7.5 59.499s1.16699 30 0.5 41s-2.16699 19.667 -4.5 26s-5.16602 11.5 -8.49902 15.5l-119 -20l-12 -50c18 0 29.5 -5.83301 34.5 -17.5s4.83301 -33.167 -0.5 -64.5
c-2 -12.667 -4.83301 -26.334 -8.5 -41.001l-11.5 -44.5l-11.5 -44.5c-3.66699 -14.667 -6.5 -28.667 -8.5 -42c-5.33301 -30.667 -6.66602 -56 -3.99902 -76s8 -36 16 -48s18 -20.333 30 -25s25 -7 39 -7c16 0 31.5 2.83301 46.5 8.5s29.167 13.334 42.5 23.001
s26 20.667 38 33s23 24.833 33 37.5c-0.666992 -36.667 7.33301 -62.5 24 -77.5s38 -22.5 64 -22.5c20 0 37.167 2.83301 51.5 8.5s26.166 12.5 35.499 20.5zM437.998 525.002l-110 148h-32l-162 -148h65l104 78l77 -78h58z" />
    <glyph glyph-name="udieresis" unicode="&#xfc;" horiz-adv-x="489" 
d="M473 77c-7.33301 -4.66699 -15.502 -8.83203 -24.502 -12.499s-17.167 -5.5 -24.5 -5.5c-14.667 0 -25.167 5.16699 -31.5 15.5s-6.83301 29.5 -1.5 57.5l60 337l-103 -17l-46 -262c-21.333 -36 -43 -63.333 -65 -82s-40.667 -28 -56 -28s-25.666 5.83301 -30.999 17.5
s-5 34.167 1 67.5c4.66699 25.333 11 52.333 19 81s14.333 55.667 19 81c4 23.333 6.5 43.166 7.5 59.499s1.16699 30 0.5 41s-2.16699 19.667 -4.5 26s-5.16602 11.5 -8.49902 15.5l-119 -20l-12 -50c18 0 29.5 -5.83301 34.5 -17.5s4.83301 -33.167 -0.5 -64.5
c-2 -12.667 -4.83301 -26.334 -8.5 -41.001l-11.5 -44.5l-11.5 -44.5c-3.66699 -14.667 -6.5 -28.667 -8.5 -42c-5.33301 -30.667 -6.66602 -56 -3.99902 -76s8 -36 16 -48s18 -20.333 30 -25s25 -7 39 -7c16 0 31.5 2.83301 46.5 8.5s29.167 13.334 42.5 23.001
s26 20.667 38 33s23 24.833 33 37.5c-0.666992 -36.667 7.33301 -62.5 24 -77.5s38 -22.5 64 -22.5c20 0 37.167 2.83301 51.5 8.5s26.166 12.5 35.499 20.5zM435.998 589.002c2.66699 12 0.166992 22.667 -7.5 32s-17.834 14 -30.501 14s-24.334 -4.66699 -35.001 -14
s-17 -20 -19 -32c-2.66699 -13.333 -0.166992 -24.333 7.5 -33s17.834 -13 30.501 -13s24.334 4.33301 35.001 13s17 19.667 19 33zM253.998 589.002c2.66699 12 0.166992 22.667 -7.5 32s-17.834 14 -30.501 14s-24.334 -4.66699 -35.001 -14s-17 -20 -19 -32
c-2.66699 -13.333 -0.166992 -24.333 7.5 -33s17.834 -13 30.501 -13s24.334 4.33301 35.001 13s17 19.667 19 33z" />
    <glyph glyph-name="yacute" unicode="&#xfd;" horiz-adv-x="401" 
d="M448 445l-96.001 20.9951c-8 -9.33301 -16.667 -22.666 -26 -39.999s-18.666 -36.333 -27.999 -57l-112 -238c-4.66699 -9.33301 -8.5 -18.666 -11.5 -27.999s-4 -3.16602 -3 18.501s1.66699 52.167 2 91.5s-0.666992 75.333 -3 108s-5.83301 61.334 -10.5 86.001
s-10.667 44.334 -18 59.001l-110 -21l-13 -49c8.66699 0 16.334 -1 23.001 -3s12.5 -7.16699 17.5 -15.5s9.5 -20.833 13.5 -37.5s7.66699 -39.667 11 -69s6.66602 -66 9.99902 -110s6.66602 -97.667 9.99902 -161h9c-23.333 -54 -44.166 -92.667 -62.499 -116
s-36.5 -35 -54.5 -35c-26 0 -41 15.667 -45 47l-33 -7l-3 -103c26 -9.33301 48.333 -14 67 -14c21.333 0 40.666 4.33301 57.999 13s33.833 21 49.5 37s30.834 35.667 45.501 59s29.667 50 45 80l188 368c7.33301 14 13.833 25.333 19.5 34s11.167 15.5 16.5 20.5
s11 8.33301 17 10s13 2.5 21 2.5zM424.999 661.995h-108l-139 -137h62z" />
    <glyph glyph-name="thorn" unicode="&#xfe;" horiz-adv-x="461" 
d="M425 229c7.33301 40 9.33203 75 5.99902 105s-10.5 55 -21.5 75s-25.333 35 -43 45s-37.834 15 -60.501 15c-43.333 0 -80.666 -18.667 -111.999 -56l29 169c4.66699 26 7.5 47.833 8.5 65.5s1 32 0 43s-2.66699 19.5 -5 25.5s-4.83301 11 -7.5 15l-119 -20l-12 -50
c18 0 29.667 -6 35 -18s5.33301 -33.333 0 -64l-143 -808l103 16l46 257c18.667 -36.667 50 -55 94 -55c22.667 0 44.5 5 65.5 15s40.5 25 58.5 45s33.833 45 47.5 75s23.834 65 30.501 105zM323.999 229c-10 -56.667 -24.499 -97.834 -43.499 -123.501
s-40.5 -38.5 -64.5 -38.5c-25.333 0 -43.333 12.833 -54 38.5s-11 66.834 -1 123.501s25.167 97.834 45.5 123.501s43.166 38.5 68.499 38.5c24 0 40.667 -12.833 50 -38.5s9 -66.834 -1 -123.501z" />
    <glyph glyph-name="ydieresis" unicode="&#xff;" horiz-adv-x="401" 
d="M448 445l-96.001 20.9951c-8 -9.33301 -16.667 -22.666 -26 -39.999s-18.666 -36.333 -27.999 -57l-112 -238c-4.66699 -9.33301 -8.5 -18.666 -11.5 -27.999s-4 -3.16602 -3 18.501s1.66699 52.167 2 91.5s-0.666992 75.333 -3 108s-5.83301 61.334 -10.5 86.001
s-10.667 44.334 -18 59.001l-110 -21l-13 -49c8.66699 0 16.334 -1 23.001 -3s12.5 -7.16699 17.5 -15.5s9.5 -20.833 13.5 -37.5s7.66699 -39.667 11 -69s6.66602 -66 9.99902 -110s6.66602 -97.667 9.99902 -161h9c-23.333 -54 -44.166 -92.667 -62.499 -116
s-36.5 -35 -54.5 -35c-26 0 -41 15.667 -45 47l-33 -7l-3 -103c26 -9.33301 48.333 -14 67 -14c21.333 0 40.666 4.33301 57.999 13s33.833 21 49.5 37s30.834 35.667 45.501 59s29.667 50 45 80l188 368c7.33301 14 13.833 25.333 19.5 34s11.167 15.5 16.5 20.5
s11 8.33301 17 10s13 2.5 21 2.5zM403.999 588.995c2.66699 12 0.166992 22.667 -7.5 32s-17.834 14 -30.501 14s-24.334 -4.66699 -35.001 -14s-17 -20 -19 -32c-2.66699 -13.333 -0.166992 -24.333 7.5 -33s17.834 -13 30.501 -13s24.334 4.33301 35.001 13
s17 19.667 19 33zM221.999 588.995c2.66699 12 0.166992 22.667 -7.5 32s-17.834 14 -30.501 14s-24.334 -4.66699 -35.001 -14s-17 -20 -19 -32c-2.66699 -13.333 -0.166992 -24.333 7.5 -33s17.834 -13 30.501 -13s24.334 4.33301 35.001 13s17 19.667 19 33z" />
    <glyph glyph-name="dotlessi" unicode="&#x131;" horiz-adv-x="258" 
d="M232 77c-7.33301 -4.66699 -15.667 -8.83301 -25 -12.5s-17.666 -5.5 -24.999 -5.5c-14.667 0 -25.167 5.16699 -31.5 15.5s-6.83301 29.5 -1.5 57.5c6.66699 36 14.334 69.833 23.001 101.5s15.667 62.834 21 93.501c4 23.333 6.66699 43.166 8 59.499s1.5 30 0.5 41
s-2.66699 19.667 -5 26s-4.83301 11.5 -7.5 15.5l-120 -20l-12 -50c18 0 29.667 -6 35 -18s5.33301 -33.333 0 -64s-12.5 -62 -21.5 -94s-16.167 -64 -21.5 -96c-4.66699 -24.667 -5.66699 -45.667 -3 -63s8 -31.333 16 -42s18.167 -18.5 30.5 -23.5
s26.166 -7.5 41.499 -7.5c20 0 37.167 2.83301 51.5 8.5s26.166 12.5 35.499 20.5z" />
    <glyph glyph-name="Lslash" unicode="&#x141;" horiz-adv-x="441" 
d="M109 307c-18 -10.667 -32.1689 -19.501 -42.502 -26.501l-29 -19c-9 -5.66699 -17.167 -28.5 -24.5 -68.5l86 55l-26 -147c-3.33301 -17.333 -8.5 -29.5 -15.5 -36.5s-19.167 -10.5 -36.5 -10.5l8 -54h378l23 129l-47 13c-6.66699 -24.667 -14.167 -41.167 -22.5 -49.5
s-23.166 -12.5 -44.499 -12.5h-141c0 1.33301 1.5 9.83301 4.5 25.5s6.66699 35.834 11 60.501l12.5 72.5l10.5 60.5c3 16.667 36.833 45.667 101.5 87l11 60l-97 -62l23 131c3.33301 17.333 8.33301 29.5 15 36.5s18.667 10.5 36 10.5l-7 54h-172l-13 -54
c17.333 0 28.333 -3.5 33 -10.5s5.33398 -19.167 2.00098 -36.5z" />
    <glyph glyph-name="lslash" unicode="&#x142;" horiz-adv-x="256" 
d="M85 333l-35 -196.998c-4.66699 -27.333 -5.83398 -50.333 -3.50098 -69s7.5 -33.667 15.5 -45s18.167 -19.333 30.5 -24s26.166 -7 41.499 -7c20.667 0 38.167 2.83301 52.5 8.5s26.166 12.5 35.499 20.5l10 57c-7.33301 -4.66699 -15.666 -8.83398 -24.999 -12.501
s-17.666 -5.5 -24.999 -5.5c-14 0 -24.167 5.16699 -30.5 15.5s-6.83301 29.5 -1.5 57.5l48 273l92 59l11 60l-93 -59l21 118c4.66699 25.333 7.5 46.666 8.5 63.999s1 31.5 0 42.5s-2.66699 19.667 -5 26s-4.83301 11.5 -7.5 15.5l-119 -20l-13 -50c18 0 29.667 -6 35 -18
s5.33301 -33.333 0 -64c0 -0.666992 -1.16699 -7 -3.5 -19s-5.16602 -27.5 -8.49902 -46.5l-9.5 -55.5l-8 -46.5c-2.33301 -13 -34.5 -39.167 -96.5 -78.5l-11 -60z" />
    <glyph glyph-name="OE" unicode="&#x152;" horiz-adv-x="751" 
d="M757 616h-391.002c-84.667 0 -153.667 -25.167 -207 -75.5s-88.666 -126.166 -105.999 -227.499s-8 -178.833 28 -232.5s96.667 -80.5 182 -80.5h418l23 127l-46 12c-6.66699 -23.333 -14.5 -39.5 -23.5 -48.5s-23.5 -13.5 -43.5 -13.5h-137l36 203h178l14 78h-178
l32 182h81c16.667 0 30 -0.833008 40 -2.5s17.5 -4.83398 22.5 -9.50098s7.83301 -11 8.5 -19s0.333984 -18 -0.999023 -30l48 12zM428.998 536l-80.9971 -456.002h-72c-54 0 -90.333 19.833 -109 59.5s-21.334 95.834 -8.00098 168.501s36.166 128.834 68.499 168.501
s75.166 59.5 128.499 59.5h73z" />
    <glyph glyph-name="oe" unicode="&#x153;" horiz-adv-x="684" 
d="M670 334c3.33301 18.667 3.16895 36.167 -0.498047 52.5s-10.834 30.666 -21.501 42.999s-25 22 -43 29s-39.667 10.5 -65 10.5c-30 0 -58.333 -7.16699 -85 -21.5s-49.667 -33.5 -69 -57.5c-12 24.667 -28.333 44 -49 58s-45.667 21 -75 21
c-27.333 0 -53.333 -5.16699 -78 -15.5s-46.834 -25.5 -66.501 -45.5s-36.667 -44.833 -51 -74.5s-24.833 -63.834 -31.5 -102.501s-7.66699 -73.167 -3 -103.5s13.667 -55.666 27 -75.999s30.833 -35.833 52.5 -46.5s46.167 -16 73.5 -16c30 0 58 7.33301 84 22
s48.667 34.667 68 60c12.667 -24.667 29.667 -44.5 51 -59.5s46.666 -22.5 75.999 -22.5c38 0 70.167 6.83301 96.5 20.5s46.833 29.5 61.5 47.5l13 78c-19.333 -20 -40.666 -36.667 -63.999 -50s-49 -20 -77 -20c-19.333 0 -35.5 3.66699 -48.5 11s-22.833 17.5 -29.5 30.5
s-10.667 28.667 -12 47s-0.333008 38.833 3 61.5c40 -10.667 75.667 -14.167 107 -10.5s58 11.834 80 24.501s39.333 28.5 52 47.5s20.667 38.167 24 57.5zM584.003 340c-2 -12 -6.83301 -22.999 -14.5 -32.999s-18.334 -17.833 -32.001 -23.5
s-30.167 -8.83398 -49.5 -9.50098s-41.666 2 -66.999 8c12 42 28.833 72 50.5 90s42.167 27 61.5 27c21.333 0 35.833 -5.66699 43.5 -17s10.167 -25.333 7.5 -42zM310.003 229.001c-10 -56 -24.999 -97 -44.999 -123s-44 -39 -72 -39s-46.833 13 -56.5 39
s-9.83398 67 -0.500977 123c10 56 25.167 97 45.5 123s44.5 39 72.5 39s46.667 -13 56 -39s9.33301 -67 0 -123z" />
    <glyph glyph-name="Scaron" unicode="&#x160;" horiz-adv-x="461" 
d="M451 579c-4 2.66699 -10.5 6.66504 -19.5 11.998s-20.333 10.5 -34 15.5s-29.667 9.5 -48 13.5s-38.833 6 -61.5 6c-23.333 0 -46.5 -3.33301 -69.5 -10s-44 -16.667 -63 -30s-35.167 -29.5 -48.5 -48.5s-22.333 -41.167 -27 -66.5
c-4.66699 -26 -4.33398 -49 0.999023 -69s14.166 -38 26.499 -54s27.5 -30.5 45.5 -43.5s38 -25.167 60 -36.5c40 -22 67.333 -42 82 -60s20 -38.667 16 -62c-5.33301 -27.333 -17.666 -47.333 -36.999 -60s-41.666 -19 -66.999 -19c-14 0 -28 1.5 -42 4.5
s-26.5 8.33301 -37.5 16s-20.167 18 -27.5 31s-11.666 29.167 -12.999 48.5h-40l-32 -113c4 -3.33301 11 -8.5 21 -15.5s22.667 -14 38 -21s33.166 -13.167 53.499 -18.5s42.833 -8 67.5 -8c58.667 0 107.334 14.167 146.001 42.5s62.667 68.5 72 120.5
c8.66699 49.333 -1 91.333 -29 126s-69.667 65.334 -125 92.001c-32 16 -54 32.5 -66 49.5s-16 36.167 -12 57.5c4 22.667 15.667 40.334 35 53.001s40.666 19 63.999 19c11.333 0 22.5 -1.16699 33.5 -3.5s21.167 -6.5 30.5 -12.5s17.5 -14.333 24.5 -25
s11.5 -24.667 13.5 -42h39zM486 816.998h-65l-104 -78l-77 78h-58l110 -148h32z" />
    <glyph glyph-name="scaron" unicode="&#x161;" horiz-adv-x="370" 
d="M353 392c0 23.333 -10.9971 42.002 -32.9971 56.002s-53.333 21 -94 21c-20.667 0 -40.5 -2.66699 -59.5 -8s-36.333 -13 -52 -23s-29 -22.667 -40 -38s-18.5 -33 -22.5 -53s-3.66699 -38.167 1 -54.5s12.334 -30.666 23.001 -42.999s23.167 -22.833 37.5 -31.5
s29.166 -16 44.499 -22c26 -10.667 46.167 -21.334 60.5 -32.001s19.166 -26.667 14.499 -48c-3.33301 -17.333 -13.166 -31 -29.499 -41s-34.5 -15 -54.5 -15c-22.667 0 -40.167 3.83301 -52.5 11.5s-18.5 19.167 -18.5 34.5c0 8.66699 2 18 6 28h-57
c-12.667 -18 -19 -35.667 -19 -53c0 -27.333 11.333 -49.5 34 -66.5s56 -25.5 100 -25.5c20.667 0 41 2.66699 61 8s38.167 13.5 54.5 24.5s30.5 24.5 42.5 40.5s20.333 35 25 57c5.33301 23.333 5.83301 43.5 1.5 60.5s-11.833 31.833 -22.5 44.5s-24 23.667 -40 33
s-33.333 17.333 -52 24c-21.333 8.66699 -38.833 18.167 -52.5 28.5s-18.834 24.166 -15.501 41.499c3.33301 15.333 12.166 27.833 26.499 37.5s31.5 14.5 51.5 14.5c21.333 0 37.166 -3.66699 47.499 -11s15.5 -16.333 15.5 -27c0 -6.66699 -2.33301 -15.334 -7 -26.001
h54c6 8 11 16.167 15 24.5s6 17.833 6 28.5zM417.003 673.002h-65l-104 -78l-77 78h-58l110 -148h32z" />
    <glyph glyph-name="Ydieresis" unicode="&#x178;" horiz-adv-x="501" 
d="M574 562l-6.99609 54h-163l-13 -54c33.333 0 39.666 -14.333 18.999 -43l-138 -197l-67 197c-5.33301 16 -5.33301 27.167 0 33.5s16.666 9.5 33.999 9.5l-7 54h-176l-14 -54c15.333 0 26.166 -3.33301 32.499 -10s12.5 -17.667 18.5 -33l104 -282l-24 -136
c-3.33301 -18 -8.33301 -30.333 -15 -37s-18.667 -10 -36 -10l7 -54h172l13 54c-17.333 0 -28.333 3.33301 -33 10s-5.33398 19 -2.00098 37l24 136l204 282c11.333 16.667 21.333 28 30 34s21 9 37 9zM484.004 733c2.66699 12 0.166992 22.667 -7.5 32
s-17.834 14 -30.501 14s-24.334 -4.66699 -35.001 -14s-17 -20 -19 -32c-2.66699 -13.333 -0.166992 -24.333 7.5 -33s17.834 -13 30.501 -13s24.334 4.33301 35.001 13s17 19.667 19 33zM302.004 733c2.66699 12 0.166992 22.667 -7.5 32s-17.834 14 -30.501 14
s-24.334 -4.66699 -35.001 -14s-17 -20 -19 -32c-2.66699 -13.333 -0.166992 -24.333 7.5 -33s17.834 -13 30.501 -13s24.334 4.33301 35.001 13s17 19.667 19 33z" />
    <glyph glyph-name="Zcaron" unicode="&#x17d;" horiz-adv-x="446" 
d="M481 586l-6.00195 30.001h-369l-27 -127l45 -12c3.33301 11.333 6.83301 20.666 10.5 27.999s8 13.5 13 18.5s11.5 8.5 19.5 10.5s18 3 30 3h135l-350 -507l7 -30h389l27 127l-46 12c-3.33301 -12 -6.66602 -22 -9.99902 -30s-7.66602 -14.167 -12.999 -18.5
s-11.833 -7.33301 -19.5 -9s-17.5 -2.5 -29.5 -2.5h-155zM484.998 817.001h-65l-104 -78l-77 78h-58l110 -148h32z" />
    <glyph glyph-name="zcaron" unicode="&#x17e;" horiz-adv-x="384" 
d="M385 428l-5.99902 29.998h-296l-27 -119l43 -11c7.33301 21.333 16.166 36.666 26.499 45.999s29.166 14 56.499 14h73l-269 -362l35 -37c0.666992 0.666992 3.66699 3.33398 9 8.00098s13.5 9.83398 24.5 15.501s22.833 8.5 35.5 8.5c16 0 31.833 -1.5 47.5 -4.5
s31 -6.5 46 -10.5s29.667 -7.5 44 -10.5s28.5 -4.5 42.5 -4.5c28 0 48.167 6.33301 60.5 19s19.5 27.667 21.5 45c2 13.333 1.33301 26.333 -2 39s-7.33301 22.334 -12 29.001h-47c1.33301 -3.33301 2.5 -7.16602 3.5 -11.499s0.833008 -8.83301 -0.5 -13.5
c-1.33301 -6 -4.16602 -11 -8.49902 -15s-10.5 -6 -18.5 -6c-23.333 0 -44.833 3.16699 -64.5 9.5s-40.167 10.166 -61.5 11.499zM422.001 672.998h-65l-104 -78l-77 78h-58l110 -148h32z" />
    <glyph glyph-name="florin" unicode="&#x192;" horiz-adv-x="385" 
d="M435 718c-7.33301 1.33301 -17.001 2.33301 -29.001 3s-23.667 1 -35 1c-56.667 0 -102.167 -16.5 -136.5 -49.5s-56.166 -77.5 -65.499 -133.5l-24 -130h-71l-13 -77h71l-60 -340c-4.66699 -29.333 -9.83398 -53.5 -15.501 -72.5s-11.5 -34.167 -17.5 -45.5
s-12.5 -19.166 -19.5 -23.499s-14.5 -6.5 -22.5 -6.5c-12 0 -20.833 4.16699 -26.5 12.5s-9.16699 19.5 -10.5 33.5l-33 -6l-5 -105c70 -15.333 126 -2.5 168 38.5s72 113.167 90 216.5l52 298h123l14 77h-123l22 122c6.66699 39.333 16.834 67.666 30.501 84.999
s31.5 26 53.5 26c12.667 0 22.5 -2.5 29.5 -7.5s11.833 -14.167 14.5 -27.5l32 6z" />
    <glyph glyph-name="circumflex" unicode="&#x2c6;" 
d="M417 525l-110 148h-32l-162 -148h65l104 78l77 -78h58z" />
    <glyph glyph-name="caron" unicode="&#x2c7;" 
d="M443 673h-65l-104 -78l-77 78h-58l110 -148h32z" />
    <glyph glyph-name="breve" unicode="&#x2d8;" 
d="M405 649h-45.0039c-8.66699 -19.333 -20.5 -34.833 -35.5 -46.5s-31.5 -17.5 -49.5 -17.5c-17.333 0 -31.166 5.83301 -41.499 17.5s-17.166 27.167 -20.499 46.5h-45c-5.33301 -40.667 1.33398 -71.5 20.001 -92.5s44.334 -31.5 77.001 -31.5c34 0 63.667 10.667 89 32
s42.333 52 51 92z" />
    <glyph glyph-name="dotaccent" unicode="&#x2d9;" 
d="M318 572c2.66699 12.667 0.333984 23.5 -6.99902 32.5s-17.333 13.5 -30 13.5c-12 0 -23.333 -4.5 -34 -13.5s-17 -19.833 -19 -32.5c-2.66699 -12.667 -0.333984 -23.167 6.99902 -31.5s17.333 -12.5 30 -12.5s24.167 4.16699 34.5 12.5s16.5 18.833 18.5 31.5z" />
    <glyph glyph-name="ring" unicode="&#x2da;" 
d="M387 629c2.66699 14.667 2.50098 28.334 -0.499023 41.001s-8.5 23.834 -16.5 33.501s-17.833 17.167 -29.5 22.5s-24.5 8 -38.5 8c-14.667 0 -28.834 -2.66699 -42.501 -8s-26.167 -12.833 -37.5 -22.5s-20.833 -20.834 -28.5 -33.501s-12.5 -26.334 -14.5 -41.001
c-2.66699 -14 -2.33398 -27.333 0.999023 -40s9 -23.834 17 -33.501s17.833 -17.167 29.5 -22.5s24.5 -8 38.5 -8c14.667 0 28.834 2.66699 42.501 8s26 12.833 37 22.5s20.167 20.834 27.5 33.501s12.333 26 15 40zM339.001 629c-3.33301 -15.333 -11.333 -28.333 -24 -39
s-26.667 -16 -42 -16s-27.666 5.33301 -36.999 16s-12.333 23.667 -9 39s11.333 28.5 24 39.5s26.667 16.5 42 16.5s27.666 -5.5 36.999 -16.5s12.333 -24.167 9 -39.5z" />
    <glyph glyph-name="ogonek" unicode="&#x2db;" 
d="M249 -90l-9.99805 40.002l-17 -22c-7.33301 -8.66699 -15 -15.667 -23 -21s-16.333 -8 -25 -8c-15.333 0 -26 4.66699 -32 14s-8 20 -6 32c1.33301 8.66699 4.5 16.167 9.5 22.5s10.667 11.666 17 15.999s13 7.5 20 9.5s13.5 3 19.5 3h12l13 31l-12 1
c-15.333 2 -30.666 1 -45.999 -3s-29.333 -10.167 -42 -18.5s-23.334 -18.833 -32.001 -31.5s-14.667 -27 -18 -43c-4 -22.667 0.666992 -42 14 -58s31.666 -24 54.999 -24s43.666 5.66699 60.999 17s31.333 25.666 42 42.999z" />
    <glyph glyph-name="tilde" unicode="&#x2dc;" 
d="M426 645l-39.999 -0.00195312c-4 -19.333 -9.66699 -33.166 -17 -41.499s-16.666 -12.5 -27.999 -12.5c-10 0 -19.5 3.16699 -28.5 9.5s-18.167 13.333 -27.5 21s-19.166 14.667 -29.499 21s-21.5 9.5 -33.5 9.5c-26.667 0 -48 -10.667 -64 -32
s-27.333 -50.666 -34 -87.999h40c4.66699 18 10.5 31.667 17.5 41s16.5 14 28.5 14c9.33301 0 18.666 -3.16699 27.999 -9.5s18.666 -13.333 27.999 -21s19.166 -14.667 29.499 -21s21.5 -9.5 33.5 -9.5c24 0 44.333 9.66699 61 29s28.667 49.333 36 90z" />
    <glyph glyph-name="hungarumlaut" unicode="&#x2dd;" 
d="M463 675h-86l-140 -150h49zM323 675h-85l-140 -150h49z" />
    <glyph glyph-name="Delta" unicode="&#x394;" horiz-adv-x="517" 
d="M467 31l-99 592h-67l-319 -592l13 -31h448zM370 76h-275l216 425z" />
    <glyph glyph-name="Omega" unicode="&#x3a9;" horiz-adv-x="545" 
d="M539 386c6 31.333 5.66602 61.6709 -1.00098 91.0039s-18.667 55.166 -36 77.499s-39.833 40.166 -67.5 53.499s-59.834 20 -96.501 20c-36 0 -69.667 -6.5 -101 -19.5s-59 -30.5 -83 -52.5s-43.833 -47.5 -59.5 -76.5s-26.5 -59.167 -32.5 -90.5
c-8.66699 -48 -4 -91.167 14 -129.5s44.333 -67.166 79 -86.499l-18 -98h-13c-21.333 0 -35.333 3.66699 -42 11s-10 22 -10 44h-44l-6 -130h171l41 233c-19.333 5.33301 -35.166 13.666 -47.499 24.999s-21.5 24.166 -27.5 38.499s-9.66699 29.333 -11 45
s-0.666016 30.834 2.00098 45.501c3.33301 17.333 9.5 35.5 18.5 54.5s21 36.5 36 52.5s32.833 29.167 53.5 39.5s44.334 15.5 71.001 15.5c27.333 0 49.666 -5.16699 66.999 -15.5s30.5 -23.5 39.5 -39.5s14.5 -33.5 16.5 -52.5s1.33301 -37.167 -2 -54.5
c-2.66699 -14.667 -7.16699 -30 -13.5 -46s-15.166 -31.167 -26.499 -45.5s-25 -27 -41 -38s-35 -19.167 -57 -24.5l-41 -233h186l25 130h-43c-6 -21.333 -12.833 -35.833 -20.5 -43.5s-21.167 -11.5 -40.5 -11.5h-25l18 99c21.333 9.33301 41.166 21.166 59.499 35.499
s34.833 30.666 49.5 48.999s27.167 38.333 37.5 60s17.5 44.167 21.5 67.5z" />
    <glyph glyph-name="pi" unicode="&#x3c0;" horiz-adv-x="499" 
d="M475 404l-6.99902 54.001h-390l-14 -54c17.333 0 28.333 -3.5 33 -10.5s5.33398 -19.167 2.00098 -36.5l-45 -256c-3.33301 -17.333 -8 -29.5 -14 -36.5s-17.667 -10.5 -35 -10.5l7 -54h161l13 54c-17.333 0 -27.833 3.5 -31.5 10.5s-3.83398 19.167 -0.500977 36.5
l48 273h125l-42 -238c-4.66699 -27.333 -5.83398 -50.333 -3.50098 -69s7.5 -33.667 15.5 -45s18.167 -19.333 30.5 -24s26.166 -7 41.499 -7c20.667 0 38.167 2.83301 52.5 8.5s26.166 12.5 35.499 20.5l10 57c-7.33301 -4.66699 -15.666 -8.83398 -24.999 -12.501
s-17.666 -5.5 -24.999 -5.5c-14 0 -24.167 5.16699 -30.5 15.5s-6.83301 29.5 -1.5 57.5l39 225c3.33301 17.333 8.33301 29.5 15 36.5s18.667 10.5 36 10.5z" />
    <glyph glyph-name="endash" unicode="&#x2013;" horiz-adv-x="652" 
d="M579 306h-478l-13 -72h478z" />
    <glyph glyph-name="emdash" unicode="&#x2014;" horiz-adv-x="692" 
d="M707 306h-694l-13 -72h694z" />
    <glyph glyph-name="quoteleft" unicode="&#x2018;" horiz-adv-x="198" 
d="M254 747l-44.999 0.000976562c-26 -24.667 -48.667 -52.334 -68 -83.001s-31.333 -59 -36 -85c-2.66699 -16.667 -3 -30.834 -1 -42.501s5.66699 -21.167 11 -28.5s11.666 -12.666 18.999 -15.999s15 -5 23 -5c14.667 0 26.834 4.33301 36.501 13s15.5 19.667 17.5 33
c1.33301 9.33301 0.666016 17.333 -2.00098 24s-5.66699 13.334 -9 20.001s-6.16602 14 -8.49902 22s-2.5 17.333 -0.5 28c4 22 11.167 42.167 21.5 60.5s24.166 38.166 41.499 59.499z" />
    <glyph glyph-name="quoteright" unicode="&#x2019;" horiz-adv-x="198" 
d="M230 656c3.33301 16.667 3.83301 30.832 1.5 42.499s-6 21.167 -11 28.5s-11.167 12.666 -18.5 15.999s-15 5 -23 5c-15.333 0 -27.666 -4.66699 -36.999 -14s-15 -20.333 -17 -33c-2 -9.33301 -1.66699 -17.333 1 -24s5.66699 -13.334 9 -20.001
s6.16602 -13.667 8.49902 -21s2.5 -16.666 0.5 -27.999c-4 -22 -11 -42.167 -21 -60.5s-23.667 -38.166 -41 -59.499h45c26 24.667 48.5 52.334 67.5 83.001s30.833 59 35.5 85z" />
    <glyph glyph-name="quotesinglbase" unicode="&#x201a;" horiz-adv-x="198" 
d="M118 22c3.33301 16.667 3.83301 30.833 1.5 42.5s-6 21.167 -11 28.5s-11.167 12.666 -18.5 15.999s-15 5 -23 5c-15.333 0 -27.666 -4.33301 -36.999 -13s-15 -19.667 -17 -33c-1.33301 -9.33301 -0.833008 -17.333 1.5 -24s5.16602 -13.334 8.49902 -20.001
s6.33301 -14 9 -22s3 -17.333 1 -28c-4 -22 -11.333 -42.167 -22 -60.5s-24.667 -38.166 -42 -59.499h46c26.667 24.667 49.5 52.334 68.5 83.001s30.5 59 34.5 85z" />
    <glyph glyph-name="quotedblleft" unicode="&#x201c;" horiz-adv-x="371" 
d="M428 747l-46.001 0.000976562c-26 -24.667 -48.667 -52.334 -68 -83.001s-31 -59 -35 -85c-2.66699 -16.667 -3 -30.834 -1 -42.501s5.5 -21.167 10.5 -28.5s11.333 -12.666 19 -15.999s15.5 -5 23.5 -5c14.667 0 26.667 4.33301 36 13s15 19.667 17 33
c1.33301 9.33301 0.833008 17.333 -1.5 24s-5.16602 13.334 -8.49902 20.001s-6.16602 14 -8.49902 22s-2.5 17.333 -0.5 28c4 22 11.167 42.167 21.5 60.5s24.166 38.166 41.499 59.499zM253.999 747.001l-44.999 0.000976562c-26 -24.667 -48.667 -52.334 -68 -83.001
s-31.333 -59 -36 -85c-2.66699 -16.667 -3 -30.834 -1 -42.501s5.66699 -21.167 11 -28.5s11.666 -12.666 18.999 -15.999s15 -5 23 -5c14.667 0 26.834 4.33301 36.501 13s15.5 19.667 17.5 33c1.33301 9.33301 0.666016 17.333 -2.00098 24s-5.66699 13.334 -9 20.001
s-6.16602 14 -8.49902 22s-2.5 17.333 -0.5 28c4 22 11.167 42.167 21.5 60.5s24.166 38.166 41.499 59.499z" />
    <glyph glyph-name="quotedblright" unicode="&#x201d;" horiz-adv-x="371" 
d="M404 656c3.33301 16.667 3.83301 30.832 1.5 42.499s-6 21.167 -11 28.5s-11.333 12.666 -19 15.999s-15.5 5 -23.5 5c-14.667 0 -26.667 -4.66699 -36 -14s-15.333 -20.333 -18 -33c-1.33301 -9.33301 -0.833008 -17.333 1.5 -24s5.16602 -13.334 8.49902 -20.001
s6.33301 -13.667 9 -21s3 -16.666 1 -27.999c-4 -22 -11.167 -42.167 -21.5 -60.5s-24.166 -38.166 -41.499 -59.499h46c26 24.667 48.333 52.334 67 83.001s30.667 59 36 85zM230 655.998c3.33301 16.667 3.83301 30.832 1.5 42.499s-6 21.167 -11 28.5
s-11.167 12.666 -18.5 15.999s-15 5 -23 5c-15.333 0 -27.666 -4.66699 -36.999 -14s-15 -20.333 -17 -33c-2 -9.33301 -1.66699 -17.333 1 -24s5.66699 -13.334 9 -20.001s6.16602 -13.667 8.49902 -21s2.5 -16.666 0.5 -27.999c-4 -22 -11 -42.167 -21 -60.5
s-23.667 -38.166 -41 -59.499h45c26 24.667 48.5 52.334 67.5 83.001s30.833 59 35.5 85z" />
    <glyph glyph-name="quotedblbase" unicode="&#x201e;" horiz-adv-x="371" 
d="M292 22c2.66699 16.667 2.99902 30.833 0.999023 42.5s-5.66699 21.167 -11 28.5s-11.666 12.666 -18.999 15.999s-15 5 -23 5c-14.667 0 -26.834 -4.33301 -36.501 -13s-15.5 -19.667 -17.5 -33c-1.33301 -9.33301 -0.666016 -17.333 2.00098 -24
s5.66699 -13.334 9 -20.001s6.16602 -14 8.49902 -22s2.5 -17.333 0.5 -28c-4 -22 -11.167 -42.167 -21.5 -60.5s-24.166 -38.166 -41.499 -59.499h46c26 24.667 48.5 52.334 67.5 83.001s30.833 59 35.5 85zM117.999 21.999c3.33301 16.667 3.83301 30.833 1.5 42.5
s-6 21.167 -11 28.5s-11.167 12.666 -18.5 15.999s-15 5 -23 5c-15.333 0 -27.666 -4.33301 -36.999 -13s-15 -19.667 -17 -33c-1.33301 -9.33301 -0.833008 -17.333 1.5 -24s5.16602 -13.334 8.49902 -20.001s6.33301 -14 9 -22s3 -17.333 1 -28
c-4 -22 -11.333 -42.167 -22 -60.5s-24.667 -38.166 -42 -59.499h46c26.667 24.667 49.5 52.334 68.5 83.001s30.5 59 34.5 85z" />
    <glyph glyph-name="dagger" unicode="&#x2020;" horiz-adv-x="434" 
d="M423 458h-131l47 267h-67l-47 -267h-132l-12 -67h132l-108 -614h67l108 614h131z" />
    <glyph glyph-name="daggerdbl" unicode="&#x2021;" horiz-adv-x="434" 
d="M423 458h-131l47 267h-67l-47 -267h-132l-12 -67h132l-49 -279h-133l-11 -67h132l-47 -268h67l47 268h131l11 67h-130l49 279h131z" />
    <glyph glyph-name="bullet" unicode="&#x2022;" horiz-adv-x="343" 
d="M289 270c2.66699 15.333 2.16797 29.5 -1.49902 42.5s-9.66699 24.5 -18 34.5s-18.5 17.833 -30.5 23.5s-25.667 8.5 -41 8.5c-14.667 0 -29 -2.83301 -43 -8.5s-26.833 -13.5 -38.5 -23.5s-21.5 -21.5 -29.5 -34.5s-13.333 -27.167 -16 -42.5
c-2.66699 -14.667 -2.33398 -28.667 0.999023 -42s9 -24.833 17 -34.5s18.167 -17.334 30.5 -23.001s25.833 -8.5 40.5 -8.5c15.333 0 30 2.83301 44 8.5s26.833 13.334 38.5 23.001s21.667 21.167 30 34.5s13.833 27.333 16.5 42z" />
    <glyph glyph-name="ellipsis" unicode="&#x2026;" horiz-adv-x="645" 
d="M143 56c3.33301 18.667 -0.335938 34.5 -11.0029 47.5s-25 19.5 -43 19.5c-18.667 0 -35.667 -6.5 -51 -19.5s-24.666 -28.833 -27.999 -47.5c-3.33301 -18 0.333984 -33.667 11.001 -47s25.334 -20 44.001 -20s35.5 6.66699 50.5 20s24.167 29 27.5 47zM357.998 56
c3.33301 18.667 -0.335938 34.5 -11.0029 47.5s-25 19.5 -43 19.5c-18.667 0 -35.667 -6.5 -51 -19.5s-24.666 -28.833 -27.999 -47.5c-3.33301 -18 0.333984 -33.667 11.001 -47s25.334 -20 44.001 -20s35.5 6.66699 50.5 20s24.167 29 27.5 47zM572.996 56
c3.33301 18.667 -0.335938 34.5 -11.0029 47.5s-25 19.5 -43 19.5c-18.667 0 -35.667 -6.5 -51 -19.5s-24.666 -28.833 -27.999 -47.5c-3.33301 -18 0.333984 -33.667 11.001 -47s25.334 -20 44.001 -20s35.5 6.66699 50.5 20s24.167 29 27.5 47z" />
    <glyph glyph-name="perthousand" unicode="&#x2030;" horiz-adv-x="943" 
d="M911 147c4.66699 26 5.33398 49.334 2.00098 70.001s-9.83301 38.167 -19.5 52.5s-21.834 25.166 -36.501 32.499s-31 11 -49 11c-36 0 -67.667 -13.5 -95 -40.5s-45.666 -66.5 -54.999 -118.5c-4.66699 -26 -5.33398 -49.167 -2.00098 -69.5s9.83301 -37.5 19.5 -51.5
s21.667 -24.667 36 -32s30.5 -11 48.5 -11c36 0 67.833 13.5 95.5 40.5s46.167 65.833 55.5 116.5zM312 461.001c4.66699 26 5.33105 49.332 1.99805 69.999s-9.66602 38.167 -18.999 52.5s-21.166 25.166 -35.499 32.499s-30.5 11 -48.5 11
c-36 0 -67.833 -13.333 -95.5 -40s-46.167 -66 -55.5 -118c-4.66699 -26 -5.16699 -49.167 -1.5 -69.5s10.167 -37.666 19.5 -51.999s21.333 -25.166 36 -32.499s31 -11 49 -11c36 0 67.5 13.5 94.5 40.5s45.167 65.833 54.5 116.5zM574.997 618h-67l-419 -620h66z
M602.997 147c4.66699 26 5.33398 49.334 2.00098 70.001s-9.83301 38.167 -19.5 52.5s-21.834 25.166 -36.501 32.499s-31 11 -49 11c-36 0 -67.667 -13.5 -95 -40.5s-45.666 -66.5 -54.999 -118.5c-4.66699 -26 -5.33398 -49.167 -2.00098 -69.5s9.83301 -37.5 19.5 -51.5
s21.667 -24.667 36 -32s30.5 -11 48.5 -11c36 0 67.833 13.5 95.5 40.5s46.167 65.833 55.5 116.5zM840.997 151.001c-5.33301 -28 -14 -50.833 -26 -68.5s-27.667 -26.5 -47 -26.5s-32.166 8.83301 -38.499 26.5s-6.83301 40.5 -1.5 68.5c5.33301 28.667 14 51.667 26 69
s27.667 26 47 26s32.166 -8.66699 38.499 -26s6.83301 -40.333 1.5 -69zM242.997 465.001c-5.33301 -28 -14.001 -50.667 -26.001 -68s-27.667 -26 -47 -26s-32.166 8.66699 -38.499 26s-6.83301 40 -1.5 68c5.33301 28.667 14 51.667 26 69s27.667 26 47 26
s32 -8.66699 38 -26s6.66699 -40.333 2 -69zM532.996 151.001c-5.33301 -28 -14 -50.833 -26 -68.5s-27.667 -26.5 -47 -26.5s-32.166 8.83301 -38.499 26.5s-6.83301 40.5 -1.5 68.5c5.33301 28.667 14 51.667 26 69s27.667 26 47 26s32.166 -8.66699 38.499 -26
s6.83301 -40.333 1.5 -69z" />
    <glyph glyph-name="guilsinglleft" unicode="&#x2039;" horiz-adv-x="245" 
d="M260 466l-237 -176l-7 -41l174 -176l14 73l-95 118l136 117z" />
    <glyph glyph-name="guilsinglright" unicode="&#x203a;" horiz-adv-x="245" 
d="M244 290l-174 176l-13 -73l95 -117l-136 -118l-16 -85l237 176z" />
    <glyph glyph-name="Euro" unicode="&#x20ac;" horiz-adv-x="520" 
d="M550 566c-4.66699 4 -11.8408 9.33105 -21.5078 15.998s-21.5 13.167 -35.5 19.5s-30 11.833 -48 16.5s-37.667 7 -59 7c-61.333 0 -113.666 -19.333 -156.999 -58s-76.666 -91.334 -99.999 -158.001h-70l-11 -63h64c-1.33301 -4 -2.16602 -8.16699 -2.49902 -12.5
s-1.16602 -8.5 -2.49902 -12.5c-1.33301 -8.66699 -2.5 -17.167 -3.5 -25.5s-2.16699 -16.833 -3.5 -25.5h-66l-11 -63h75c1.33301 -31.333 6 -60.166 14 -86.499s19.667 -49.166 35 -68.499s34.333 -34.333 57 -45s49.334 -16 80.001 -16c21.333 0 40.5 1.66699 57.5 5
s32.5 7.83301 46.5 13.5s26.833 12.167 38.5 19.5s22.834 15 33.501 23l-1 117h-36c-13.333 -36 -30.166 -61.5 -50.499 -76.5s-44.166 -22.5 -71.499 -22.5c-66.667 0 -101 45.667 -103 137h148l11 63h-156c1.33301 6.66699 2.33301 13.334 3 20.001s1.66699 13.667 3 21
c1.33301 6 2.5 12 3.5 18s2.16699 11.667 3.5 17h157l11 63h-151c33.333 91.333 84.333 137 153 137c12 0 23.333 -1.5 34 -4.5s20 -8.33301 28 -16s14.5 -17.667 19.5 -30s7.83301 -27.5 8.5 -45.5h34z" />
    <glyph glyph-name="trademark" unicode="&#x2122;" horiz-adv-x="640" 
d="M685 577l-3.99902 38.998h-72l-111 -152l-56 152h-79l-10 -39c10 0 16.5 -1.33301 19.5 -4s3.83301 -7.33398 2.5 -14.001l-34 -192c-1.33301 -6 -3.83301 -10.333 -7.5 -13s-10.834 -4 -21.501 -4l6 -41h90l10 41c-10 0 -16.167 1.33301 -18.5 4s-2.83301 7 -1.5 13
l23 134c0.666992 1.33301 1 5 1 11c0 6.66699 0.333008 6.83398 1 0.500977s1.33398 -10.166 2.00098 -11.499l42 -118h27l88 121c2 2.66699 4.16699 7 6.5 13s2.66602 5.83301 0.999023 -0.5s-2.83398 -10.5 -3.50098 -12.5l-24 -137
c-1.33301 -6 -3.66602 -10.333 -6.99902 -13s-10.333 -4 -21 -4l5 -41h97l10 41c-10.667 0 -17.167 1.33301 -19.5 4s-2.83301 7 -1.5 13l35 192c1.33301 6.66699 3.33301 11.334 6 14.001s9 4 19 4zM323.001 615.998h-246l-15 -80h32c3.33301 11.333 7 19.333 11 24
s11 7 21 7h35l-35 -200c-1.33301 -6 -3.5 -10.333 -6.5 -13s-9.83301 -4 -20.5 -4l3 -41h100l11 41c-10.667 0 -17.167 1.33301 -19.5 4s-2.83301 7 -1.5 13l35 200h29c12.667 0 20.5 -2.33301 23.5 -7s4.5 -12.667 4.5 -24h32z" />
    <glyph glyph-name="partialdiff" unicode="&#x2202;" horiz-adv-x="476" 
d="M443 273c8.66699 50 11.5049 96.5 8.50488 139.5s-12.167 80.333 -27.5 112s-37.333 56.5 -66 74.5s-64 27 -106 27c-20 0 -40.333 -3.16699 -61 -9.5s-36.334 -13.166 -47.001 -20.499l-12 -70c11.333 5.33301 25.666 10.333 42.999 15s36.666 7 57.999 7
c46 0 78.667 -17.833 98 -53.5s27.333 -85.834 24 -150.501c-4 10 -9.83301 19.333 -17.5 28s-16.834 16.5 -27.501 23.5s-22.334 12.5 -35.001 16.5s-25.667 6 -39 6c-26 0 -50.333 -4.83301 -73 -14.5s-43 -23.334 -61 -41.001s-33.167 -38.5 -45.5 -62.5
s-21.166 -50.333 -26.499 -79c-5.33301 -30 -5.66602 -59 -0.999023 -87s14 -52.667 28 -74s32.333 -38.333 55 -51s49 -19 79 -19c34 0 64.833 7.16699 92.5 21.5s52.167 34 73.5 59s39.166 54.833 53.499 89.5s25.166 72.334 32.499 113.001zM326.005 204
c-2.66699 -15.333 -7.5 -31.1689 -14.5 -47.502s-15.667 -31.166 -26 -44.499s-22.666 -24.333 -36.999 -33s-30.5 -13 -48.5 -13c-30 0 -51.833 12.833 -65.5 38.5s-16.834 60.834 -9.50098 105.501c7.33301 40 21.333 71.833 42 95.5s45.667 35.5 75 35.5
c13.333 0 26 -2.83301 38 -8.5s22.167 -14.167 30.5 -25.5s14 -25.5 17 -42.5s2.5 -37.167 -1.5 -60.5z" />
    <glyph glyph-name="product" unicode="&#x220f;" horiz-adv-x="588" 
d="M594 616h-474.999l-13 -54c17.333 0 28.333 -3.5 33 -10.5s5.33398 -19.167 2.00098 -36.5l-93 -524c-3.33301 -17.333 -8.33301 -29.5 -15 -36.5s-18.667 -10.5 -36 -10.5l7 -54h172l13 54c-17.333 0 -28.333 3.5 -33 10.5s-5.33398 19.167 -2.00098 36.5l96 544h197
l-95 -544c-3.33301 -17.333 -8.33301 -29.5 -15 -36.5s-18.667 -10.5 -36 -10.5l7 -54h171l14 54c-17.333 0 -28.333 3.5 -33 10.5s-5.33398 19.167 -2.00098 36.5l92 524c3.33301 17.333 8.33301 29.5 15 36.5s18.667 10.5 36 10.5z" />
    <glyph glyph-name="summation" unicode="&#x2211;" horiz-adv-x="485" 
d="M498 616h-380.001l-32 -61l142 -292l-249 -314l11 -59h409l24 142h-47c-5.33301 -23.333 -12.5 -39.5 -21.5 -48.5s-24.5 -13.5 -46.5 -13.5h-207l234 291l-138 275h163c16.667 0 30 -0.833008 40 -2.5s17.5 -4.66699 22.5 -9s7.83301 -10.5 8.5 -18.5
s0.333984 -18 -0.999023 -30h43z" />
    <glyph glyph-name="minus" unicode="&#x2212;" horiz-adv-x="396" 
d="M366 310h-307l-14 -80h307z" />
    <glyph glyph-name="fraction" unicode="&#x2215;" horiz-adv-x="353" 
d="M435 622h-67l-421 -628h66z" />
    <glyph glyph-name="radical" unicode="&#x221a;" horiz-adv-x="480" 
d="M556 681h-77l-302 -575l-55 250l-76 -33l80 -346h52z" />
    <glyph glyph-name="infinity" unicode="&#x221e;" horiz-adv-x="661" 
d="M644 266c4 22.667 3.5 43.1689 -1.5 61.502s-13.333 34.166 -25 47.499s-26.5 23.666 -44.5 30.999s-38 11 -60 11c-16 0 -31.5 -2.5 -46.5 -7.5s-29.5 -11.5 -43.5 -19.5s-27.333 -17 -40 -27s-24.667 -20.333 -36 -31c-8 10.667 -16.833 21 -26.5 31
s-20.167 19 -31.5 27s-24 14.5 -38 19.5s-29.333 7.5 -46 7.5c-44 0 -81.667 -12.167 -113 -36.5s-51 -59.166 -59 -104.499c-4 -22 -3.5 -42.333 1.5 -61s13.167 -34.834 24.5 -48.501s25.833 -24.167 43.5 -31.5s37.5 -11 59.5 -11c33.333 0 63.5 8.5 90.5 25.5
s52.5 36.833 76.5 59.5c15.333 -22.667 34.666 -42.5 57.999 -59.5s51 -25.5 83 -25.5c44.667 0 82.834 12.5 114.501 37.5s51.5 59.833 59.5 104.5zM576 271.002c-5.33301 -27.333 -17.666 -47 -36.999 -59s-40.333 -18 -63 -18c-23.333 0 -43.333 7.33301 -60 22
s-30.667 33 -42 55c18.667 21.333 39 39.5 61 54.5s45 22.5 69 22.5c22 0 40.667 -6.33301 56 -19s20.666 -32 15.999 -58zM302 271.002c-19.333 -22 -39.501 -40.333 -60.501 -55s-44.167 -22 -69.5 -22c-22.667 0 -41.167 6.16699 -55.5 18.5s-19.166 31.833 -14.499 58.5
c4.66699 26 16.334 45.333 35.001 58s39.667 19 63 19s43.166 -7.5 59.499 -22.5s30.5 -33.167 42.5 -54.5z" />
    <glyph glyph-name="integral" unicode="&#x222b;" horiz-adv-x="299" 
d="M412 717c-7.33301 1.33301 -17 2.33203 -29 2.99902s-23.667 1 -35 1c-56.667 0 -102.167 -16.333 -136.5 -49s-56.166 -77.334 -65.499 -134.001l-97 -546c-4.66699 -29.333 -9.83398 -53.666 -15.501 -72.999s-11.5 -34.666 -17.5 -45.999s-12.5 -19.166 -19.5 -23.499
s-14.5 -6.5 -22.5 -6.5c-12.667 0 -21.667 4.33301 -27 13s-8.66602 20 -9.99902 34l-34 -7l-4 -105c69.333 -15.333 125.166 -2.5 167.499 38.5s72.5 113.5 90.5 217.5l88 497c6.66699 39.333 16.667 67.666 30 84.999s31.333 26 54 26c12.667 0 22.5 -2.5 29.5 -7.5
s11.5 -14.167 13.5 -27.5l33 6z" />
    <glyph glyph-name="approxequal" unicode="&#x2248;" horiz-adv-x="397" 
d="M387 424c-9.33301 -8.66699 -17.998 -15.6699 -25.998 -21.0029s-17.333 -10.166 -28 -14.499s-22 -6.5 -34 -6.5c-12.667 0 -24.667 2.16699 -36 6.5s-22.5 9.16602 -33.5 14.499s-22 10.166 -33 14.499s-22.833 6.5 -35.5 6.5s-24.334 -2.16699 -35.001 -6.5
s-20 -9.16602 -28 -14.499s-14.333 -10.166 -19 -14.499s-12 -33.833 -22 -88.5c1.33301 1.33301 5.66602 5 12.999 11s18 12.667 32 20s28.667 11 44 11c12.667 0 24.667 -2.16699 36 -6.5s22.5 -9.16602 33.5 -14.499s22.167 -10.166 33.5 -14.499s23.333 -6.5 36 -6.5
c15.333 0 30 3.66699 44 11s24.667 14 32 20s11.333 9.66699 12 11zM355.002 239.997c-9.33301 -8.66699 -18 -15.668 -26 -21.001s-17.333 -10.166 -28 -14.499s-22 -6.5 -34 -6.5c-12.667 0 -24.667 2.16699 -36 6.5s-22.5 9.16602 -33.5 14.499
s-22.167 10.166 -33.5 14.499s-23.333 6.5 -36 6.5c-12 0 -23.333 -2.16699 -34 -6.5s-20 -9.16602 -28 -14.499s-14.333 -10.166 -19 -14.499s-12 -34.166 -22 -89.499c1.33301 1.33301 5.5 5 12.5 11s17.5 12.667 31.5 20s28.667 11 44 11
c12.667 0 24.667 -2.16699 36 -6.5s22.5 -9.16602 33.5 -14.499s22.167 -10.166 33.5 -14.499s23.333 -6.5 36 -6.5c12 0 23.333 2.16699 34 6.5s20 9.16602 28 14.499s14.333 10.166 19 14.499s12 34.166 22 89.499z" />
    <glyph glyph-name="notequal" unicode="&#x2260;" horiz-adv-x="415" 
d="M401 395l-63 0.000976562c12.667 15.333 22.5 27.666 29.5 36.999l19.5 25.5c6 7.66699 -3 19.5 -27 35.5l-37.5 -49l-26.5 -33.5c-8 -10.333 -82 -15.5 -222 -15.5l-13 -74h167l-79 -102h-106l-13 -74h62l-57 -74l35 -24l76 98h211l13 74h-167l79 102h105z" />
    <glyph glyph-name="lessequal" unicode="&#x2264;" horiz-adv-x="424" 
d="M416 507l-342 -141l-11 -59l293 -141l14 77l-188 91l219 90zM340 76h-317l-14 -76h318z" />
    <glyph glyph-name="greaterequal" unicode="&#x2265;" horiz-adv-x="424" 
d="M400 366l-293 141l-14 -77l188 -90l-219 -91l-15 -83l342 141zM349 76h-318l-13 -76h317z" />
    <glyph glyph-name="lozenge" unicode="&#x25ca;" horiz-adv-x="501" 
d="M486 326l-139 354h-30l-264 -354l137 -367h31zM407 328l-184 -258l-89 254l182 247z" />
    <glyph glyph-name="apple" unicode="&#xf8ff;" horiz-adv-x="567" 
d="M611 562l-8.00098 54h-172l-13 -54c15.333 0 23.333 -4 24 -12s-5 -17.667 -17 -29l-174 -155l-18.5 -17l-17 -16.5l-7.5 -7.5c5.33301 16.667 9.33301 32 12 46l26 144c3.33301 17.333 8.33301 29.5 15 36.5s18.667 10.5 36 10.5l-7 54h-172l-13 -54
c17.333 0 28.333 -3.5 33 -10.5s5.33398 -19.167 2.00098 -36.5l-73 -414c-3.33301 -17.333 -8.5 -29.5 -15.5 -36.5s-19.167 -10.5 -36.5 -10.5l8 -54h172l12 54c-17.333 0 -28.166 3.33301 -32.499 10s-4.83301 19 -1.5 37l21 123l79 69l86 -196
c6 -14.667 6.5 -25.5 1.5 -32.5s-14.167 -10.5 -27.5 -10.5l8 -54h188l10 54c-15.333 0 -27.833 2.83301 -37.5 8.5s-18.5 17.167 -26.5 34.5l-121 268l187 162c15.333 13.333 27.666 22.5 36.999 27.5s20.333 7.5 33 7.5z" />
    <glyph glyph-name="fi" unicode="&#xfb01;" horiz-adv-x="515" 
d="M490 77c-7.33301 -4.66699 -15.6699 -8.83105 -25.0029 -12.498s-17.666 -5.5 -24.999 -5.5c-14.667 0 -25.167 5.16699 -31.5 15.5s-6.83301 29.5 -1.5 57.5c6.66699 36 14.334 70 23.001 102s15.667 63 21 93c4 23.333 6.66699 43.166 8 59.499s1.5 30 0.5 41
s-2.66699 19.667 -5 26s-4.83301 11.5 -7.5 15.5c-7.33301 -2.66699 -19 -5.16699 -35 -7.5s-40.333 -3.5 -73 -3.5h-119l12 70c7.33301 39.333 20 68.166 38 86.499s44.667 27.5 80 27.5c20 0 36.167 -3.83301 48.5 -11.5s19.5 -18.167 21.5 -31.5l32 6l8 105
c-3.33301 0.666992 -8.83301 1.66699 -16.5 3s-16.167 2.66602 -25.5 3.99902s-19.166 2.5 -29.499 3.5s-20.166 1.5 -29.499 1.5c-34.667 0 -64.834 -4.33301 -90.501 -13s-47.667 -21 -66 -37s-33.166 -35.167 -44.499 -57.5s-19.666 -47.5 -24.999 -75.5l-14 -81h-71
l-14 -76h72l-76 -426c-2.66699 -15.333 -6 -30.166 -10 -44.499s-9 -26.833 -15 -37.5s-13 -19.167 -21 -25.5s-17.333 -9.5 -28 -9.5c-9.33301 0 -16.166 2 -20.499 6s-7 9.16699 -8 15.5s-0.5 13.5 1.5 21.5s4.33301 15.667 7 23h-48
c-9.33301 -17.333 -14.833 -34 -16.5 -50s0.166016 -30.167 5.49902 -42.5s14.333 -22.333 27 -30s28.667 -11.5 48 -11.5c29.333 0 54.833 7.66699 76.5 23s40.167 35.166 55.5 59.499s27.833 51.833 37.5 82.5s17.167 61.334 22.5 92.001l62 354h106
c20 0 32.667 -4 38 -12s5.33301 -25.667 0 -53c-5.33301 -30 -12.333 -61.167 -21 -93.5s-16 -64.5 -22 -96.5c-4.66699 -24.667 -5.66699 -45.667 -3 -63s8 -31.333 16 -42s18.167 -18.5 30.5 -23.5s26.166 -7.5 41.499 -7.5c20 0 37.167 2.83301 51.5 8.5
s26.166 12.5 35.499 20.5z" />
    <glyph glyph-name="fl" unicode="&#xfb02;" horiz-adv-x="532" 
d="M530 715c-6 -0.666992 -14.3311 -1.16602 -24.998 -1.49902s-22 -0.5 -34 -0.5c-24.667 0.666992 -47 2.33398 -67 5.00098s-42.667 4 -68 4c-56.667 0 -102.167 -16.333 -136.5 -49s-56.166 -77.334 -65.499 -134.001l-14 -81h-72l-13 -76h71l-75 -426
c-2.66699 -15.333 -6.16699 -30.166 -10.5 -44.499s-9.5 -26.833 -15.5 -37.5s-13 -19.167 -21 -25.5s-17 -9.5 -27 -9.5c-9.33301 0 -16.166 2 -20.499 6s-7 9.16699 -8 15.5s-0.5 13.5 1.5 21.5s4.33301 15.667 7 23h-49c-9.33301 -17.333 -14.833 -34 -16.5 -50
s0.166016 -30.167 5.49902 -42.5s14.333 -22.333 27 -30s28.667 -11.5 48 -11.5c30 0 56 8 78 24s40.5 36.5 55.5 61.5s27.167 52.667 36.5 83s16.666 60.166 21.999 89.499l62 353h110l14 76h-110l13 73c6.66699 39.333 18.167 67.333 34.5 84s35.166 25 56.499 25
c18.667 0 36.667 -1.16699 54 -3.5s29.666 -3.5 36.999 -3.5l-87 -497c-4.66699 -27.333 -5.83398 -50.333 -3.50098 -69s7.5 -33.667 15.5 -45s18.167 -19.333 30.5 -24s26.166 -7 41.499 -7c20.667 0 38 2.83301 52 8.5s25.667 12.5 35 20.5l11 57
c-7.33301 -4.66699 -15.666 -8.83398 -24.999 -12.501s-17.666 -5.5 -24.999 -5.5c-14.667 0 -25.167 5.16699 -31.5 15.5s-6.83301 29.5 -1.5 57.5z" />
    <glyph glyph-name=".null" horiz-adv-x="0" 
 />
    <glyph glyph-name="nonmarkingreturn" horiz-adv-x="500" 
 />
    </font>
</defs>
</svg>
